<?xml version="1.0" encoding="UTF-8"?>
<svg version="1.1" xmlns="http://www.w3.org/2000/svg" width="357" height="363">
<path d="M0 0 C117.81 0 235.62 0 357 0 C357 119.79 357 239.58 357 363 C239.19 363 121.38 363 0 363 C0 243.21 0 123.42 0 0 Z " fill="#FEFEFE" transform="translate(0,0)"/>
<path d="M0 0 C1.09578369 0.4937915 2.19156738 0.98758301 3.32055664 1.49633789 C6.42824866 2.90110939 9.52810741 4.32160687 12.625 5.75 C13.70418701 6.2457251 13.70418701 6.2457251 14.80517578 6.75146484 C18.34899745 8.38298474 21.87937725 10.04236103 25.40771484 11.70703125 C44.50352085 20.69423323 44.50352085 20.69423323 63.875 29.0625 C70.31662289 31.72189794 76.54093055 34.63043872 82.73828125 37.828125 C85.83953765 39.39680817 88.99131598 40.82490577 92.16796875 42.234375 C93.64076294 42.88913818 93.64076294 42.88913818 95.14331055 43.55712891 C97.08778701 44.41656426 99.03573929 45.26819081 100.98754883 46.11083984 C112.95528981 51.41057961 112.95528981 51.41057961 115.625 56.75 C116.28494315 60.8039365 115.79369781 62.48105676 113.59375 65.98828125 C108.43636426 71.75071918 100.64994155 74.26378874 93.6875 77.25 C92.25120564 77.87980851 90.8156519 78.51130883 89.38085938 79.14453125 C87.23763227 80.08961653 85.09376894 81.03294487 82.94662476 81.96910095 C77.59661031 84.30321892 72.30217394 86.74147223 67.02033997 89.22535706 C60.84140364 92.12823406 54.61181063 94.9117495 48.375 97.6875 C40.0695895 101.388692 31.78264585 105.12568318 23.52734375 108.9375 C22.75993866 109.29115128 21.99253357 109.64480255 21.20187378 110.00917053 C16.66540214 112.09949247 16.66540214 112.09949247 12.13439941 114.20162964 C4.47607667 117.76728237 -3.19941668 121.17590783 -11.10546875 124.16015625 C-12.09079338 124.53327187 -12.09079338 124.53327187 -13.09602356 124.91392517 C-30.83878594 131.45193158 -48.34641442 127.43505077 -64.91162109 119.86083984 C-70.67424053 117.26223544 -76.49803361 114.79928635 -82.30541992 112.30273438 C-86.29483413 110.5755657 -90.26264187 108.8453379 -94.13671875 106.87109375 C-99.69554184 104.03967804 -105.40122279 101.51994104 -111.08444214 98.9508667 C-113.97589733 97.64353774 -116.86556299 96.3322754 -119.75532532 95.02120972 C-121.27795266 94.3304073 -122.80064851 93.63975586 -124.32341003 92.94924927 C-132.22976723 89.36383171 -140.13214724 85.76974164 -148.03012085 82.16589355 C-149.53470131 81.47972005 -151.03959744 80.79423821 -152.54483032 80.10949707 C-177.77388642 68.63181884 -177.77388642 68.63181884 -181.375 62.75 C-182.0576034 59.03360371 -181.84849847 57.4825162 -179.796875 54.30859375 C-176.90651116 51.2550642 -173.8159409 49.62173993 -170.0625 47.875 C-169.00832886 47.36682739 -169.00832886 47.36682739 -167.93286133 46.84838867 C-165.75297776 45.80221035 -163.56513031 44.77452717 -161.375 43.75 C-160.04153036 43.11877745 -158.70819212 42.48727724 -157.375 41.85546875 C-152.09884137 39.36812736 -146.79663243 36.94026786 -141.484375 34.53125 C-136.80560796 32.40685624 -132.13758186 30.26001395 -127.47265625 28.10546875 C-107.01582625 18.6627686 -86.48974501 9.39165144 -65.87475586 0.29931641 C-62.97867766 -0.9827563 -60.09201432 -2.28313194 -57.20703125 -3.58984375 C-37.88615905 -12.15318114 -18.58255268 -8.56207648 0 0 Z " fill="#0A0A0A" transform="translate(209.375,40.25)"/>
<path d="M0 0 C0.75023437 0.35900391 1.50046875 0.71800781 2.2734375 1.08789062 C3.00820312 1.42755859 3.74296875 1.76722656 4.5 2.1171875 C6.03414382 2.82719351 7.56589281 3.54239239 9.09545898 4.26220703 C19.42867833 9.10619583 29.87660683 13.70755376 40.29516602 18.36425781 C46.09091151 20.95615424 51.88198983 23.55617838 57.6484375 26.21289062 C58.55601807 26.62893555 59.46359863 27.04498047 60.39868164 27.47363281 C62.05424972 28.23397947 63.70728465 28.99987728 65.35717773 29.77246094 C72.70770034 33.13758552 79.33342124 33.58191414 87.3359375 33.58789062 C88.61307617 33.60625977 88.61307617 33.60625977 89.91601562 33.625 C100.8875936 33.65006834 109.06512 30.50378583 118.8984375 25.77539062 C126.87912233 22.00805122 134.86364118 18.32641386 143.0234375 14.96289062 C148.34689505 12.7612375 153.5383678 10.46563037 158.6640625 7.83007812 C162.97827395 5.6729724 167.33569421 3.61791852 171.7109375 1.58789062 C172.9956897 0.97312866 172.9956897 0.97312866 174.30639648 0.34594727 C175.13469971 -0.03440674 175.96300293 -0.41476074 176.81640625 -0.80664062 C177.92278442 -1.3244812 177.92278442 -1.3244812 179.05151367 -1.8527832 C184.88113159 -3.61404752 189.49787161 -2.5609007 194.9375 -0.15039062 C196.11054688 0.36845703 197.28359375 0.88730469 198.4921875 1.421875 C199.09289062 1.69604248 199.69359375 1.97020996 200.3125 2.25268555 C202.14332614 3.08556536 203.98436019 3.89155088 205.828125 4.6953125 C211.740958 7.34892423 216.08581659 9.57630575 220.5234375 14.40039062 C220.8534375 14.73039062 221.1834375 15.06039062 221.5234375 15.40039062 C221.36557113 19.50491629 221.06460018 21.76256103 218.37353516 24.93432617 C215.35814991 27.54340673 212.68748816 29.00032533 209.046875 30.60742188 C208.41717804 30.88954025 207.78748108 31.17165863 207.13870239 31.46232605 C205.06309739 32.38964919 202.9808686 33.30101348 200.8984375 34.21289062 C199.42195717 34.86981667 197.94605612 35.52804605 196.47070312 36.1875 C193.3804066 37.56811455 190.28802001 38.94388922 187.19433594 40.31689453 C180.50393046 43.29320622 173.8503407 46.34953577 167.19546509 49.40423584 C164.29114357 50.73624184 161.38463715 52.06344275 158.47816467 53.39074707 C152.55816858 56.09426252 146.64142994 58.8045868 140.73080444 61.52853394 C137.76707542 62.89326316 134.80120533 64.25329689 131.83496094 65.61254883 C130.44873092 66.24909928 129.06343068 66.88767959 127.67919922 67.52856445 C114.414568 73.66825944 101.6438331 79.44480912 86.7734375 79.65039062 C85.66484375 79.67617187 84.55625 79.70195312 83.4140625 79.72851562 C72.77933138 78.83161059 63.45221342 74.34666923 53.8984375 69.90039062 C51.84158414 68.95429675 49.78337386 68.01120184 47.72502136 67.06837463 C46.33870458 66.43325778 44.95280878 65.79722121 43.56733704 65.16026306 C37.06849214 62.1766562 30.51891145 59.31389838 23.9609375 56.46289062 C16.38781865 53.157921 8.91754586 49.74759324 1.5859375 45.93554688 C-4.05338942 43.1086904 -9.86453415 40.66557175 -15.6505127 38.15629578 C-18.19353407 37.05038479 -20.73257804 35.9355227 -23.27099609 34.8190918 C-24.58006526 34.24594503 -25.89096529 33.67696278 -27.20361328 33.11206055 C-29.12773573 32.2829613 -31.04468687 31.43890361 -32.9609375 30.59179688 C-34.09241211 30.09881104 -35.22388672 29.6058252 -36.38964844 29.09790039 C-40.18533551 27.01063274 -43.69071327 24.56983611 -45.2109375 20.37304688 C-45.23459247 17.48122727 -45.12594714 15.22552739 -43.29394531 12.89770508 C-37.90032224 8.27331772 -31.92505508 5.42642396 -25.4765625 2.52539062 C-24.42210938 2.0278125 -23.36765625 1.53023437 -22.28125 1.01757812 C-13.90134972 -2.80483253 -8.4935032 -3.88422402 0 0 Z " fill="#474747" transform="translate(88.4765625,159.599609375)"/>
<path d="M0 0 C1.40359013 0.74259487 2.80910614 1.48155855 4.21630859 2.21728516 C4.94138611 2.59870667 5.66646362 2.98012817 6.41351318 3.37310791 C10.11192301 5.26060922 13.89740154 6.94125598 17.6953125 8.6171875 C18.45512421 8.95364288 19.21493591 9.29009827 19.99777222 9.63674927 C22.31616754 10.66068553 24.63648664 11.6801642 26.95703125 12.69921875 C29.29836564 13.7316965 31.63921053 14.76527698 33.97994995 15.79910278 C35.48213153 16.46225555 36.98466715 17.12460701 38.48757935 17.78610229 C42.63398958 19.61306826 46.76085634 21.47611098 50.875 23.375 C57.93402119 26.56568025 63.54624633 27.87499905 71.26953125 27.88671875 C72.50896484 27.92345703 72.50896484 27.92345703 73.7734375 27.9609375 C85.1956793 28.01373677 95.20701932 23.00742885 105.33203125 18.19921875 C107.59352535 17.14535111 109.85525654 16.09199215 112.1171875 15.0390625 C116.05937603 13.19646688 119.99765274 11.34570558 123.93310547 9.48876953 C127.64165247 7.74018001 131.35739576 6.00763856 135.07730103 4.28335571 C136.5280478 3.60726955 137.97617013 2.92552038 139.42147827 2.23788452 C141.4608779 1.26808664 143.5084121 0.3178401 145.55859375 -0.62890625 C146.73373535 -1.18094727 147.90887695 -1.73298828 149.11962891 -2.30175781 C153.83434956 -3.88878804 157.99112266 -4.27180483 162.86279297 -2.83325195 C163.42756348 -2.52991943 163.99233398 -2.22658691 164.57421875 -1.9140625 C165.21979736 -1.57850342 165.86537598 -1.24294434 166.53051758 -0.8972168 C167.51507935 -0.3544812 167.51507935 -0.3544812 168.51953125 0.19921875 C169.91657149 0.93637833 171.31370685 1.67335766 172.7109375 2.41015625 C173.71664795 2.9510791 173.71664795 2.9510791 174.74267578 3.50292969 C178.01948915 5.2410289 181.37894321 6.81022497 184.7265625 8.40625 C186.76122989 9.5789809 188.15576721 10.6967132 189.64453125 12.51171875 C190.18018972 16.03176015 190.03301839 17.8607403 188.19921875 20.93359375 C184.69585901 24.46909441 180.88213524 25.98826266 176.33203125 27.88671875 C174.66860517 28.60131706 173.00586442 29.3175124 171.34375 30.03515625 C170.44567627 30.4206665 169.54760254 30.80617676 168.62231445 31.20336914 C164.61653817 32.96338842 160.657289 34.81853462 156.69659424 36.67689514 C151.76032158 38.99292709 146.81350004 41.28490713 141.859375 43.5625 C141.10924637 43.907435 140.35911774 44.25237 139.58625793 44.60775757 C135.61470532 46.43301245 131.64189493 48.2555134 127.66845703 50.07666016 C126.85731445 50.44845398 126.04617187 50.8202478 125.21044922 51.20330811 C123.59656309 51.94303286 121.98263142 52.68265824 120.36865234 53.42218018 C115.81607158 55.50984804 111.27166711 57.61369155 106.734375 59.734375 C105.74767822 60.19223389 104.76098145 60.65009277 103.74438477 61.12182617 C102.01122336 61.9263696 100.2808903 62.73705563 98.55444336 63.5559082 C90.12892848 67.4460372 81.60059953 70.04945484 72.26953125 69.94921875 C71.61726563 69.96919922 70.965 69.98917969 70.29296875 70.00976562 C57.56094177 69.99761674 45.56321256 63.45702591 34.26953125 58.19921875 C32.86622378 57.55330083 31.46257867 56.90811595 30.05859375 56.26367188 C24.59017403 53.7490366 19.13237073 51.21203935 13.68432617 48.65356445 C6.0778062 45.0832466 -1.56731172 41.63065088 -9.29296875 38.32421875 C-15.10560455 35.8364262 -20.87197153 33.32917445 -26.50366211 30.4519043 C-28.35322111 29.51285991 -30.21859482 28.61714328 -32.09375 27.73046875 C-33.86298828 26.8796875 -33.86298828 26.8796875 -35.66796875 26.01171875 C-36.27447266 25.72941406 -36.88097656 25.44710938 -37.50585938 25.15625 C-41.02327049 23.44591368 -43.44589531 21.9774926 -45.35546875 18.51171875 C-45.60546875 15.13671875 -45.60546875 15.13671875 -44.35546875 11.51171875 C-38.80580323 6.73502843 -31.9203049 3.61825942 -25.29296875 0.63671875 C-24.44669922 0.23453125 -23.60042969 -0.16765625 -22.72851562 -0.58203125 C-21.89255859 -0.96101562 -21.05660156 -1.34 -20.1953125 -1.73046875 C-19.45659912 -2.06933105 -18.71788574 -2.40819336 -17.95678711 -2.75732422 C-11.0086366 -4.70971865 -6.14347097 -3.43694662 0 0 Z " fill="#848484" transform="translate(104.35546875,239.48828125)"/>
</svg>
