<?xml version="1.0" encoding="UTF-8"?>
<svg version="1.1" xmlns="http://www.w3.org/2000/svg" width="1300" height="363">
<path d="M0 0 C429 0 858 0 1300 0 C1300 119.79 1300 239.58 1300 363 C871 363 442 363 0 363 C0 243.21 0 123.42 0 0 Z " fill="#FEFEFE" transform="translate(0,0)"/>
<path d="M0 0 C1.09578369 0.4937915 2.19156738 0.98758301 3.32055664 1.49633789 C6.42824866 2.90110939 9.52810741 4.32160687 12.625 5.75 C13.70418701 6.2457251 13.70418701 6.2457251 14.80517578 6.75146484 C18.34899745 8.38298474 21.87937725 10.04236103 25.40771484 11.70703125 C44.50356428 20.69413483 44.50356428 20.69413483 63.875 29.0625 C70.27029546 31.70381769 76.45279601 34.58170316 82.6015625 37.765625 C85.90119633 39.43557231 89.2629807 40.93415192 92.6484375 42.421875 C93.72391846 42.89842529 94.79939941 43.37497559 95.9074707 43.8659668 C98.05401131 44.81261756 100.20605945 45.74690062 102.36401367 46.66723633 C108.19701978 49.25333305 112.15266337 51.31246859 115.625 56.75 C116.4375 60.1875 116.4375 60.1875 115.625 63.75 C109.8473468 71.0089636 100.82835566 74.20169162 92.5625 77.75 C91.23182012 78.33195933 89.90173772 78.91528678 88.57226562 79.5 C86.58501812 80.37378144 84.59745168 81.24668237 82.6075592 82.11442566 C77.841021 84.19656285 73.11100012 86.34930272 68.3984375 88.55078125 C67.78077011 88.83924927 67.16310272 89.12771729 66.52671814 89.42492676 C63.42858586 90.87976126 60.35783542 92.37544969 57.3125 93.9375 C54.73774988 95.24540114 52.15366538 96.34626011 49.45703125 97.37890625 C42.50092935 100.13837785 35.73229765 103.30265679 28.93817139 106.43423462 C25.03703091 108.23163731 21.13147312 110.01940067 17.2265625 111.80859375 C16.46953033 112.15568893 15.71249817 112.50278412 14.93252563 112.86039734 C9.29585325 115.44448221 3.65748275 118.02420975 -2 120.5625 C-2.64710938 120.85672852 -3.29421875 121.15095703 -3.9609375 121.45410156 C-13.76542134 125.82736225 -22.783399 127.92037599 -33.5625 128 C-34.58053711 128.0309375 -34.58053711 128.0309375 -35.61914062 128.0625 C-46.75463314 128.14490883 -56.76923433 124.04390552 -66.75 119.5 C-67.84127197 119.01200928 -68.93254395 118.52401855 -70.05688477 118.02124023 C-76.9760507 114.90563454 -83.78071143 111.62554195 -90.53125 108.16015625 C-93.81604048 106.53129723 -97.15418483 105.19226806 -100.57666016 103.88549805 C-103.79258302 102.580555 -106.91498205 101.12765108 -110.0546875 99.6484375 C-111.3958844 99.01879429 -112.73728326 98.38958116 -114.07885742 97.76074219 C-114.7807016 97.4316687 -115.48254578 97.10259521 -116.20565796 96.7635498 C-122.18399119 93.97038102 -128.18434711 91.22450141 -134.18063354 88.47015381 C-136.6149746 87.35087281 -139.04792034 86.22859929 -141.48071289 85.10595703 C-148.29715199 81.96484052 -155.10924319 78.83053326 -162.015625 75.890625 C-162.93577393 75.49536621 -163.85592285 75.10010742 -164.80395508 74.69287109 C-166.40116557 74.01294908 -168.00468856 73.34753766 -169.6159668 72.70166016 C-174.77813996 70.49556219 -178.32178568 67.51205701 -181.375 62.75 C-182.12903491 58.97982546 -181.87960522 57.52746581 -179.79296875 54.3125 C-176.90602022 51.2529875 -173.81724281 49.6223458 -170.0625 47.875 C-169.00832886 47.36682739 -169.00832886 47.36682739 -167.93286133 46.84838867 C-165.75297776 45.80221035 -163.56513031 44.77452717 -161.375 43.75 C-160.04153036 43.11877745 -158.70819212 42.48727724 -157.375 41.85546875 C-152.09884137 39.36812736 -146.79663243 36.94026786 -141.484375 34.53125 C-136.80560796 32.40685624 -132.13758186 30.26001395 -127.47265625 28.10546875 C-107.01582625 18.6627686 -86.48974501 9.39165144 -65.87475586 0.29931641 C-62.97867766 -0.9827563 -60.09201432 -2.28313194 -57.20703125 -3.58984375 C-37.88615905 -12.15318114 -18.58255268 -8.56207648 0 0 Z " fill="#676362" transform="translate(209.375,40.25)"/>
<path d="M0 0 C2.24601529 1.01710036 4.49210898 2.03402761 6.73828125 3.05078125 C7.82447754 3.54787598 8.91067383 4.0449707 10.02978516 4.55712891 C13.8950329 6.31643584 17.7878782 8.0062615 21.6875 9.6875 C27.15868024 12.06949145 32.57542755 14.55744104 37.97875977 17.08935547 C40.00644371 18.03922805 42.03440336 18.98850886 44.0625 19.9375 C44.95437012 20.35531738 45.84624023 20.77313477 46.76513672 21.20361328 C49.71488006 22.5810156 52.66946883 23.94756694 55.625 25.3125 C56.56553223 25.75376221 57.50606445 26.19502441 58.47509766 26.6496582 C66.46649599 30.32357538 73.15906931 31.11849072 81.875 31.125 C83.15213867 31.14336914 83.15213867 31.14336914 84.45507812 31.16210938 C95.4266561 31.18717772 103.6041825 28.0408952 113.4375 23.3125 C121.41818483 19.54516059 129.40270368 15.86352323 137.5625 12.5 C142.88595755 10.29834688 148.0774303 8.00273974 153.203125 5.3671875 C157.51733645 3.21008177 161.87475671 1.15502789 166.25 -0.875 C167.5347522 -1.48976196 167.5347522 -1.48976196 168.84545898 -2.11694336 C169.67376221 -2.49729736 170.50206543 -2.87765137 171.35546875 -3.26953125 C172.46184692 -3.78737183 172.46184692 -3.78737183 173.59057617 -4.31567383 C179.42019409 -6.07693814 184.03693411 -5.02379133 189.4765625 -2.61328125 C190.64960938 -2.09443359 191.82265625 -1.57558594 193.03125 -1.04101562 C193.63195312 -0.76684814 194.23265625 -0.49268066 194.8515625 -0.21020508 C196.68238864 0.62267474 198.52342269 1.42866026 200.3671875 2.23242188 C206.2800205 4.8860336 210.62487909 7.11341513 215.0625 11.9375 C215.3925 12.2675 215.7225 12.5975 216.0625 12.9375 C215.90463363 17.04202567 215.60366268 19.2996704 212.91259766 22.47143555 C209.89721241 25.0805161 207.22655066 26.53743471 203.5859375 28.14453125 C202.95624054 28.42664963 202.32654358 28.70876801 201.67776489 28.99943542 C199.60215989 29.92675857 197.5199311 30.83812285 195.4375 31.75 C193.96101967 32.40692604 192.48511862 33.06515542 191.00976562 33.72460938 C187.9194691 35.10522393 184.82708251 36.4809986 181.73339844 37.85400391 C175.04299296 40.83031559 168.3894032 43.88664515 161.73452759 46.94134521 C158.83020607 48.27335121 155.92369965 49.60055212 153.01722717 50.92785645 C147.09723108 53.6313719 141.18049244 56.34169617 135.26986694 59.06564331 C132.30613792 60.43037253 129.34026783 61.79040627 126.37402344 63.1496582 C124.98779342 63.78620866 123.60249318 64.42478897 122.21826172 65.06567383 C108.9536305 71.20536882 96.1828956 76.98191849 81.3125 77.1875 C80.20390625 77.21328125 79.0953125 77.2390625 77.953125 77.265625 C67.31839388 76.36871997 57.99127592 71.8837786 48.4375 67.4375 C46.38064664 66.49140612 44.32243636 65.54831121 42.26408386 64.60548401 C40.87776708 63.97036715 39.49187128 63.33433058 38.10639954 62.69737244 C31.60755503 59.71376575 25.05798158 56.8509893 18.5 54 C10.9705038 50.71435877 3.5880376 47.28354837 -3.72265625 43.53515625 C-7.24735183 41.78351531 -10.82580955 40.18596201 -14.4375 38.625 C-15.08251465 38.3451123 -15.7275293 38.06522461 -16.39208984 37.77685547 C-17.78560567 37.17227369 -19.17916241 36.56778623 -20.57275391 35.96337891 C-21.74330322 35.45556885 -21.74330322 35.45556885 -22.9375 34.9375 C-23.85321777 34.54095215 -24.76893555 34.1444043 -25.71240234 33.73583984 C-28.68874754 32.4401733 -31.65725432 31.12772874 -34.625 29.8125 C-36.04232422 29.20088013 -36.04232422 29.20088013 -37.48828125 28.5769043 C-42.5586938 26.31430576 -46.49210703 24.35920556 -49.9375 19.9375 C-50.9777677 17.06569714 -50.70811621 14.86488517 -49.9375 11.9375 C-45.24444436 5.97429656 -37.6537747 3.08400256 -30.9375 0.0625 C-29.88304688 -0.43507812 -28.82859375 -0.93265625 -27.7421875 -1.4453125 C-16.59608316 -6.52950045 -10.85361765 -5.03900468 0 0 Z " fill="#8E8A8B" transform="translate(93.9375,162.0625)"/>
<path d="M0 0 C1.40359013 0.74259487 2.80910614 1.48155855 4.21630859 2.21728516 C4.94138611 2.59870667 5.66646362 2.98012817 6.41351318 3.37310791 C10.11192301 5.26060922 13.89740154 6.94125598 17.6953125 8.6171875 C18.45512421 8.95364288 19.21493591 9.29009827 19.99777222 9.63674927 C22.31616754 10.66068553 24.63648664 11.6801642 26.95703125 12.69921875 C29.29847575 13.73174506 31.63943071 14.76537396 33.98027039 15.79927063 C35.48135782 16.46192298 36.98282435 17.12371735 38.48469543 17.78459167 C43.48440351 19.98709922 48.45551348 22.24513254 53.40234375 24.56445312 C66.39236633 30.0523982 80.90008454 28.59958489 93.64453125 23.51171875 C100.4228184 20.5820248 107.09216315 17.41263211 113.76953125 14.26171875 C119.87492875 11.39511915 125.98536501 8.53960657 132.10266113 5.69848633 C133.79867786 4.90663719 135.49197124 4.10892899 137.18249512 3.30541992 C139.59852906 2.15724554 142.02271836 1.02819323 144.44921875 -0.09765625 C145.16014679 -0.44161438 145.87107483 -0.78557251 146.60354614 -1.13995361 C152.06926545 -3.64165086 156.91793653 -4.58870538 162.86279297 -2.83325195 C163.42756348 -2.52991943 163.99233398 -2.22658691 164.57421875 -1.9140625 C165.21979736 -1.57850342 165.86537598 -1.24294434 166.53051758 -0.8972168 C167.51507935 -0.3544812 167.51507935 -0.3544812 168.51953125 0.19921875 C169.91657149 0.93637833 171.31370685 1.67335766 172.7109375 2.41015625 C173.71664795 2.9510791 173.71664795 2.9510791 174.74267578 3.50292969 C178.01948915 5.2410289 181.37894321 6.81022497 184.7265625 8.40625 C186.76081178 9.57873991 188.15347897 10.69951675 189.64453125 12.51171875 C190.14453125 15.38671875 190.14453125 15.38671875 189.64453125 18.51171875 C186.27677235 22.43287069 182.9164158 24.66992508 178.28125 26.890625 C177.36807259 27.3319149 177.36807259 27.3319149 176.43644714 27.78211975 C174.51203121 28.70588548 172.58011916 29.61161999 170.64453125 30.51171875 C170.03579163 30.79569519 169.427052 31.07967163 168.79986572 31.37225342 C165.03900621 33.1196229 161.26408015 34.83466657 157.48272705 36.53717041 C154.65572385 37.80999902 151.83150564 39.0889568 149.00708008 40.36749268 C147.51714298 41.04190289 146.02707022 41.71601347 144.53686523 42.38983154 C135.93617714 46.28012342 127.3528354 50.20825991 118.76953125 54.13671875 C117.30705874 54.8059327 115.84457529 55.47512277 114.38208008 56.14428711 C113.6851152 56.46319916 112.98815033 56.78211121 112.27006531 57.11068726 C110.27420184 58.02362983 108.27798829 58.9358034 106.28173828 59.84790039 C103.97917272 60.90119508 101.67789722 61.9573184 99.37841797 63.01733398 C97.93233154 63.68164429 97.93233154 63.68164429 96.45703125 64.359375 C95.64105469 64.73586182 94.82507813 65.11234863 93.984375 65.50024414 C86.832201 68.59200717 80.0112081 69.79924002 72.26953125 69.94921875 C71.61065918 69.97153564 70.95178711 69.99385254 70.27294922 70.0168457 C56.83329111 69.95694841 44.26197047 62.80594379 32.39453125 57.19921875 C29.81182988 55.99080707 27.22772589 54.78542796 24.64361572 53.58003235 C22.89261972 52.76290699 21.14209103 51.94477948 19.39202881 51.12565613 C10.75563435 47.08501337 2.07972242 43.1336189 -6.60546875 39.19921875 C-7.94827467 38.59015949 -9.29104907 37.98103075 -10.63378906 37.37182617 C-13.09023221 36.25755629 -15.5469821 35.14397147 -18.00390625 34.03076172 C-22.78957386 31.86173317 -27.57260829 29.68692824 -32.35546875 27.51171875 C-33.31380615 27.07891602 -34.27214355 26.64611328 -35.25952148 26.20019531 C-38.97578344 24.49881629 -41.79300801 23.13846072 -44.54296875 20.07421875 C-45.6727714 16.51099501 -45.78834845 15.02227401 -44.35546875 11.51171875 C-38.68943454 6.81404682 -31.9620733 3.6370504 -25.29296875 0.63671875 C-24.44669922 0.23453125 -23.60042969 -0.16765625 -22.72851562 -0.58203125 C-21.89255859 -0.96101562 -21.05660156 -1.34 -20.1953125 -1.73046875 C-19.45659912 -2.06933105 -18.71788574 -2.40819336 -17.95678711 -2.75732422 C-11.0086366 -4.70971865 -6.14347097 -3.43694662 0 0 Z " fill="#B3B1B2" transform="translate(104.35546875,239.48828125)"/>
<path d="M0 0 C5.61 0 11.22 0 17 0 C18.13111302 3.6231909 19.25501129 7.24836988 20.375 10.875 C20.69210937 11.88820312 21.00921875 12.90140625 21.3359375 13.9453125 C23.0891717 19.64332365 24.5637186 25.2664384 25.59228516 31.14111328 C25.82621744 33.00595006 25.82621744 33.00595006 27 34 C27.24234375 32.97261719 27.4846875 31.94523437 27.734375 30.88671875 C29.48413898 23.60484598 31.32994922 16.51413774 34.0703125 9.52734375 C35.21736824 6.40908719 36.08722853 3.19470016 37 0 C42.28 0 47.56 0 53 0 C53.80387249 4.82323492 54.28400383 9.46606579 54.53515625 14.328125 C54.57813339 15.11717224 54.62111053 15.90621948 54.66539001 16.71917725 C54.75520387 18.38317274 54.84335368 20.04725879 54.92993164 21.71142578 C55.06137497 24.22845667 55.19922654 26.74507649 55.33789062 29.26171875 C55.76484234 37.18316109 56.12147152 45.06386088 56 53 C52.04 53 48.08 53 44 53 C43.93941406 51.23914063 43.87882812 49.47828125 43.81640625 47.6640625 C43.73193728 45.31770234 43.64729253 42.97134849 43.5625 40.625 C43.52318359 39.46871094 43.48386719 38.31242187 43.44335938 37.12109375 C43.19577173 30.37909185 42.78053875 23.70209838 42 17 C38.05433754 28.59292579 34.36822524 40.22611532 31 52 C27.7 52 24.4 52 21 52 C18.48995143 44.71699753 16.36444596 37.36134623 14.3125 29.9375 C13.99216797 28.78572266 13.67183594 27.63394531 13.34179688 26.44726562 C12.55914969 23.63207202 11.77860009 20.81631507 11 18 C10.34644922 21.64943283 9.85946807 25.1941091 9.71875 28.8984375 C9.68136719 29.79046875 9.64398437 30.6825 9.60546875 31.6015625 C9.57066406 32.51679688 9.53585937 33.43203125 9.5 34.375 C9.25967902 40.6411471 8.87292949 46.78765181 8 53 C4.37 53 0.74 53 -3 53 C-2.73386031 48.18430504 -2.46731742 43.36863261 -2.20043945 38.55297852 C-2.1101659 36.92310148 -2.01999266 35.29321888 -1.92993164 33.66333008 C-1.30972897 22.44078001 -0.66564127 11.21995332 0 0 Z " fill="#696665" transform="translate(1213,166)"/>
<path d="M0 0 C5.61 0 11.22 0 17 0 C18.29208963 4.35404156 19.58368695 8.70822813 20.875 13.0625 C21.23980469 14.29162109 21.60460937 15.52074219 21.98046875 16.78710938 C23.67953736 22.5176044 25.37602983 28.24772671 27 34 C27.24234375 32.97261719 27.4846875 31.94523437 27.734375 30.88671875 C29.48413898 23.60484598 31.32994922 16.51413774 34.0703125 9.52734375 C35.21736824 6.40908719 36.08722853 3.19470016 37 0 C42.28 0 47.56 0 53 0 C53.78979684 4.73878104 54.27990904 9.29833453 54.53515625 14.07421875 C54.57813339 14.83869827 54.62111053 15.6031778 54.66539001 16.39082336 C54.75519487 18.00354196 54.84334518 19.61635345 54.92993164 21.22924805 C55.06117266 23.66288669 55.19913815 26.09607629 55.33789062 28.52929688 C55.7923746 36.69777601 56.11011021 44.81514092 56 53 C52.04 53 48.08 53 44 53 C43.93941406 51.23914063 43.87882813 49.47828125 43.81640625 47.6640625 C43.73193728 45.31770234 43.64729253 42.97134849 43.5625 40.625 C43.52318359 39.46871094 43.48386719 38.31242187 43.44335938 37.12109375 C43.19577173 30.37909185 42.78053875 23.70209838 42 17 C38.05433754 28.59292579 34.36822524 40.22611532 31 52 C27.7 52 24.4 52 21 52 C18.32969764 45.17589397 16.18297275 38.32711276 14.3125 31.25 C14.09827393 30.44651123 13.88404785 29.64302246 13.66333008 28.81518555 C12.47157199 24.21962576 11.57340855 19.71329224 11 15 C10.09349772 22.42576448 9.6854266 29.7997834 9.39453125 37.27148438 C9.16981772 42.56774978 8.7352072 47.74939525 8 53 C4.37 53 0.74 53 -3 53 C-2.73386031 48.18430504 -2.46731742 43.36863261 -2.20043945 38.55297852 C-2.1101659 36.92310148 -2.01999266 35.29321888 -1.92993164 33.66333008 C-1.30972897 22.44078001 -0.66564127 11.21995332 0 0 Z " fill="#696665" transform="translate(771,166)"/>
<path d="M0 0 C5.61 0 11.22 0 17 0 C23.3176819 21.8358714 23.3176819 21.8358714 25.45703125 31.015625 C25.81974938 32.98488799 25.81974938 32.98488799 27 34 C27.24234375 32.97261719 27.4846875 31.94523437 27.734375 30.88671875 C29.48413898 23.60484598 31.32994922 16.51413774 34.0703125 9.52734375 C35.21736824 6.40908719 36.08722853 3.19470016 37 0 C42.28 0 47.56 0 53 0 C53.78979684 4.73878104 54.27990904 9.29833453 54.53515625 14.07421875 C54.57813339 14.83869827 54.62111053 15.6031778 54.66539001 16.39082336 C54.75519487 18.00354196 54.84334518 19.61635345 54.92993164 21.22924805 C55.06117266 23.66288669 55.19913815 26.09607629 55.33789062 28.52929688 C55.7923746 36.69777601 56.11011021 44.81514092 56 53 C52.04 53 48.08 53 44 53 C43.93941406 51.23914063 43.87882812 49.47828125 43.81640625 47.6640625 C43.73193728 45.31770234 43.64729253 42.97134849 43.5625 40.625 C43.52318359 39.46871094 43.48386719 38.31242187 43.44335938 37.12109375 C43.19577173 30.37909185 42.78053875 23.70209838 42 17 C38.05433754 28.59292579 34.36822524 40.22611532 31 52 C27.7 52 24.4 52 21 52 C18.32969764 45.17589397 16.18297275 38.32711276 14.3125 31.25 C14.09827393 30.44651123 13.88404785 29.64302246 13.66333008 28.81518555 C12.47157199 24.21962576 11.57340855 19.71329224 11 15 C10.09349772 22.42576448 9.6854266 29.7997834 9.39453125 37.27148438 C9.16981772 42.56774978 8.7352072 47.74939525 8 53 C4.37 53 0.74 53 -3 53 C-2.73386031 48.18430504 -2.46731742 43.36863261 -2.20043945 38.55297852 C-2.1101659 36.92310148 -2.01999266 35.29321888 -1.92993164 33.66333008 C-1.30972897 22.44078001 -0.66564127 11.21995332 0 0 Z " fill="#696665" transform="translate(450,166)"/>
<path d="M0 0 C1.051875 -0.03738281 2.10375 -0.07476562 3.1875 -0.11328125 C10.69988091 -0.19695876 16.21057978 1.17341603 22.5 5.375 C25.56018411 8.70520035 26.03493965 11.79544883 25.85546875 16.31640625 C25.06890252 20.87157551 22.74832568 24.30005288 19.25 27.3125 C18.6725 27.663125 18.095 28.01375 17.5 28.375 C18.26699219 29.18453125 19.03398437 29.9940625 19.82421875 30.828125 C22.94971967 34.58093104 24.09234721 38.46041588 25.3125 43.125 C25.63637695 44.27548828 25.63637695 44.27548828 25.96679688 45.44921875 C27.5 50.98821925 27.5 50.98821925 27.5 53.375 C25.54196493 53.42889087 23.58351091 53.46774217 21.625 53.5 C20.53445313 53.52320313 19.44390625 53.54640625 18.3203125 53.5703125 C15.5 53.375 15.5 53.375 13.5 51.375 C12.63014792 48.22087249 11.87121146 45.06900222 11.17578125 41.87304688 C10.4688284 38.93890516 9.82691645 36.74334596 7.8046875 34.46484375 C4.85523047 32.93128361 4.85523047 32.93128361 -1.5 32.375 C-1.5 39.305 -1.5 46.235 -1.5 53.375 C-5.46 53.375 -9.42 53.375 -13.5 53.375 C-13.5 36.215 -13.5 19.055 -13.5 1.375 C-9.47395786 -0.63802107 -4.42565193 0.05795497 0 0 Z " fill="#696665" transform="translate(398.5,165.625)"/>
<path d="M0 0 C4.95 0 9.9 0 15 0 C16.92233803 3.41292099 18.8434663 6.82648383 20.76171875 10.24169922 C21.73046865 11.96525079 22.70115215 13.68771509 23.671875 15.41015625 C24.290625 16.51230469 24.909375 17.61445313 25.546875 18.75 C26.11245117 19.75546875 26.67802734 20.7609375 27.26074219 21.796875 C29.2629371 25.48424126 31.123543 29.24708599 33 33 C33.33 22.11 33.66 11.22 34 0 C37.63 0 41.26 0 45 0 C45 17.49 45 34.98 45 53 C40.71 53 36.42 53 32 53 C28.64569387 49.07021576 26.76374959 46.26456279 24.5625 41.75 C24.00369141 40.70585937 23.44488281 39.66171875 22.86914062 38.5859375 C21.18817947 35.41578957 19.588318 32.21761633 18 29 C16.02 25.04 14.04 21.08 12 17 C11.67 28.88 11.34 40.76 11 53 C7.37 53 3.74 53 0 53 C0 35.51 0 18.02 0 0 Z " fill="#686463" transform="translate(879,166)"/>
<path d="M0 0 C4.95 0 9.9 0 15 0 C16.92233803 3.41292099 18.8434663 6.82648383 20.76171875 10.24169922 C21.73046865 11.96525079 22.70115215 13.68771509 23.671875 15.41015625 C24.290625 16.51230469 24.909375 17.61445313 25.546875 18.75 C26.11245117 19.75546875 26.67802734 20.7609375 27.26074219 21.796875 C29.2629371 25.48424126 31.123543 29.24708599 33 33 C33.33 22.11 33.66 11.22 34 0 C37.63 0 41.26 0 45 0 C45 17.49 45 34.98 45 53 C40.71 53 36.42 53 32 53 C28.64569387 49.07021576 26.76374959 46.26456279 24.5625 41.75 C24.00369141 40.70585937 23.44488281 39.66171875 22.86914062 38.5859375 C21.18817947 35.41578957 19.588318 32.21761633 18 29 C16.02 25.04 14.04 21.08 12 17 C11.67 28.88 11.34 40.76 11 53 C7.37 53 3.74 53 0 53 C0 35.51 0 18.02 0 0 Z " fill="#686463" transform="translate(567,166)"/>
<path d="M0 0 C1.09332642 -0.00845947 1.09332642 -0.00845947 2.20874023 -0.01708984 C6.62844294 0.04232965 10.21209724 0.66441074 14.375 2.3125 C13.5 10.0625 13.5 10.0625 12.375 12.3125 C11.4675 12.1475 10.56 11.9825 9.625 11.8125 C2.86555967 10.89013238 -3.98743319 9.97058005 -10.1875 13.125 C-10.991875 13.846875 -11.79625 14.56875 -12.625 15.3125 C-13.223125 15.828125 -13.82125 16.34375 -14.4375 16.875 C-18.03020701 21.22406638 -17.10499022 28.0459406 -16.625 33.3125 C-15.39338626 37.52943836 -13.92592896 40.34583751 -10.375 42.984375 C-7.22005276 44.50807111 -4.79879203 44.80844549 -1.3125 45 C0.564375 45.103125 2.44125 45.20625 4.375 45.3125 C4.375 41.3525 4.375 37.3925 4.375 33.3125 C1.735 33.3125 -0.905 33.3125 -3.625 33.3125 C-3.625 30.3425 -3.625 27.3725 -3.625 24.3125 C2.975 24.3125 9.575 24.3125 16.375 24.3125 C16.375 33.5525 16.375 42.7925 16.375 52.3125 C7.36544835 55.91632066 -4.76582503 57.40774896 -14.1875 54.125 C-15.321875 53.526875 -16.45625 52.92875 -17.625 52.3125 C-18.54152344 51.83683594 -18.54152344 51.83683594 -19.4765625 51.3515625 C-25.45896349 47.7621219 -28.2206008 41.87000191 -30.23046875 35.34765625 C-31.91291075 26.66892081 -30.75333199 19.65739195 -26.4609375 11.94921875 C-22.73385635 6.59649582 -17.43831108 2.87140633 -11.23046875 0.77734375 C-7.48610612 0.10930904 -3.79791505 0.02830945 0 0 Z " fill="#6A6666" transform="translate(700.625,164.6875)"/>
<path d="M0 0 C3.96 0 7.92 0 12 0 C12 6.6 12 13.2 12 20 C18.6 20 25.2 20 32 20 C32 13.4 32 6.8 32 0 C35.96 0 39.92 0 44 0 C44 17.49 44 34.98 44 53 C40.04 53 36.08 53 32 53 C32 45.41 32 37.82 32 30 C25.4 30 18.8 30 12 30 C12 37.59 12 45.18 12 53 C8.04 53 4.08 53 0 53 C0 35.51 0 18.02 0 0 Z " fill="#666362" transform="translate(330,166)"/>
<path d="M0 0 C5.61 0 11.22 0 17 0 C17.721875 2.31 18.44375 4.62 19.1875 7 C19.43274414 7.78463623 19.67798828 8.56927246 19.93066406 9.37768555 C21.03277593 12.90386173 22.13440517 16.43018624 23.234375 19.95703125 C23.53239014 20.91198486 23.53239014 20.91198486 23.83642578 21.88623047 C24.23873848 23.17552664 24.6407544 24.46491545 25.04248047 25.75439453 C26.23043406 29.56088527 27.43327818 33.36225658 28.6484375 37.16015625 C28.92502197 38.02729248 29.20160645 38.89442871 29.48657227 39.7878418 C30.0289161 41.48669417 30.57360153 43.18480115 31.12084961 44.88208008 C33 50.77659359 33 50.77659359 33 53 C28.71 53 24.42 53 20 53 C18.37755886 48.27375841 16.98253624 43.9126812 16 39 C10.72 39 5.44 39 0 39 C-0.12375 40.19625 -0.2475 41.3925 -0.375 42.625 C-0.77380462 46.48011134 -1.70431438 49.11294313 -3 53 C-7.29 53 -11.58 53 -16 53 C-13.74879176 43.52122847 -10.97299309 34.27071866 -8 25 C-7.29931697 22.80604138 -6.59880867 20.61202695 -5.8984375 18.41796875 C-3.93677416 12.27720385 -1.96951808 6.13824988 0 0 Z " fill="#6A6666" transform="translate(527,166)"/>
<path d="M0 0 C5.61 0 11.22 0 17 0 C17.721875 2.31 18.44375 4.62 19.1875 7 C19.43274414 7.78463623 19.67798828 8.56927246 19.93066406 9.37768555 C21.03277593 12.90386173 22.13440517 16.43018624 23.234375 19.95703125 C23.53239014 20.91198486 23.53239014 20.91198486 23.83642578 21.88623047 C24.23873848 23.17552664 24.6407544 24.46491545 25.04248047 25.75439453 C26.23043406 29.56088527 27.43327818 33.36225658 28.6484375 37.16015625 C28.92502197 38.02729248 29.20160645 38.89442871 29.48657227 39.7878418 C30.0289161 41.48669417 30.57360153 43.18480115 31.12084961 44.88208008 C33 50.77659359 33 50.77659359 33 53 C28.71 53 24.42 53 20 53 C18.37755886 48.27375841 16.98253624 43.9126812 16 39 C10.72 39 5.44 39 0 39 C-0.309375 40.5675 -0.61875 42.135 -0.9375 43.75 C-1.55214335 46.86419297 -2.22942958 49.91771831 -3 53 C-7.29 53 -11.58 53 -16 53 C-13.74879176 43.52122847 -10.97299309 34.27071866 -8 25 C-7.29931697 22.80604138 -6.59880867 20.61202695 -5.8984375 18.41796875 C-3.93677416 12.27720385 -1.96951808 6.13824988 0 0 Z " fill="#6A6766" transform="translate(634,166)"/>
<path d="M0 0 C10.89 0 21.78 0 33 0 C33 3.3 33 6.6 33 10 C26.07 10 19.14 10 12 10 C12 13.63 12 17.26 12 21 C18.6 21 25.2 21 32 21 C32 24.3 32 27.6 32 31 C25.4 31 18.8 31 12 31 C12 34.96 12 38.92 12 43 C19.26 43 26.52 43 34 43 C34 46.3 34 49.6 34 53 C22.78 53 11.56 53 0 53 C0 35.51 0 18.02 0 0 Z " fill="#676362" transform="translate(1168,166)"/>
<path d="M0 0 C10.89 0 21.78 0 33 0 C33 3.3 33 6.6 33 10 C26.07 10 19.14 10 12 10 C12 13.63 12 17.26 12 21 C18.6 21 25.2 21 32 21 C32 24.3 32 27.6 32 31 C25.4 31 18.8 31 12 31 C12 34.96 12 38.92 12 43 C19.26 43 26.52 43 34 43 C34 46.3 34 49.6 34 53 C22.78 53 11.56 53 0 53 C0 35.51 0 18.02 0 0 Z " fill="#676362" transform="translate(836,166)"/>
<path d="M0 0 C10.89 0 21.78 0 33 0 C33 3.3 33 6.6 33 10 C26.07 10 19.14 10 12 10 C12 13.63 12 17.26 12 21 C18.6 21 25.2 21 32 21 C32 24.3 32 27.6 32 31 C25.4 31 18.8 31 12 31 C12 34.96 12 38.92 12 43 C19.26 43 26.52 43 34 43 C34 46.3 34 49.6 34 53 C22.78 53 11.56 53 0 53 C0 35.51 0 18.02 0 0 Z " fill="#676362" transform="translate(727,166)"/>
<path d="M0 0 C0.17942163 3.94727588 0.09350689 6.5980513 -2 10 C-2.70769531 9.83886719 -3.41539063 9.67773438 -4.14453125 9.51171875 C-7.04579581 8.99179309 -9.74234913 8.83258971 -12.6875 8.8125 C-13.64011719 8.79832031 -14.59273437 8.78414062 -15.57421875 8.76953125 C-18.18212282 8.75741803 -18.18212282 8.75741803 -20 11 C-20.32907013 13.46547063 -20.32907013 13.46547063 -19 16 C-16.41133886 17.86677041 -13.57478964 19.15718494 -10.6875 20.5 C-4.56866942 23.38845547 -0.1564819 25.6870362 3 32 C3.57825746 36.73981526 3.47260429 40.11997823 1.1875 44.375 C-3.10246267 49.52295521 -6.37936946 51.61912563 -13 53 C-19.9612638 53.55488335 -26.423451 53.447088 -33 51 C-33.07442057 47.13013042 -33.04702186 43.7264085 -32 40 C-30.906875 40.33 -29.81375 40.66 -28.6875 41 C-23.57237561 42.26964695 -18.22994316 42.78575883 -13 42 C-11.14540011 40.73491276 -11.14540011 40.73491276 -10 39 C-9.52247323 36.45683262 -9.52247323 36.45683262 -11 34 C-13.08546665 32.81885075 -15.22087365 31.9751369 -17.44921875 31.09375 C-23.28722943 28.59046824 -30.00314712 24.73310986 -33 19 C-33.77963936 14.11699558 -33.53626421 10.23573927 -31.5625 5.6875 C-23.35975433 -2.91537961 -10.94502163 -5.20097402 0 0 Z " fill="#6A6766" transform="translate(1114,167)"/>
<path d="M0 0 C0.17942163 3.94727588 0.09350689 6.5980513 -2 10 C-2.70769531 9.83886719 -3.41539062 9.67773438 -4.14453125 9.51171875 C-7.04579581 8.99179309 -9.74234913 8.83258971 -12.6875 8.8125 C-13.64011719 8.79832031 -14.59273437 8.78414062 -15.57421875 8.76953125 C-18.18212282 8.75741803 -18.18212282 8.75741803 -20 11 C-20.32907013 13.46547063 -20.32907013 13.46547063 -19 16 C-16.41133886 17.86677041 -13.57478964 19.15718494 -10.6875 20.5 C-4.56866942 23.38845547 -0.1564819 25.6870362 3 32 C3.56735892 36.65048294 3.4598631 40.09730577 1.3125 44.3125 C-2.80999135 49.10350346 -6.6453668 52.10498124 -13 53 C-19.97716988 53.42285878 -26.40625181 53.4534877 -33 51 C-33.07442057 47.13013042 -33.04702186 43.7264085 -32 40 C-30.906875 40.33 -29.81375 40.66 -28.6875 41 C-23.57237561 42.26964695 -18.22994316 42.78575883 -13 42 C-11.14540011 40.73491276 -11.14540011 40.73491276 -10 39 C-9.52247323 36.45683262 -9.52247323 36.45683262 -11 34 C-13.08546665 32.81885075 -15.22087365 31.9751369 -17.44921875 31.09375 C-23.28722943 28.59046824 -30.00314712 24.73310986 -33 19 C-33.77963936 14.11699558 -33.53626421 10.23573927 -31.5625 5.6875 C-23.35975433 -2.91537961 -10.94502163 -5.20097402 0 0 Z " fill="#6A6766" transform="translate(1025,167)"/>
<path d="M0 0 C4.62 0 9.24 0 14 0 C15.12672175 2.39503687 16.25142558 4.7909871 17.375 7.1875 C17.69210937 7.86103516 18.00921875 8.53457031 18.3359375 9.22851562 C20.00011424 12.78222638 21.59091761 16.33496248 23 20 C25.03189929 17.96810071 25.65032968 16.74001881 26.69140625 14.12109375 C26.99626953 13.36505859 27.30113281 12.60902344 27.61523438 11.83007812 C27.92783203 11.04052734 28.24042969 10.25097656 28.5625 9.4375 C29.1865943 7.87281551 29.81278729 6.30896593 30.44140625 4.74609375 C30.71670166 4.05185303 30.99199707 3.3576123 31.27563477 2.64233398 C32 1 32 1 33 0 C35.18639453 -0.07258946 37.37500389 -0.08373783 39.5625 -0.0625 C41.35880859 -0.04896484 41.35880859 -0.04896484 43.19140625 -0.03515625 C44.11824219 -0.02355469 45.04507812 -0.01195312 46 0 C44.6384195 3.71385547 42.93334557 6.83775051 40.77734375 10.1484375 C31.67637777 24.73005005 27.86669577 35.7899658 29 53 C25.04 53 21.08 53 17 53 C17.09023437 51.64132813 17.18046875 50.28265625 17.2734375 48.8828125 C17.78006172 31.99283284 12.21664488 20.58790374 3.49633789 6.47583008 C2.22745901 4.37635207 1.09707443 2.19414886 0 0 Z " fill="#696564" transform="translate(1032,166)"/>
<path d="M0 0 C13.2 0 26.4 0 40 0 C40 3.3 40 6.6 40 10 C35.38 10 30.76 10 26 10 C26 24.19 26 38.38 26 53 C22.04 53 18.08 53 14 53 C14 38.81 14 24.62 14 10 C9.38 10 4.76 10 0 10 C0 6.7 0 3.4 0 0 Z " fill="#666362" transform="translate(1122,166)"/>
<path d="M0 0 C13.2 0 26.4 0 40 0 C40 3.3 40 6.6 40 10 C35.38 10 30.76 10 26 10 C26 24.19 26 38.38 26 53 C22.04 53 18.08 53 14 53 C14 38.81 14 24.62 14 10 C9.38 10 4.76 10 0 10 C0 6.7 0 3.4 0 0 Z " fill="#676362" transform="translate(931,166)"/>
<path d="M0 0 C9.06976744 -0.48372093 9.06976744 -0.48372093 13.125 1.625 C15 4 15 4 15.5 7.0625 C15 10 15 10 13.6875 11.8125 C10.6200074 13.97110591 7.93614574 14.1150166 4.3125 14.0625 C2.889375 14.041875 1.46625 14.02125 0 14 C0 9.38 0 4.76 0 0 Z " fill="#FDFCFD" transform="translate(397,175)"/>
<path d="M0 0 C0.66 0 1.32 0 2 0 C2.83661862 2.7907207 3.66942737 5.58248012 4.5 8.375 C4.73847656 9.1690625 4.97695313 9.963125 5.22265625 10.78125 C5.44824219 11.54179687 5.67382812 12.30234375 5.90625 13.0859375 C6.22045898 14.1385376 6.22045898 14.1385376 6.54101562 15.21240234 C7 17 7 17 7 19 C3.37 19 -0.26 19 -4 19 C-3.26309887 12.51527007 -1.64681249 6.30760257 0 0 Z " fill="#F8F7F7" transform="translate(534,177)"/>
<path d="M0 0 C0.66 0 1.32 0 2 0 C2.83661862 2.7907207 3.66942737 5.58248012 4.5 8.375 C4.73847656 9.1690625 4.97695313 9.963125 5.22265625 10.78125 C5.44824219 11.54179687 5.67382812 12.30234375 5.90625 13.0859375 C6.22045898 14.1385376 6.22045898 14.1385376 6.54101562 15.21240234 C7 17 7 17 7 19 C3.37 19 -0.26 19 -4 19 C-3.26309887 12.51527007 -1.64681249 6.30760257 0 0 Z " fill="#F8F8F8" transform="translate(641,177)"/>
</svg>
