<?xml version="1.0" encoding="UTF-8"?>
<svg version="1.1" xmlns="http://www.w3.org/2000/svg" width="1080" height="301">
<path d="M0 0 C356.4 0 712.8 0 1080 0 C1080 99.33 1080 198.66 1080 301 C723.6 301 367.2 301 0 301 C0 201.67 0 102.34 0 0 Z " fill="#FDFDFD" transform="translate(0,0)"/>
<path d="M0 0 C11.61809281 11.0760356 20.7429474 23.75001551 26 39 C26.3609375 40.04285156 26.721875 41.08570312 27.09375 42.16015625 C29.27156963 48.81028405 30.76853951 55.00586794 31 62 C31.03996094 63.15371094 31.07992187 64.30742188 31.12109375 65.49609375 C31.61806389 94.05726011 22.08107688 116.64415528 2.375 137.0625 C-7.51584789 146.95020095 -19.07579295 152.96566648 -32 158 C-32.81210938 158.34933594 -33.62421875 158.69867188 -34.4609375 159.05859375 C-56.68235694 167.29761234 -81.9327257 163.65470722 -103 154 C-124.11889145 143.56381629 -142.09869299 124.36273978 -150 102 C-157.43217053 76.95832925 -157.87161636 49.98846665 -145.19824219 26.47119141 C-132.60884851 4.25425658 -112.68665836 -12.8175962 -87.99951172 -19.85424805 C-56.49618201 -28.32369628 -25.1854603 -20.29160309 0 0 Z " fill="#283D84" transform="translate(179,23)"/>
<path d="M0 0 C1.12470703 -0.01611328 2.24941406 -0.03222656 3.40820312 -0.04882812 C19.48344319 -0.05816876 33.10338965 6.36511014 44.6796875 17.51953125 C57.26021378 31.53055351 60.1929408 46.27490028 59.6328125 64.47265625 C58.75052183 79.77473109 51.59183039 92.83735142 40.57421875 103.3125 C26.19494754 115.36190566 10.11792079 118.41719636 -8.12011719 117.55078125 C-23.67882656 116.17380443 -36.92866709 106.93033869 -46.8125 95.3125 C-57.64564859 79.99982161 -59.84847412 63.00968819 -57.3125 44.703125 C-53.83092387 29.43166608 -44.77595433 17.00454276 -31.8125 8.3125 C-20.92262045 2.05394854 -12.44888983 -0.03530598 0 0 Z " fill="#ABACAF" transform="translate(668.8125,115.6875)"/>
<path d="M0 0 C2.52340804 2.21418557 4.91250547 4.50080581 7.26953125 6.890625 C7.91792969 7.52871094 8.56632812 8.16679688 9.234375 8.82421875 C18.61598944 18.69852191 23.30867919 31.89989692 23.58203125 45.390625 C23.51259169 47.55868249 23.40927201 49.72596159 23.26953125 51.890625 C23.21152344 52.85613281 23.15351563 53.82164063 23.09375 54.81640625 C21.45780191 69.38225731 13.11293585 82.10420103 2.30859375 91.6171875 C-10.59358821 101.8862711 -25.17647559 106.39461414 -41.66015625 105.14501953 C-52.46661296 103.81715068 -62.06805073 99.38014692 -70.73046875 92.890625 C-71.37242188 92.43042969 -72.014375 91.97023438 -72.67578125 91.49609375 C-81.65425353 84.51060075 -87.10025442 74.47262628 -90.73046875 63.890625 C-91.09978516 62.83875 -91.09978516 62.83875 -91.4765625 61.765625 C-95.62720821 47.10955187 -92.71800049 31.51600168 -86.04296875 18.203125 C-78.00726824 4.3672196 -65.54883214 -5.02790606 -50.375 -9.859375 C-33.15922898 -14.01192278 -14.10346734 -10.8953825 0 0 Z " fill="#FDFDFE" transform="translate(151.73046875,46.109375)"/>
<path d="M0 0 C9.24 0 18.48 0 28 0 C31.92209524 8.43781463 35.74540101 16.90214876 39.44140625 25.44140625 C40.17664772 27.13571022 40.17664772 27.13571022 40.92674255 28.86424255 C41.95342969 31.2310408 42.9793879 33.59815537 44.00463867 35.96557617 C45.56051687 39.55792119 47.1189426 43.1491528 48.67773438 46.74023438 C49.68244208 49.05722645 50.68700428 51.37428162 51.69140625 53.69140625 C52.14987442 54.74799942 52.60834259 55.80459259 53.08070374 56.89320374 C55.7844411 63.13969055 58.42282442 69.40824428 60.995224 75.71006775 C61.79999858 77.92113168 61.79999858 77.92113168 63 79 C63.39566162 78.083396 63.79132324 77.16679199 64.19897461 76.22241211 C68.73031076 65.72687338 73.26878652 55.23443438 77.81182861 44.74395752 C78.60672804 42.90822045 79.40144521 41.07240446 80.19598389 39.23651123 C82.54332118 33.81272587 84.8937174 28.39028586 87.24856567 22.96975708 C87.99851569 21.24223682 88.74744044 19.51427109 89.49533081 17.78585815 C90.54360383 15.36384084 91.5955561 12.94345434 92.6484375 10.5234375 C92.95921738 9.80320908 93.26999725 9.08298065 93.5901947 8.34092712 C94.88831977 5.36654609 96.19406601 2.70890098 98 0 C106.91 0 115.82 0 125 0 C125 37.95 125 75.9 125 115 C116.75 115 108.5 115 100 115 C99.67 94.54 99.34 74.08 99 53 C96.03 59.93 93.06 66.86 90 74 C86.625 81.1875 86.625 81.1875 84.97265625 84.671875 C80.35118474 94.64413237 76.24353629 104.86308962 72 115 C66.06 115 60.12 115 54 115 C48.97664915 105.2643417 44.63162024 95.33780953 40.375 85.25 C39.38833176 82.91562824 38.40047691 80.58178514 37.40957642 78.24920654 C36.799248 76.81218106 36.19128572 75.37414713 35.58627319 73.93487549 C33.86616644 69.88110971 32.0036665 65.94966934 29.94863892 62.05413818 C28.73944048 59.43579665 27.87662385 56.74508808 27 54 C26.9845388 55.12419594 26.9845388 55.12419594 26.96876526 56.27110291 C26.87095475 63.31990454 26.76846424 70.36861874 26.66066074 77.41727352 C26.60539903 81.0414158 26.551974 84.6655661 26.50268555 88.28979492 C26.45508968 91.78467099 26.4027489 95.2794462 26.34705925 98.77420235 C26.31663587 100.76233823 26.29118018 102.75054809 26.26576233 104.73875427 C26.24581711 105.93992386 26.22587189 107.14109344 26.20532227 108.37866211 C26.18977798 109.44233505 26.1742337 110.506008 26.15821838 111.60191345 C26 114 26 114 25 115 C16.75 115 8.5 115 0 115 C0 77.05 0 39.1 0 0 Z " fill="#283D84" transform="translate(471,117)"/>
<path d="M0 0 C2.46044073 2.17683153 4.86197237 4.40191452 7.24609375 6.66259766 C9.20362094 8.63473464 9.20362094 8.63473464 11.35546875 9.59619141 C11.79159323 13.02376127 11.58623692 14.28689461 9.484375 17.10400391 C8.63746094 17.96767578 7.79054687 18.83134766 6.91796875 19.72119141 C2.37116988 24.4547568 -1.6114745 29.30794454 -5.5390625 34.57666016 C-7.64453125 36.59619141 -7.64453125 36.59619141 -10.09375 37.17431641 C-13.61511861 36.37621142 -15.1028216 34.70427561 -17.64453125 32.15869141 C-38.78660069 11.90898204 -63.42426136 4.89679478 -92.15917969 5.50732422 C-96.8459455 5.67490602 -101.14035112 6.31506233 -105.64453125 7.59619141 C-106.77375 7.90298828 -107.90296875 8.20978516 -109.06640625 8.52587891 C-132.1775328 15.47839623 -151.86645328 30.33021729 -163.64453125 51.59619141 C-167.76084179 59.64089397 -171.28749769 67.88275092 -174.30859375 76.40087891 C-175.64453125 78.59619141 -175.64453125 78.59619141 -177.84423828 79.36181641 C-181.36437894 79.65644021 -183.50581854 78.83813744 -186.78515625 77.54150391 C-187.93757813 77.09162109 -189.09 76.64173828 -190.27734375 76.17822266 C-192.06785156 75.45699219 -192.06785156 75.45699219 -193.89453125 74.72119141 C-195.70824219 74.0115625 -195.70824219 74.0115625 -197.55859375 73.28759766 C-206.46607578 69.77464688 -206.46607578 69.77464688 -207.64453125 68.59619141 C-207.25412458 62.3496847 -205.63221094 57.30447498 -203.14453125 51.59619141 C-202.7892334 50.7716748 -202.43393555 49.9471582 -202.06787109 49.09765625 C-187.29375411 15.54474019 -162.4962209 -9.05517719 -128.48828125 -23.05615234 C-84.99732841 -39.06259243 -35.18204249 -30.03217701 0 0 Z " fill="#283D84" transform="translate(208.64453125,221.40380859375)"/>
<path d="M0 0 C7.04338539 -0.07663409 14.08666159 -0.12884295 21.13037109 -0.16479492 C23.52201353 -0.17979713 25.91362885 -0.20020547 28.30517578 -0.22631836 C31.76081064 -0.26308043 35.21607892 -0.27981264 38.671875 -0.29296875 C39.72550232 -0.30845261 40.77912964 -0.32393646 41.86468506 -0.33988953 C54.60957802 -0.34272038 66.36434286 2.36796348 75.75 11.25 C83.34780506 19.21459564 85.39747724 26.93928117 85.27734375 37.8046875 C84.54661817 46.22346948 80.94922369 54.00025212 75 60 C70.20479436 63.96393403 66.1706336 66.90638058 60 68 C63.54374964 74.5302001 67.32225679 80.88187035 71.25 87.1875 C71.81485107 88.09935059 72.37970215 89.01120117 72.96166992 89.95068359 C75.55024648 94.11780371 78.15768309 98.26857323 80.84765625 102.37109375 C81.26821289 103.01344971 81.68876953 103.65580566 82.12207031 104.31762695 C83.23717181 106.01063278 84.36236932 107.69697668 85.48828125 109.3828125 C87 112 87 112 87 115 C82.94343719 115.1238616 78.88761022 115.21445733 74.82958984 115.2746582 C73.45016298 115.2997593 72.07086858 115.33384873 70.69189453 115.37719727 C68.70664128 115.43802875 66.72040641 115.46357937 64.734375 115.48828125 C62.94338379 115.52755737 62.94338379 115.52755737 61.11621094 115.56762695 C58 115 58 115 55.66796875 112.62182617 C54.07728526 110.1214822 52.6135463 107.63084227 51.25 105 C48.42018129 99.69497645 45.34337995 94.59232206 42.1484375 89.5 C40.587213 86.99279765 39.11068732 84.44996826 37.6640625 81.875 C37.07588745 80.84487793 37.07588745 80.84487793 36.47583008 79.79394531 C35.71492542 78.4570526 34.96676584 77.11280436 34.2331543 75.76074219 C33.08426962 73.67907506 33.08426962 73.67907506 31 71 C28.42895835 70.27811024 28.42895835 70.27811024 26 70 C26.00222061 70.54901474 26.00444122 71.09802948 26.00672913 71.66368103 C26.02878358 77.35707959 26.04390726 83.0504661 26.05493164 88.74389648 C26.05997298 90.87118014 26.06680591 92.99846031 26.07543945 95.12573242 C26.08751379 98.17627826 26.09323014 101.22677845 26.09765625 104.27734375 C26.10281754 105.23462875 26.10797882 106.19191376 26.11329651 107.1782074 C26.11340981 108.49946373 26.11340981 108.49946373 26.11352539 109.84741211 C26.115746 110.62684677 26.11796661 111.40628143 26.12025452 112.20933533 C26 114 26 114 25 115 C23.23140807 115.09946453 21.45888549 115.13080217 19.6875 115.1328125 C18.61242187 115.13410156 17.53734375 115.13539063 16.4296875 115.13671875 C15.29789062 115.13285156 14.16609375 115.12898438 13 115.125 C11.86820312 115.12886719 10.73640625 115.13273437 9.5703125 115.13671875 C8.49523437 115.13542969 7.42015625 115.13414062 6.3125 115.1328125 C5.31863281 115.13168457 4.32476562 115.13055664 3.30078125 115.12939453 C1 115 1 115 0 114 C-0.09568576 112.51983606 -0.12188268 111.03511727 -0.12025452 109.55186462 C-0.12162918 108.5912764 -0.12300385 107.63068817 -0.12442017 106.64099121 C-0.12082489 105.57860229 -0.11722961 104.51621338 -0.11352539 103.42163086 C-0.11367142 102.30957779 -0.11381744 101.19752472 -0.1139679 100.05177307 C-0.11326821 96.35611049 -0.1054732 92.66049759 -0.09765625 88.96484375 C-0.09579227 86.41036507 -0.09436827 83.85588603 -0.09336853 81.30140686 C-0.08993344 75.2523829 -0.08204264 69.20338045 -0.07201904 63.15436512 C-0.06085683 56.26934846 -0.05534718 49.38433096 -0.05032361 42.49930751 C-0.03986 28.3328617 -0.02226123 14.16643183 0 0 Z " fill="#283D84" transform="translate(367,117)"/>
<path d="M0 0 C8.25 0 16.5 0 25 0 C26 1 26 1 26.12025452 2.86659241 C26.1169236 4.08903908 26.1169236 4.08903908 26.11352539 5.33618164 C26.11344986 6.2570607 26.11337433 7.17793976 26.11329651 8.12672424 C26.10813522 9.12775681 26.10297394 10.12878937 26.09765625 11.16015625 C26.0962413 12.17975937 26.09482635 13.19936249 26.09336853 14.24986267 C26.08775097 17.52077107 26.0751955 20.79161213 26.0625 24.0625 C26.05748726 26.27408756 26.05292396 28.48567618 26.04882812 30.69726562 C26.0386248 36.13155752 26.01905285 41.56570298 26 47 C40.85 47 55.7 47 71 47 C71 31.49 71 15.98 71 0 C77.1565625 -0.0309375 77.1565625 -0.0309375 83.4375 -0.0625 C85.38160767 -0.07615601 85.38160767 -0.07615601 87.36499023 -0.09008789 C88.37762939 -0.09258545 89.39026855 -0.09508301 90.43359375 -0.09765625 C91.47572021 -0.10289307 92.51784668 -0.10812988 93.59155273 -0.11352539 C96 0 96 0 97 1 C97.09781225 2.46516304 97.12631748 3.93501822 97.12698364 5.40344238 C97.13121338 6.82953575 97.13121338 6.82953575 97.13552856 8.28443909 C97.13249222 9.86163979 97.13249222 9.86163979 97.12939453 11.47070312 C97.13202301 13.12174294 97.13202301 13.12174294 97.13470459 14.80613708 C97.13912568 18.46452384 97.13618421 22.12286271 97.1328125 25.78125 C97.13348547 28.31091318 97.13445543 30.8405763 97.13571167 33.37023926 C97.13718899 38.67993849 97.13512758 43.98962037 97.13037109 49.29931641 C97.12492851 55.44605958 97.12669118 61.59276959 97.1321975 67.73951197 C97.1372744 73.64217564 97.13674706 79.54482896 97.13381577 85.44749451 C97.13314624 87.96422836 97.1339758 90.48096305 97.13629532 92.99769592 C97.13882033 96.50825275 97.13498338 100.0187449 97.12939453 103.52929688 C97.13141876 104.58076401 97.13344299 105.63223114 97.13552856 106.71556091 C97.13270874 107.66628983 97.12988892 108.61701874 97.12698364 109.59655762 C97.1264181 110.84317799 97.1264181 110.84317799 97.12584114 112.1149826 C97 114 97 114 96 115 C94.14630389 115.08737645 92.28932459 115.10698153 90.43359375 115.09765625 C89.42095459 115.09515869 88.40831543 115.09266113 87.36499023 115.09008789 C86.06891846 115.08098389 84.77284668 115.07187988 83.4375 115.0625 C79.333125 115.041875 75.22875 115.02125 71 115 C71 99.16 71 83.32 71 67 C56.15 67 41.3 67 26 67 C26.01160156 70.38121094 26.02320313 73.76242188 26.03515625 77.24609375 C26.04294575 80.5059398 26.04902312 83.76578483 26.05493164 87.02563477 C26.05997325 89.29842591 26.06680637 91.5712138 26.07543945 93.84399414 C26.08751261 97.10303551 26.09322987 100.36203417 26.09765625 103.62109375 C26.10281754 104.64400009 26.10797882 105.66690643 26.11329651 106.72080994 C26.11340981 108.13215965 26.11340981 108.13215965 26.11352539 109.57202148 C26.115746 110.40475082 26.11796661 111.23748016 26.12025452 112.09544373 C26 114 26 114 25 115 C16.75 115 8.5 115 0 115 C0 77.05 0 39.1 0 0 Z " fill="#283D85" transform="translate(250,117)"/>
<path d="M0 0 C1 1 1 1 1.11352539 3.04125977 C1.10828857 3.91580811 1.10305176 4.79035645 1.09765625 5.69140625 C1.09443359 6.63564453 1.09121094 7.57988281 1.08789062 8.55273438 C1.07532227 10.04256836 1.07532227 10.04256836 1.0625 11.5625 C1.05798828 12.55958984 1.05347656 13.55667969 1.04882812 14.58398438 C1.03700007 17.05604849 1.02051849 19.52799518 1 22 C0.30132813 22.10957031 -0.39734375 22.21914062 -1.1171875 22.33203125 C-2.02726563 22.49058594 -2.93734375 22.64914063 -3.875 22.8125 C-4.77992188 22.96332031 -5.68484375 23.11414063 -6.6171875 23.26953125 C-9.34412478 23.83051301 -9.34412478 23.83051301 -11 27 C-11.33 29.97 -11.66 32.94 -12 36 C5.16 36 22.32 36 40 36 C40 66.36 40 96.72 40 128 C31.75 128 23.5 128 15 128 C15 104.57 15 81.14 15 57 C6.09 57 -2.82 57 -12 57 C-12 80.43 -12 103.86 -12 128 C-20.25 128 -28.5 128 -37 128 C-37 104.9 -37 81.8 -37 58 C-40.3 58 -43.6 58 -47 58 C-47 50.74 -47 43.48 -47 36 C-43.7 36 -40.4 36 -37 36 C-37.05800781 35.03320312 -37.11601563 34.06640625 -37.17578125 33.0703125 C-37.50299521 23.62785242 -36.7359779 16.67087224 -30.49609375 9.19921875 C-22.55917933 1.49180547 -10.64201464 -0.42568059 0 0 Z " fill="#AAABAF" transform="translate(835,104)"/>
<path d="M0 0 C6.91506174 4.99092213 13.46109178 11.13058566 17 19 C17.31453125 19.66386719 17.6290625 20.32773438 17.953125 21.01171875 C21.22179793 29.52512598 20.80948251 40.00370571 20 49 C19 50 19 50 16.45005798 50.12025452 C14.74795921 50.1169236 14.74795921 50.1169236 13.01147461 50.11352539 C11.73022202 50.11344986 10.44896942 50.11337433 9.12889099 50.11329651 C7.72004152 50.10818909 6.31119244 50.10297309 4.90234375 50.09765625 C3.46887766 50.09579202 2.03541093 50.09436814 0.60194397 50.09336853 C-3.17759957 50.08954372 -6.9571049 50.07971377 -10.7366333 50.06866455 C-14.59069298 50.05844963 -18.44475882 50.05387074 -22.29882812 50.04882812 C-29.86590287 50.03809146 -37.43294609 50.02101549 -45 50 C-44.2368139 51.60781893 -43.46412942 53.21113138 -42.6875 54.8125 C-42.25824219 55.70582031 -41.82898438 56.59914062 -41.38671875 57.51953125 C-39.49716287 60.89944106 -37.94733883 62.56098932 -34.4375 64.1875 C-28.48107865 65.59538141 -21.41112745 66.30680011 -16 63 C-15.24976563 61.989375 -14.49953125 60.97875 -13.7265625 59.9375 C-10.5507026 56.71413792 -7.95440265 56.53716231 -3.5078125 56.4140625 C-1.04619091 56.45376607 1.41508731 56.52506605 3.875 56.625 C5.13570312 56.65207031 6.39640625 56.67914063 7.6953125 56.70703125 C10.79863083 56.77756121 13.89843004 56.87608971 17 57 C16.06657095 63.32705625 13.71497684 66.90138383 10 72 C9.401875 72.886875 8.80375 73.77375 8.1875 74.6875 C1.40282047 81.85987551 -9.18361646 87.34600369 -19.11547852 88.17700195 C-34.20853357 88.58562635 -46.26213471 87.57185218 -58 77 C-70.01350936 62.94337681 -72.06132795 49.67573392 -71.24267578 31.75634766 C-70.29357251 20.97629139 -65.38616774 11.73066639 -57.3359375 4.66015625 C-41.00031679 -8.36190832 -18.33819077 -11.16144555 0 0 Z " fill="#ABACB0" transform="translate(1057,145)"/>
<path d="M0 0 C9.11359914 5.39941944 15.56473246 12.34983604 19.5234375 22.15234375 C20.2109375 24.90234375 20.2109375 24.90234375 20.2109375 28.90234375 C15.7947676 29.07645478 11.37947747 29.18314137 6.9609375 29.27734375 C5.70667969 29.32761719 4.45242188 29.37789062 3.16015625 29.4296875 C-0.25541157 29.48448271 -3.42090115 29.47845007 -6.7890625 28.90234375 C-9.51953125 25.9921875 -9.51953125 25.9921875 -10.7890625 22.90234375 C-15.49176169 18.7696687 -19.94238897 18.53673457 -26 18.640625 C-31.19208211 19.12783719 -33.99057231 20.76520655 -37.32421875 24.7265625 C-42.35328646 32.75345887 -41.86225334 42.78233419 -40.7890625 51.90234375 C-39.36238719 57.82911726 -36.58785329 62.06331112 -31.7890625 65.90234375 C-26.47043822 67.66772221 -20.39585028 67.48162992 -14.9765625 66.27734375 C-11.3382979 63.99043457 -8.71757431 60.75936738 -6.7890625 56.90234375 C2.1209375 56.90234375 11.0309375 56.90234375 20.2109375 56.90234375 C18.50678859 67.1272372 14.06301205 75.18158009 5.7109375 81.40234375 C-7.25236328 89.96336753 -20.53798039 92.48289734 -35.92529297 89.48632812 C-47.50339425 86.38926824 -55.06665158 79.45713046 -61.7890625 69.90234375 C-62.6553125 68.72671875 -62.6553125 68.72671875 -63.5390625 67.52734375 C-67.46078798 59.29172024 -68.2899577 50.8477251 -68.2265625 41.83984375 C-68.24654297 40.82857422 -68.26652344 39.81730469 -68.28710938 38.77539062 C-68.27909026 26.32170355 -63.00638797 16.18196388 -54.6015625 7.21484375 C-50.1523919 2.91397883 -45.52176053 0.17172659 -39.7890625 -2.09765625 C-38.91507813 -2.45988281 -38.04109375 -2.82210937 -37.140625 -3.1953125 C-25.10326991 -6.43613887 -11.22477938 -5.26548701 0 0 Z " fill="#ABACAF" transform="translate(957.7890625,143.09765625)"/>
<path d="M0 0 C2.3925 0.020625 4.785 0.04125 7.25 0.0625 C7.25 6.9925 7.25 13.9225 7.25 21.0625 C3.95 21.7225 0.65 22.3825 -2.75 23.0625 C-4.77350324 26.09775486 -5.07124018 27.25676202 -5.375 30.75 C-5.560625 32.8846875 -5.560625 32.8846875 -5.75 35.0625 C-1.13 35.0625 3.49 35.0625 8.25 35.0625 C8.27683201 38.54171735 8.2967567 42.02073039 8.3125 45.5 C8.32087891 46.49322266 8.32925781 47.48644531 8.33789062 48.50976562 C8.34111328 49.45400391 8.34433594 50.39824219 8.34765625 51.37109375 C8.35289307 52.24564209 8.35812988 53.12019043 8.36352539 54.02124023 C8.25 56.0625 8.25 56.0625 7.25 57.0625 C2.96 57.0625 -1.33 57.0625 -5.75 57.0625 C-5.75 80.1625 -5.75 103.2625 -5.75 127.0625 C-14 127.0625 -22.25 127.0625 -30.75 127.0625 C-31.75 126.0625 -31.75 126.0625 -31.87025452 123.32273865 C-31.86803391 122.09918167 -31.86581329 120.87562469 -31.86352539 119.61499023 C-31.86367142 118.94184784 -31.86381744 118.26870544 -31.8639679 117.57516479 C-31.86326878 115.34044216 -31.85547652 113.1058019 -31.84765625 110.87109375 C-31.84579206 109.32552638 -31.84436816 107.77995843 -31.84336853 106.23439026 C-31.8395434 102.15892923 -31.82971317 98.08350363 -31.81866455 94.00805664 C-31.80845032 89.85238118 -31.80387089 85.69670001 -31.79882812 81.54101562 C-31.78809089 73.38149413 -31.77101454 65.22200147 -31.75 57.0625 C-34.72 57.0625 -37.69 57.0625 -40.75 57.0625 C-40.75 49.8025 -40.75 42.5425 -40.75 35.0625 C-37.78 35.0625 -34.81 35.0625 -31.75 35.0625 C-31.811875 33.61875 -31.87375 32.175 -31.9375 30.6875 C-31.92609456 22.63526207 -29.88635391 15.37287766 -24.75 9.0625 C-17.39268334 2.03217519 -9.98104496 -0.12169379 0 0 Z " fill="#ACACB0" transform="translate(775.75,104.9375)"/>
<path d="M0 0 C7.12556252 4.42235411 13.91672772 10.17046985 16.34765625 18.45703125 C18.65166297 31.56106946 19.25756506 44.15448383 11.34765625 55.45703125 C8.78515625 58.45703125 8.78515625 58.45703125 6.34765625 60.45703125 C5.20296875 61.50890625 5.20296875 61.50890625 4.03515625 62.58203125 C-4.51696536 68.54862772 -14.61796069 68.80846331 -24.65234375 67.45703125 C-33.34621493 64.95955357 -39.07245472 60.17971803 -43.65234375 52.45703125 C-48.9496966 42.23648802 -49.37469924 29.85620863 -46.78125 18.71484375 C-42.98633989 8.93517375 -37.23950836 3.78827925 -27.88671875 -0.59765625 C-19.44026478 -4.17115601 -8.31549125 -3.92868785 0 0 Z " fill="#FDFEFE" transform="translate(684.65234375,141.54296875)"/>
<path d="M0 0 C1.27133789 0.00966797 1.27133789 0.00966797 2.56835938 0.01953125 C3.8899707 0.04466797 3.8899707 0.04466797 5.23828125 0.0703125 C6.57729492 0.08384766 6.57729492 0.08384766 7.94335938 0.09765625 C10.14610439 0.12121502 12.34830713 0.15410921 14.55078125 0.1953125 C17.25949256 8.65571294 19.86494789 17.1340714 22.23828125 25.6953125 C22.44026123 26.42347168 22.64224121 27.15163086 22.8503418 27.90185547 C23.42604964 29.99738413 23.98975859 32.09581023 24.55078125 34.1953125 C24.74494629 34.89914062 24.93911133 35.60296875 25.13916016 36.328125 C27.1179215 43.74978301 27.1179215 43.74978301 26.55078125 47.1953125 C24.96875 48.93359375 24.96875 48.93359375 22.73828125 50.5078125 C21.92230469 51.09304688 21.10632813 51.67828125 20.265625 52.28125 C19.36972656 52.91289062 18.47382813 53.54453125 17.55078125 54.1953125 C16.60332031 54.93007813 15.65585938 55.66484375 14.6796875 56.421875 C13.72964844 57.15148437 12.77960938 57.88109375 11.80078125 58.6328125 C10.9190625 59.31214844 10.03734375 59.99148438 9.12890625 60.69140625 C6.17122172 62.41672222 4.91487991 62.5425743 1.55078125 62.1953125 C-0.63745117 61.01782227 -0.63745117 61.01782227 -2.8046875 59.38671875 C-3.59166016 58.80470703 -4.37863281 58.22269531 -5.18945312 57.62304688 C-5.99705078 57.00751953 -6.80464844 56.39199219 -7.63671875 55.7578125 C-9.25452594 54.54986677 -10.872984 53.34279214 -12.4921875 52.13671875 C-13.5598938 51.32763062 -13.5598938 51.32763062 -14.64916992 50.50219727 C-16.41919583 49.14215937 -16.41919583 49.14215937 -18.44921875 48.1953125 C-18.94982846 41.42745429 -17.10373292 35.5858738 -15.19921875 29.1328125 C-14.55336515 26.90104753 -13.90753169 24.66927673 -13.26171875 22.4375 C-12.79185547 20.8302002 -12.79185547 20.8302002 -12.3125 19.19042969 C-11.57705809 16.63884561 -10.87423821 14.08368373 -10.19921875 11.515625 C-9.86921875 10.27554688 -9.53921875 9.03546875 -9.19921875 7.7578125 C-8.9259375 6.70722656 -8.65265625 5.65664062 -8.37109375 4.57421875 C-6.74004766 0.36529049 -4.10625358 -0.0551175 0 0 Z " fill="#2DBEC4" transform="translate(118.44921875,231.8046875)"/>
<path d="M0 0 C3.135 -0.061875 6.27 -0.12375 9.5 -0.1875 C10.95696289 -0.22846802 10.95696289 -0.22846802 12.44335938 -0.27026367 C18.3407346 -0.32604641 22.64738844 0.4761988 28 3 C32.54620983 7.7793488 33.350054 11.03215439 33.28515625 17.45703125 C32.76628944 22.08418596 30.34211521 24.78370809 27 27.8125 C23.43049616 29.93189291 20.11078851 30.12262676 16.015625 30.09765625 C15.17290039 30.09515869 14.33017578 30.09266113 13.46191406 30.09008789 C12.40198242 30.08098389 11.34205078 30.07187988 10.25 30.0625 C6.8675 30.041875 3.485 30.02125 0 30 C0 20.1 0 10.2 0 0 Z " fill="#FBFCFD" transform="translate(393,137)"/>
<path d="M0 0 C4.29775322 1.75817177 7.92582211 4.79213911 10 9 C10.91558274 14.23302892 10.7863274 19.22470203 8.3125 24 C5.38682099 27.79547548 3.54196696 29.65415415 -1.296875 30.3125 C-6.25335651 30.55281426 -10.34299973 30.193986 -14.52734375 27.39453125 C-18.3606165 23.76461514 -19.81691743 19.5169699 -20.4375 14.375 C-19.9600352 10.69170011 -18.8670291 8.18950805 -17 5 C-16.34 5 -15.68 5 -15 5 C-15 4.34 -15 3.68 -15 3 C-9.95509128 -0.10455921 -5.77713831 -0.77171421 0 0 Z " fill="#ABACB0" transform="translate(867,104)"/>
<path d="M0 0 C3.71925002 2.50833141 6.1058023 4.91252075 8 9 C8 10.65 8 12.3 8 14 C-4.54 14 -17.08 14 -30 14 C-28.76208537 7.81042687 -26.99425712 4.50586762 -21.9375 0.6875 C-15.23294931 -3.16405039 -7.03044167 -3.26997287 0 0 Z " fill="#FCFCFC" transform="translate(1042,163)"/>
<path d="M0 0 C3.8243472 1.69970987 5.48407465 3.14006672 7 7 C7.63672964 12.31595211 8.15414912 18.04205116 5.125 22.6875 C2.33569307 25.72292225 0.69540419 26.21521288 -3.3125 26.4375 C-6.97373254 26.34892179 -7.91238221 26.06079602 -11.0625 23.875 C-14.52022634 18.8685004 -13.97343429 11.73990564 -13 6 C-9.2181887 0.3156824 -6.76011666 -0.45831299 0 0 Z " fill="#F5F5F5" transform="translate(891,263)"/>
<path d="M0 0 C9.24 0 18.48 0 28 0 C28.99 2.64 29.98 5.28 31 8 C29.68 8 28.36 8 27 8 C26.34 6.35 25.68 4.7 25 3 C13.615 2.505 13.615 2.505 2 2 C2.33 38.96 2.66 75.92 3 114 C9.93 114 16.86 114 24 114 C24 93.87 24 73.74 24 53 C24.33 53 24.66 53 25 53 C25 73.46 25 93.92 25 115 C16.75 115 8.5 115 0 115 C0 77.05 0 39.1 0 0 Z " fill="#3B4980" transform="translate(471,117)"/>
<path d="M0 0 C15.18 0 30.36 0 46 0 C46 0.66 46 1.32 46 2 C31.48 2 16.96 2 2 2 C2 38.96 2 75.92 2 114 C9.26 114 16.52 114 24 114 C24 99.81 24 85.62 24 71 C24.33 71 24.66 71 25 71 C25 85.52 25 100.04 25 115 C21.060625 115.020625 17.12125 115.04125 13.0625 115.0625 C11.19670288 115.07615601 11.19670288 115.07615601 9.29321289 115.09008789 C8.3211792 115.09258545 7.34914551 115.09508301 6.34765625 115.09765625 C4.84730835 115.10551147 4.84730835 115.10551147 3.31665039 115.11352539 C1 115 1 115 0 114 C-0.09568576 112.51983606 -0.12188268 111.03511727 -0.12025452 109.55186462 C-0.12162918 108.5912764 -0.12300385 107.63068817 -0.12442017 106.64099121 C-0.12082489 105.57860229 -0.11722961 104.51621338 -0.11352539 103.42163086 C-0.11367142 102.30957779 -0.11381744 101.19752472 -0.1139679 100.05177307 C-0.11326821 96.35611049 -0.1054732 92.66049759 -0.09765625 88.96484375 C-0.09579227 86.41036507 -0.09436827 83.85588603 -0.09336853 81.30140686 C-0.08993344 75.2523829 -0.08204264 69.20338045 -0.07201904 63.15436512 C-0.06085683 56.26934846 -0.05534718 49.38433096 -0.05032361 42.49930751 C-0.03986 28.33285987 -0.02151495 14.16643494 0 0 Z " fill="#424F83" transform="translate(367,117)"/>
<path d="M0 0 C6.1565625 -0.0309375 6.1565625 -0.0309375 12.4375 -0.0625 C14.38160767 -0.07615601 14.38160767 -0.07615601 16.36499023 -0.09008789 C17.88394897 -0.09383423 17.88394897 -0.09383423 19.43359375 -0.09765625 C20.47572021 -0.10289307 21.51784668 -0.10812988 22.59155273 -0.11352539 C25 0 25 0 26 1 C26.09781225 2.46516304 26.12631748 3.93501822 26.12698364 5.40344238 C26.12980347 6.3541713 26.13262329 7.30490021 26.13552856 8.28443909 C26.13350433 9.33590622 26.1314801 10.38737335 26.12939453 11.47070312 C26.13114685 12.57139633 26.13289917 13.67208954 26.13470459 14.80613708 C26.13912568 18.46452384 26.13618421 22.12286271 26.1328125 25.78125 C26.13348547 28.31091318 26.13445543 30.8405763 26.13571167 33.37023926 C26.13718899 38.67993849 26.13512758 43.98962037 26.13037109 49.29931641 C26.12492851 55.44605958 26.12669118 61.59276959 26.1321975 67.73951197 C26.1372744 73.64217564 26.13674706 79.54482896 26.13381577 85.44749451 C26.13314624 87.96422836 26.1339758 90.48096305 26.13629532 92.99769592 C26.13882033 96.50825275 26.13498338 100.0187449 26.12939453 103.52929688 C26.13141876 104.58076401 26.13344299 105.63223114 26.13552856 106.71556091 C26.13129883 108.14165428 26.13129883 108.14165428 26.12698364 109.59655762 C26.12660662 110.42763786 26.12622959 111.25871811 26.12584114 112.1149826 C26 114 26 114 25 115 C23.14630389 115.08737645 21.28932459 115.10698153 19.43359375 115.09765625 C18.42095459 115.09515869 17.40831543 115.09266113 16.36499023 115.09008789 C15.06891846 115.08098389 13.77284668 115.07187988 12.4375 115.0625 C8.333125 115.041875 4.22875 115.02125 0 115 C0 99.16 0 83.32 0 67 C0.33 67 0.66 67 1 67 C1 82.51 1 98.02 1 114 C11.89 113.505 11.89 113.505 23 113 C23.33 76.04 23.66 39.08 24 1 C13.11 1.495 13.11 1.495 2 2 C1.67 16.85 1.34 31.7 1 47 C0.67 47 0.34 47 0 47 C0 31.49 0 15.98 0 0 Z " fill="#4C5A8A" transform="translate(321,117)"/>
<path d="M0 0 C1.7325 0.12375 1.7325 0.12375 3.5 0.25 C4.49 0.25 5.48 0.25 6.5 0.25 C7.49 0.25 8.48 0.25 9.5 0.25 C9.64567407 3.81206722 9.73419196 7.37336551 9.8125 10.9375 C9.85439453 11.94490234 9.89628906 12.95230469 9.93945312 13.99023438 C10.06260078 21.45298223 10.06260078 21.45298223 7.25 25.4375 C3.23305238 28.08503366 1.19265498 27.64768263 -3.5 27.25 C-3.83 25.93 -4.16 24.61 -4.5 23.25 C-1.86 23.25 0.78 23.25 3.5 23.25 C3.83 21.93 4.16 20.61 4.5 19.25 C2.6128125 19.37375 2.6128125 19.37375 0.6875 19.5 C-1.45703125 19.640625 -1.45703125 19.640625 -3.5 19.25 C-5.75448815 17.08163836 -6.43347402 15.6935065 -6.8984375 12.59375 C-6.89070312 11.6553125 -6.88296875 10.716875 -6.875 9.75 C-6.88273438 8.8115625 -6.89046875 7.873125 -6.8984375 6.90625 C-6.18684914 2.16232762 -4.82247712 0.34446265 0 0 Z " fill="#404040" transform="translate(823.5,269.75)"/>
<path d="M0 0 C0.11622939 3.74973906 0.1872595 7.49901464 0.25 11.25 C0.30027344 12.84521484 0.30027344 12.84521484 0.3515625 14.47265625 C0.36445312 15.49746094 0.37734375 16.52226562 0.390625 17.578125 C0.41157227 18.52075195 0.43251953 19.46337891 0.45410156 20.43457031 C-0.13405217 23.75732271 -1.4009479 24.92316485 -4 27 C-6.78142043 27.50755847 -9.1457229 27.19028514 -12 27 C-12.33 25.68 -12.66 24.36 -13 23 C-10.36 23 -7.72 23 -5 23 C-4.34 21.35 -3.68 19.7 -3 18 C-3.556875 18.350625 -4.11375 18.70125 -4.6875 19.0625 C-7.67837962 20.27501877 -8.98508014 20.13059495 -12 19 C-14.5198672 16.82065539 -15.79233335 15.15789892 -16.38671875 11.84375 C-16.56785291 8.09614662 -16.17464591 5.42788247 -14.75 1.9375 C-10.25547631 -1.22909624 -5.32279191 -0.37661264 0 0 Z " fill="#282627" transform="translate(1071,270)"/>
<path d="M0 0 C0.11622939 3.74973906 0.1872595 7.49901464 0.25 11.25 C0.30027344 12.84521484 0.30027344 12.84521484 0.3515625 14.47265625 C0.36445313 15.49746094 0.37734375 16.52226562 0.390625 17.578125 C0.41157227 18.52075195 0.43251953 19.46337891 0.45410156 20.43457031 C-0.13405217 23.75732271 -1.4009479 24.92316485 -4 27 C-6.78142043 27.50755847 -9.1457229 27.19028514 -12 27 C-12.33 25.68 -12.66 24.36 -13 23 C-10.36 23 -7.72 23 -5 23 C-4.34 21.35 -3.68 19.7 -3 18 C-3.66 18.33 -4.32 18.66 -5 19 C-11.34117647 19.46117647 -11.34117647 19.46117647 -13.875 17.6875 C-16.46848906 13.79726641 -16.57051064 9.51142256 -16 5 C-13.07877613 -2.01093728 -6.50406539 -0.46019331 0 0 Z " fill="#383838" transform="translate(436,270)"/>
<path d="M0 0 C1.875 1.1875 1.875 1.1875 3 3 C3.4375 5.4375 3.4375 5.4375 3 8 C1 10.3125 1 10.3125 -1 12 C0.15173355 14.46800047 1.04783565 16.04783565 3 18 C3.66 16.68 4.32 15.36 5 14 C5.99 14 6.98 14 8 14 C7.91621094 14.61488281 7.83242188 15.22976563 7.74609375 15.86328125 C7.64425781 16.67152344 7.54242187 17.47976563 7.4375 18.3125 C7.33308594 19.11300781 7.22867188 19.91351563 7.12109375 20.73828125 C6.85244822 23.16817116 6.85244822 23.16817116 8 26 C5.39521117 26.0809313 2.79293347 26.14045434 0.1875 26.1875 C-0.91948242 26.22520508 -0.91948242 26.22520508 -2.04882812 26.26367188 C-7.46058459 26.33713463 -7.46058459 26.33713463 -10 24.75 C-11.81491948 21.57389092 -11.17630538 18.58487612 -11 15 C-9.68 14.34 -8.36 13.68 -7 13 C-7.33 12.484375 -7.66 11.96875 -8 11.4375 C-9.35374004 8.13775866 -9.32683936 5.52986508 -9 2 C-5.53076119 -0.31282587 -4.07794425 -0.42478586 0 0 Z " fill="#2F2D2E" transform="translate(857,263)"/>
<path d="M0 0 C12 0 12 0 15.25 1.5625 C17.63695724 4.88719044 17.50969658 6.99524119 17 11 C16.01 12.485 16.01 12.485 15 14 C15.49113281 14.39832031 15.98226563 14.79664063 16.48828125 15.20703125 C18.43183425 17.5121755 18.316536 18.7196719 18.1875 21.6875 C18.16042969 22.49574219 18.13335937 23.30398438 18.10546875 24.13671875 C18.07066406 24.75160156 18.03585937 25.36648438 18 26 C16.68 26 15.36 26 14 26 C13.93941406 25.36191406 13.87882812 24.72382813 13.81640625 24.06640625 C13.73261719 23.24011719 13.64882813 22.41382813 13.5625 21.5625 C13.48128906 20.73878906 13.40007812 19.91507812 13.31640625 19.06640625 C13.21069185 17.01337975 13.21069185 17.01337975 12 16 C9.01110641 15.54234333 6.01030352 15.29679049 3 15 C3 18.63 3 22.26 3 26 C2.01 26 1.02 26 0 26 C0 17.42 0 8.84 0 0 Z " fill="#343434" transform="translate(477,263)"/>
<path d="M0 0 C3.00927826 0.07036082 4.42818194 0.39416672 7.25 1.6875 C9.89582209 5.16014149 9.90927856 7.61202285 9.65625 11.89453125 C9.04512943 15.5318739 8.24623584 17.12013231 5.25 19.3125 C2.12188748 19.93925179 -0.62108818 19.92997026 -3.75 19.3125 C-6.21754461 17.53895231 -6.56116249 16.11580878 -7.2421875 13.21875 C-7.88422393 9.28791469 -8.06182213 6.99283919 -6.375 3.3125 C-3.95111732 0.32925978 -3.95111732 0.32925978 0 0 Z " fill="#323232" transform="translate(692.75,269.6875)"/>
<path d="M0 0 C2.9375 1.3125 2.9375 1.3125 5 4 C5.84228885 8.86902066 5.91947923 13.28097361 3.5625 17.6875 C-0.29442019 19.66299571 -3.7737175 20.01585873 -8 19 C-11.14558801 15.85441199 -11.89775628 13.83255597 -12.4375 9.4375 C-11.97584483 5.8102094 -11.20606252 3.88485099 -9 1 C-5.89951072 -0.55024464 -3.42105782 -0.28992015 0 0 Z " fill="#2A2929" transform="translate(318,270)"/>
<path d="M0 0 C2.5 1.3125 2.5 1.3125 4 4 C4.71416836 8.9024682 5.03373139 13.33012622 2.375 17.625 C-0.52829837 19.30585695 -2.64676256 19.86028177 -6 20 C-8.63232349 19.19567893 -9.64615131 18.57659517 -11.0859375 16.23046875 C-12.71825461 12.24733596 -12.54710335 8.22251562 -12 4 C-9.25591647 -0.80214617 -5.06248844 -0.96477751 0 0 Z " fill="#272727" transform="translate(966,270)"/>
<path d="M0 0 C0.99 0 1.98 0 3 0 C4.50827797 3.76757497 6.00518994 7.53956349 7.5 11.3125 C7.92925781 12.38435547 8.35851562 13.45621094 8.80078125 14.56054688 C9.40986328 16.10258789 9.40986328 16.10258789 10.03125 17.67578125 C10.40830078 18.62364502 10.78535156 19.57150879 11.17382812 20.5480957 C12 23 12 23 12 26 C10.68 26 9.36 26 8 26 C7.67 24.02 7.34 22.04 7 20 C3.04 20 -0.92 20 -5 20 C-5.33 21.98 -5.66 23.96 -6 26 C-7.32 25.67 -8.64 25.34 -10 25 C-9.0900688 22.33086848 -8.17228234 19.66486389 -7.25 17 C-6.99734375 16.25621094 -6.7446875 15.51242187 -6.484375 14.74609375 C-4.69266156 9.5949176 -2.5269893 4.8342404 0 0 Z " fill="#383838" transform="translate(259,263)"/>
<path d="M0 0 C1.32 0.33 2.64 0.66 4 1 C4.33 0.67 4.66 0.34 5 0 C7.33291811 -0.04401732 9.66700175 -0.03954234 12 0 C14.52160801 0 17.04437728 -0.05496723 19.5625 -0.1875 C23 0 23 0 24.703125 1 C26.76144277 4.17427319 26.31179737 7.53825669 26.1875 11.1875 C26.16719727 12.31188477 26.16719727 12.31188477 26.14648438 13.45898438 C26.11118539 15.30629767 26.05737917 17.15324066 26 19 C24.68 19 23.36 19 22 19 C22 13.72 22 8.44 22 3 C20.02 3.33 18.04 3.66 16 4 C15.67 8.95 15.34 13.9 15 19 C13.68 19 12.36 19 11 19 C10.67 14.05 10.34 9.1 10 4 C8.02 4 6.04 4 4 4 C3.67 8.95 3.34 13.9 3 19 C2.01 19 1.02 19 0 19 C0 12.73 0 6.46 0 0 Z " fill="#373737" transform="translate(328,270)"/>
<path d="M0 0 C2.16441991 1.61583422 2.90374474 2.47908916 3.3984375 5.15625 C3.39070313 5.9296875 3.38296875 6.703125 3.375 7.5 C3.38273437 8.2734375 3.39046875 9.046875 3.3984375 9.84375 C2.9017323 12.53180167 2.17560789 13.37818321 0 15 C-2.6805333 15.98697461 -5.15680103 16.26551274 -8 16 C-11 14 -11 14 -13 11 C-13.53416903 7.19404569 -13.55569356 5.00554073 -11.6875 1.625 C-8.07389756 -1.85476532 -4.57863555 -0.98113619 0 0 Z " fill="#9298B1" transform="translate(200,1)"/>
<path d="M0 0 C2.2109375 1.00390625 2.2109375 1.00390625 4 3 C4.29561076 5.87038052 4.37943016 8.33754745 4.25 11.1875 C4.23195313 11.93708984 4.21390625 12.68667969 4.1953125 13.45898438 C4.14824109 15.3065371 4.07649766 17.15343159 4 19 C1.87527424 19.05386629 -0.24983652 19.09273071 -2.375 19.125 C-3.55835938 19.14820313 -4.74171875 19.17140625 -5.9609375 19.1953125 C-9 19 -9 19 -11 17 C-11.3125 13.5 -11.3125 13.5 -11 10 C-7.91111478 7.94074319 -7.29064073 7.7609626 -3.8125 7.875 C-1.9253125 7.936875 -1.9253125 7.936875 0 8 C0 6.35 0 4.7 0 3 C-3.3 3.66 -6.6 4.32 -10 5 C-9.67 3.68 -9.34 2.36 -9 1 C-5.94306678 -0.52846661 -3.37015453 -0.23242445 0 0 Z " fill="#3A3A3A" transform="translate(370,270)"/>
<path d="M0 0 C3.8243472 1.69970987 5.48407465 3.14006672 7 7 C7.63672964 12.31595211 8.15414912 18.04205116 5.125 22.6875 C2.33569307 25.72292225 0.69540419 26.21521288 -3.3125 26.4375 C-6.97373254 26.34892179 -7.91238221 26.06079602 -11.0625 23.875 C-14.52022634 18.8685004 -13.97343429 11.73990564 -13 6 C-9.2181887 0.3156824 -6.76011666 -0.45831299 0 0 Z M-8.1953125 4.62890625 C-10.46957539 7.61695294 -10.50725242 9.27987078 -10.4375 13 C-10.43621094 14.03125 -10.43492187 15.0625 -10.43359375 16.125 C-9.95063747 19.32730472 -9.30603268 20.74722442 -7 23 C-2.26784416 23.62285815 -2.26784416 23.62285815 1.875 21.625 C4.6605622 17.60141015 4.43551659 13.75781333 4 9 C3.15163476 5.94350714 3.15163476 5.94350714 1 4 C-3.85527123 2.48488578 -3.85527123 2.48488578 -8.1953125 4.62890625 Z " fill="#292929" transform="translate(891,263)"/>
<path d="M0 0 C0.99 0 1.98 0 3 0 C3 3.96 3 7.92 3 12 C7.29 12 11.58 12 16 12 C16 8.04 16 4.08 16 0 C16.99 0 17.98 0 19 0 C19 8.58 19 17.16 19 26 C18.01 26 17.02 26 16 26 C16 22.37 16 18.74 16 15 C12.04 15 8.08 15 4 15 C4 18.63 4 22.26 4 26 C2.68 26 1.36 26 0 26 C0 17.42 0 8.84 0 0 Z " fill="#323132" transform="translate(451,263)"/>
<path d="M0 0 C2.50164525 1.43734881 3.96305664 2.86369354 6 5 C6 5.99 6 6.98 6 8 C4.68 8 3.36 8 2 8 C1.34 6.68 0.68 5.36 0 4 C-2.31 4 -4.62 4 -7 4 C-7.33 5.65 -7.66 7.3 -8 9 C-7.32453125 9.24234375 -6.6490625 9.4846875 -5.953125 9.734375 C3.53213368 13.29820051 3.53213368 13.29820051 6 17 C6.63416883 20.17084415 6.27965567 21.50727334 4.6875 24.3125 C0.38045615 27.01692288 -4.06566086 26.89102634 -9 26 C-11.6875 23.625 -11.6875 23.625 -13 21 C-13 20.34 -13 19.68 -13 19 C-11.68 19 -10.36 19 -9 19 C-8.67 19.99 -8.34 20.98 -8 22 C-3.38492226 23.04214691 -3.38492226 23.04214691 1 22 C1 20.35 1 18.7 1 17 C0.31292969 16.74605469 -0.37414062 16.49210937 -1.08203125 16.23046875 C-1.98308594 15.88628906 -2.88414062 15.54210937 -3.8125 15.1875 C-4.70582031 14.85105469 -5.59914063 14.51460938 -6.51953125 14.16796875 C-8.96012588 13.01877537 -10.35067613 12.11369661 -12 10 C-12.5 7.0625 -12.5 7.0625 -12 4 C-8.40701491 -0.13737677 -5.3447221 -0.84390349 0 0 Z " fill="#313131" transform="translate(521,263)"/>
<path d="M0 0 C2.4375 1.0625 2.4375 1.0625 4 3 C4.25 6.6875 4.25 6.6875 4 10 C0.04 10 -3.92 10 -8 10 C-7.01 11.98 -6.02 13.96 -5 16 C-4.2575 16 -3.515 16 -2.75 16 C-0.5 16 1.75 16 4 16 C4 16.66 4 17.32 4 18 C1.68722219 19.15638891 0.19908779 19.19868928 -2.375 19.25 C-3.14585937 19.27578125 -3.91671875 19.3015625 -4.7109375 19.328125 C-7.67749616 18.90288451 -8.94637437 18.18715734 -11 16 C-11.53125 13.22265625 -11.53125 13.22265625 -11.5 10.0625 C-11.5103125 9.02222656 -11.520625 7.98195313 -11.53125 6.91015625 C-10.32320545 0.29255929 -6.14595111 -0.76824389 0 0 Z " fill="#211F20" transform="translate(620,270)"/>
<path d="M0 0 C2.4375 1.0625 2.4375 1.0625 4 3 C4.25 6.6875 4.25 6.6875 4 10 C0.04 10 -3.92 10 -8 10 C-7.01 11.98 -6.02 13.96 -5 16 C-2.36 15.67 0.28 15.34 3 15 C3.33 15.99 3.66 16.98 4 18 C1.5558206 19.2220897 -0.21029872 19.23641068 -2.9375 19.3125 C-3.81277344 19.34988281 -4.68804688 19.38726562 -5.58984375 19.42578125 C-8 19 -8 19 -9.7890625 17.32421875 C-11.9996377 13.08134054 -11.62095819 8.6501301 -11 4 C-8.28855302 -0.6636888 -5.11392495 -0.63924062 0 0 Z " fill="#202020" transform="translate(542,270)"/>
<path d="M0 0 C2.875 1.125 2.875 1.125 5 3 C5.8125 6.1875 5.8125 6.1875 6 9 C4.68 9 3.36 9 2 9 C1.34 7.35 0.68 5.7 0 4 C-2.64 4 -5.28 4 -8 4 C-9.05885037 7.1765511 -9.20049266 9.59988011 -9.25 12.9375 C-9.27578125 13.97777344 -9.3015625 15.01804687 -9.328125 16.08984375 C-8.96423357 19.31721419 -8.16358594 20.63713641 -6 23 C-2.535 22.505 -2.535 22.505 1 22 C1.33 20.68 1.66 19.36 2 18 C3.32 18 4.64 18 6 18 C5.69209738 20.84809926 5.34521809 22.58286148 3.5 24.8125 C-0.29085615 26.61315667 -3.88197356 26.70400084 -8 26 C-10.50160818 24.12379387 -11.61945652 22.76108697 -13 20 C-13.17522676 17.73354234 -13.26728256 15.46027146 -13.3125 13.1875 C-13.34988281 11.96417969 -13.38726563 10.74085938 -13.42578125 9.48046875 C-12.92980695 5.4262201 -11.84899719 3.85956861 -9 1 C-5.93570224 -0.53214888 -3.3834358 -0.22938548 0 0 Z " fill="#333333" transform="translate(676,263)"/>
<path d="M0 0 C12.3033675 -0.36544656 12.3033675 -0.36544656 14.90625 1 C16.67520732 4.23466482 16.30953066 7.60480506 16.1875 11.1875 C16.16719727 12.31188477 16.16719727 12.31188477 16.14648438 13.45898438 C16.11118539 15.30629767 16.05737917 17.15324066 16 19 C14.68 19 13.36 19 12 19 C11.67 13.72 11.34 8.44 11 3 C9.02 3.33 7.04 3.66 5 4 C4.67 8.95 4.34 13.9 4 19 C2.68 19 1.36 19 0 19 C0 12.73 0 6.46 0 0 Z " fill="#434242" transform="translate(400,270)"/>
<path d="M0 0 C2.475 0.495 2.475 0.495 5 1 C5.33 0.67 5.66 0.34 6 0 C12.21376487 -0.46027888 12.21376487 -0.46027888 14.71484375 1.00390625 C16.75871851 4.17843513 16.3115892 7.54436827 16.1875 11.1875 C16.16719727 12.31188477 16.16719727 12.31188477 16.14648438 13.45898438 C16.11118539 15.30629767 16.05737917 17.15324066 16 19 C14.68 19 13.36 19 12 19 C11.67 14.05 11.34 9.1 11 4 C9.02 4 7.04 4 5 4 C4.67 8.95 4.34 13.9 4 19 C2.68 19 1.36 19 0 19 C0 12.73 0 6.46 0 0 Z " fill="#3C3B3C" transform="translate(1035,270)"/>
<path d="M0 0 C2.475 0.495 2.475 0.495 5 1 C5.33 0.67 5.66 0.34 6 0 C12.21376487 -0.46027888 12.21376487 -0.46027888 14.71484375 1.00390625 C16.75871851 4.17843513 16.3115892 7.54436827 16.1875 11.1875 C16.16719727 12.31188477 16.16719727 12.31188477 16.14648438 13.45898438 C16.11118539 15.30629767 16.05737917 17.15324066 16 19 C14.68 19 13.36 19 12 19 C11.67 14.05 11.34 9.1 11 4 C9.02 4 7.04 4 5 4 C4.67 8.95 4.34 13.9 4 19 C2.68 19 1.36 19 0 19 C0 12.73 0 6.46 0 0 Z " fill="#464646" transform="translate(706,270)"/>
<path d="M0 0 C1.32 0 2.64 0 4 0 C4.33 4.95 4.66 9.9 5 15 C6.98 15 8.96 15 11 15 C11.33 10.05 11.66 5.1 12 0 C13.32 0 14.64 0 16 0 C16 6.27 16 12.54 16 19 C14.68 18.67 13.36 18.34 12 18 C11.67 18.33 11.34 18.66 11 19 C5.16573034 19.56460674 5.16573034 19.56460674 3 19 C-0.31792017 15.07342333 -0.3277923 11.69125859 -0.1875 6.6875 C-0.14689453 4.80611328 -0.14689453 4.80611328 -0.10546875 2.88671875 C-0.07066406 1.93410156 -0.03585937 0.98148437 0 0 Z " fill="#4B4B4B" transform="translate(902,270)"/>
<path d="M0 0 C1.32 0 2.64 0 4 0 C4.33 4.95 4.66 9.9 5 15 C8.74691447 16.39770584 8.74691447 16.39770584 11 15 C11.31241371 12.45058627 11.51303421 9.99638487 11.625 7.4375 C11.68300781 6.37112305 11.68300781 6.37112305 11.7421875 5.28320312 C11.83671783 3.52257575 11.91945817 1.76132272 12 0 C13.32 0 14.64 0 16 0 C16 6.27 16 12.54 16 19 C6.13671875 19.48828125 6.13671875 19.48828125 3 19 C-0.47291631 15.24241841 -0.32605507 11.6292975 -0.1875 6.6875 C-0.14689453 4.80611328 -0.14689453 4.80611328 -0.10546875 2.88671875 C-0.07066406 1.93410156 -0.03585937 0.98148437 0 0 Z " fill="#383838" transform="translate(274,270)"/>
<path d="M0 0 C2.81920851 0.07176167 4.07116885 0.28423865 6.625 1.625 C8.125 3.3125 8.125 3.3125 8.125 6.3125 C6.805 6.3125 5.485 6.3125 4.125 6.3125 C3.795 5.6525 3.465 4.9925 3.125 4.3125 C1.475 4.3125 -0.175 4.3125 -1.875 4.3125 C-2.205 5.3025 -2.535 6.2925 -2.875 7.3125 C-1.80958984 7.61994141 -1.80958984 7.61994141 -0.72265625 7.93359375 C0.65599609 8.33771484 0.65599609 8.33771484 2.0625 8.75 C2.97902344 9.01683594 3.89554688 9.28367187 4.83984375 9.55859375 C7.125 10.3125 7.125 10.3125 8.125 11.3125 C8.58671829 15.69882379 8.58671829 15.69882379 6.890625 17.953125 C4.66520654 19.66650028 3.40877657 19.71533777 0.625 19.6875 C-0.1484375 19.69523437 -0.921875 19.70296875 -1.71875 19.7109375 C-4.37914788 19.21934224 -5.28831254 18.47893864 -6.875 16.3125 C-6.875 15.3225 -6.875 14.3325 -6.875 13.3125 C-5.555 13.6425 -4.235 13.9725 -2.875 14.3125 C-2.875 14.9725 -2.875 15.6325 -2.875 16.3125 C-0.895 16.3125 1.085 16.3125 3.125 16.3125 C3.455 14.9925 3.785 13.6725 4.125 12.3125 C3.49851562 12.11914062 2.87203125 11.92578125 2.2265625 11.7265625 C1.40929687 11.46617187 0.59203125 11.20578125 -0.25 10.9375 C-1.46816406 10.55464844 -1.46816406 10.55464844 -2.7109375 10.1640625 C-4.875 9.3125 -4.875 9.3125 -6.875 7.3125 C-6.3562492 2.12499197 -5.43364724 0.43819736 0 0 Z " fill="#414141" transform="translate(941.875,269.6875)"/>
<path d="M0 0 C2.81920851 0.07176167 4.07116885 0.28423865 6.625 1.625 C8.125 3.3125 8.125 3.3125 8.125 6.3125 C6.805 6.3125 5.485 6.3125 4.125 6.3125 C3.795 5.6525 3.465 4.9925 3.125 4.3125 C0.09565509 3.65477572 0.09565509 3.65477572 -2.875 3.3125 C-2.67862194 5.27850775 -2.67862194 5.27850775 -1.875 7.3125 C-0.09193588 8.37289988 -0.09193588 8.37289988 2.0625 8.9375 C4.87752096 9.80601826 5.98879137 10.17629137 8.125 12.3125 C7.79528521 15.60964793 7.5023161 16.9351839 5.125 19.3125 C3.06640625 19.61328125 3.06640625 19.61328125 0.6875 19.625 C-0.48619141 19.65013672 -0.48619141 19.65013672 -1.68359375 19.67578125 C-4.38638797 19.22772445 -5.27505607 18.50920758 -6.875 16.3125 C-6.875 15.3225 -6.875 14.3325 -6.875 13.3125 C-5.885 13.3125 -4.895 13.3125 -3.875 13.3125 C-2.885 14.7975 -2.885 14.7975 -1.875 16.3125 C1.20865871 16.5627157 1.20865871 16.5627157 4.125 16.3125 C4.125 14.9925 4.125 13.6725 4.125 12.3125 C2.866875 12.044375 1.60875 11.77625 0.3125 11.5 C-2.12025917 10.87887 -3.80718641 10.3556541 -5.9375 9 C-6.875 7.3125 -6.875 7.3125 -6.6875 4.75 C-5.31276325 0.62578974 -4.37498139 0.35282108 0 0 Z " fill="#3B3A3B" transform="translate(634.875,269.6875)"/>
<path d="M0 0 C2.4375 1.3125 2.4375 1.3125 4 3 C4 3.99 4 4.98 4 6 C2.68 6 1.36 6 0 6 C0 5.01 0 4.02 0 3 C-1.98 3 -3.96 3 -6 3 C-5.84896172 4.94399784 -5.84896172 4.94399784 -5 7 C-2.9279446 8.35102993 -2.9279446 8.35102993 -0.4375 9.25 C0.38878906 9.58515625 1.21507812 9.9203125 2.06640625 10.265625 C3.02353516 10.62914062 3.02353516 10.62914062 4 11 C4.1875 13.875 4.1875 13.875 4 17 C0.01521918 19.65652055 -3.31200271 19.73331801 -8 19 C-10.0625 17.125 -10.0625 17.125 -11 15 C-11 14.34 -11 13.68 -11 13 C-9.68 13 -8.36 13 -7 13 C-6.01 14.485 -6.01 14.485 -5 16 C-3.35 15.67 -1.7 15.34 0 15 C0 14.34 0 13.68 0 13 C-0.63808594 12.78085937 -1.27617188 12.56171875 -1.93359375 12.3359375 C-4.43820525 11.37472934 -6.71180673 10.40382589 -9 9 C-10.25 5.9375 -10.25 5.9375 -10 3 C-7.82847792 -1.07160391 -4.15041404 -0.43688569 0 0 Z " fill="#3E3E3E" transform="translate(737,270)"/>
<path d="M0 0 C0.99 0 1.98 0 3 0 C3.33 5.28 3.66 10.56 4 16 C6.64 15.67 9.28 15.34 12 15 C12 10.05 12 5.1 12 0 C12.99 0 13.98 0 15 0 C15 6.27 15 12.54 15 19 C13.68 18.67 12.36 18.34 11 18 C10.67 18.33 10.34 18.66 10 19 C4.1589404 19.37086093 4.1589404 19.37086093 2 19 C-0.52775351 15.20836973 -0.22443035 12.19125969 -0.125 7.8125 C-0.11597656 7.06291016 -0.10695313 6.31332031 -0.09765625 5.54101562 C-0.07412578 3.69387346 -0.03825561 1.84689588 0 0 Z " fill="#333333" transform="translate(746,270)"/>
<path d="M0 0 C0.99 0 1.98 0 3 0 C3.33 4.95 3.66 9.9 4 15 C5.98 15 7.96 15 10 15 C11.94090826 13.05909174 11.39919435 9.52706098 11.5625 6.9375 C11.64628906 5.64714844 11.73007812 4.35679687 11.81640625 3.02734375 C11.87699219 2.02832031 11.93757812 1.02929688 12 0 C12.99 0 13.98 0 15 0 C15 6.27 15 12.54 15 19 C13.68 18.67 12.36 18.34 11 18 C10.67 18.33 10.34 18.66 10 19 C7.32941149 19.14115161 4.67567762 19.04247107 2 19 C-0.44989101 15.25764681 -0.23086143 11.55774581 -0.125 7.25 C-0.11597656 6.55261719 -0.10695313 5.85523438 -0.09765625 5.13671875 C-0.07419888 3.42433042 -0.03833104 1.71211996 0 0 Z " fill="#3E3E3E" transform="translate(975,270)"/>
<path d="M0 0 C1.32 0.33 2.64 0.66 4 1 C4.33 0.67 4.66 0.34 5 0 C11.21376487 -0.46027888 11.21376487 -0.46027888 13.71484375 1.00390625 C15.75871851 4.17843513 15.3115892 7.54436827 15.1875 11.1875 C15.17396484 11.93708984 15.16042969 12.68667969 15.14648438 13.45898438 C15.11118539 15.30629767 15.05737917 17.15324066 15 19 C14.01 19 13.02 19 12 19 C11.67 14.05 11.34 9.1 11 4 C9.02 4 7.04 4 5 4 C3.05909174 5.94090826 3.60080565 9.47293902 3.4375 12.0625 C3.35371094 13.35285156 3.26992188 14.64320313 3.18359375 15.97265625 C3.12300781 16.97167969 3.06242188 17.97070312 3 19 C2.01 19 1.02 19 0 19 C0 12.73 0 6.46 0 0 Z " fill="#222021" transform="translate(797,270)"/>
<path d="M0 0 C4.45549507 1.36140127 6.25434405 3.30756614 9 7 C9.66 7.33 10.32 7.66 11 8 C11 8.99 11 9.98 11 11 C12.32 10.01 13.64 9.02 15 8 C15.66 9.65 16.32 11.3 17 13 C14.39521117 13.0809313 11.79293347 13.14045434 9.1875 13.1875 C8.08051758 13.22520508 8.08051758 13.22520508 6.95117188 13.26367188 C1.53408559 13.33720698 1.53408559 13.33720698 -0.9921875 11.7421875 C-2.87392827 8.48925579 -2.29306358 5.69260116 -2 2 C-1.34 1.34 -0.68 0.68 0 0 Z " fill="#2E2E2E" transform="translate(848,276)"/>
<path d="M0 0 C3.43280484 0.27539293 5.6829672 0.85929507 8 3.5625 C8 4.8825 8 6.2025 8 7.5625 C7.01 7.5625 6.02 7.5625 5 7.5625 C4.67 6.5725 4.34 5.5825 4 4.5625 C1.60280568 3.88291397 1.60280568 3.88291397 -1 3.5625 C-3.18939909 5.34357249 -3.18939909 5.34357249 -3.265625 7.65625 C-3.26046875 8.4503125 -3.2553125 9.244375 -3.25 10.0625 C-3.25515625 10.8565625 -3.2603125 11.650625 -3.265625 12.46875 C-3.18939909 14.78142751 -3.18939909 14.78142751 -1 16.5625 C1.57540213 16.39742354 1.57540213 16.39742354 4 15.5625 C4.33 14.9025 4.66 14.2425 5 13.5625 C5.99 13.5625 6.98 13.5625 8 13.5625 C7.42655063 16.42974686 7.1385485 17.4239515 5 19.5625 C1.92196736 20.18048339 -0.92230363 20.18022591 -4 19.5625 C-7.11084524 16.45165476 -7.88117034 14.39430765 -8.5 10.0625 C-7.70434295 4.49290063 -6.08182745 0.24962725 0 0 Z " fill="#2F2F2F" transform="translate(597,269.4375)"/>
<path d="M0 0 C2 1.3125 2 1.3125 3 3 C3 3.99 3 4.98 3 6 C2.01 6 1.02 6 0 6 C-0.33 5.34 -0.66 4.68 -1 4 C-2.98 4 -4.96 4 -7 4 C-7.2226746 5.43534841 -7.42761906 6.87345525 -7.625 8.3125 C-7.79902344 9.51326172 -7.79902344 9.51326172 -7.9765625 10.73828125 C-8.21533407 13.28723215 -8.21533407 13.28723215 -6 16 C-3.52733235 15.65555119 -3.52733235 15.65555119 -1 15 C-0.67 14.34 -0.34 13.68 0 13 C0.99 13 1.98 13 3 13 C2.42655063 15.86724686 2.1385485 16.8614515 0 19 C-2.05859375 19.3359375 -2.05859375 19.3359375 -4.4375 19.375 C-5.21996094 19.40335937 -6.00242187 19.43171875 -6.80859375 19.4609375 C-9 19 -9 19 -10.7578125 17.3203125 C-13.02097021 13.09290469 -12.61466967 8.6559461 -12 4 C-9.16762522 -1.07467149 -5.27147045 -0.58571894 0 0 Z " fill="#2D2D2D" transform="translate(1019,270)"/>
<path d="M0 0 C3 -0.3125 3 -0.3125 6 0 C8.41486943 2.41486943 8.2961925 3.12707789 8.3125 6.4375 C8.32925781 7.21996094 8.34601562 8.00242187 8.36328125 8.80859375 C7.91709016 11.50013357 7.18091457 12.40066265 5 14 C1.65807308 13.75546876 0.39456443 13.39456443 -2 11 C-2.46376812 3.69565217 -2.46376812 3.69565217 0 0 Z " fill="#EFEFEF" transform="translate(959,273)"/>
<path d="M0 0 C1.32 0 2.64 0 4 0 C4 1.65 4 3.3 4 5 C4.99 5 5.98 5 7 5 C7 5.99 7 6.98 7 8 C6.01 8 5.02 8 4 8 C4 12.29 4 16.58 4 21 C4.99 21 5.98 21 7 21 C7 21.99 7 22.98 7 24 C4.625 24.125 4.625 24.125 2 24 C0 22 0 22 -0.1953125 18.7421875 C-0.17210937 17.46601563 -0.14890625 16.18984375 -0.125 14.875 C-0.10695313 13.59367187 -0.08890625 12.31234375 -0.0703125 10.9921875 C-0.04710937 10.00476563 -0.02390625 9.01734375 0 8 C-0.99 8 -1.98 8 -3 8 C-3 7.01 -3 6.02 -3 5 C-2.01 5 -1.02 5 0 5 C0 3.35 0 1.7 0 0 Z " fill="#4E4E4E" transform="translate(380,265)"/>
<path d="M0 0 C1.32 0 2.64 0 4 0 C4 1.65 4 3.3 4 5 C5.32 5 6.64 5 8 5 C8 5.99 8 6.98 8 8 C6.68 8 5.36 8 4 8 C4.11344376 10.1464753 4.24106345 12.29220592 4.375 14.4375 C4.47941406 16.22994141 4.47941406 16.22994141 4.5859375 18.05859375 C4.72257813 19.02925781 4.85921875 19.99992187 5 21 C5.66 21.33 6.32 21.66 7 22 C7 22.66 7 23.32 7 24 C4.625 24.1875 4.625 24.1875 2 24 C-0.42130331 20.36804504 -0.21022785 18.61650652 -0.125 14.3125 C-0.09792969 12.54326172 -0.09792969 12.54326172 -0.0703125 10.73828125 C-0.03550781 9.38283203 -0.03550781 9.38283203 0 8 C-0.99 8 -1.98 8 -3 8 C-3 7.01 -3 6.02 -3 5 C-2.01 5 -1.02 5 0 5 C0 3.35 0 1.7 0 0 Z " fill="#333232" transform="translate(776,265)"/>
<path d="M0 0 C1.32 0 2.64 0 4 0 C4 1.65 4 3.3 4 5 C4.99 5 5.98 5 7 5 C7 5.99 7 6.98 7 8 C6.01 8 5.02 8 4 8 C4 12.29 4 16.58 4 21 C4.99 21 5.98 21 7 21 C7 21.99 7 22.98 7 24 C4.625 24.1875 4.625 24.1875 2 24 C-0.42130331 20.36804504 -0.21022785 18.61650652 -0.125 14.3125 C-0.09792969 12.54326172 -0.09792969 12.54326172 -0.0703125 10.73828125 C-0.03550781 9.38283203 -0.03550781 9.38283203 0 8 C-0.99 8 -1.98 8 -3 8 C-3 7.01 -3 6.02 -3 5 C-2.01 5 -1.02 5 0 5 C0 3.35 0 1.7 0 0 Z " fill="#3E3E3E" transform="translate(924,265)"/>
<path d="M0 0 C3 -0.375 3 -0.375 6 0 C8.47342266 3.71013399 8.38503486 5.61060262 8 10 C6.5 12.4375 6.5 12.4375 5 14 C2.625 13.6875 2.625 13.6875 0 13 C-2.45811625 9.31282562 -2.31118164 7.35654296 -2 3 C-1.34 2.01 -0.68 1.02 0 0 Z " fill="#F4F4F4" transform="translate(312,273)"/>
<path d="M0 0 C1.859375 0.15234375 1.859375 0.15234375 4 1 C5.78939376 4.54012777 6.78028962 8.21018561 8 12 C9.32 8.04 10.64 4.08 12 0 C13.32 0 14.64 0 16 0 C13.94235079 6.45353615 11.57616518 12.7361263 9 19 C8.01 19 7.02 19 6 19 C4.99141578 16.58660204 3.99297327 14.16981325 3 11.75 C2.57074219 10.72712891 2.57074219 10.72712891 2.1328125 9.68359375 C0.70654506 6.18584265 0 3.83099811 0 0 Z " fill="#373737" transform="translate(562,270)"/>
<path d="M0 0 C2.375 0.75 2.375 0.75 3.375 1.75 C3.49987758 3.55927281 3.55070846 5.37396107 3.5625 7.1875 C3.57667969 8.17621094 3.59085938 9.16492188 3.60546875 10.18359375 C3.375 12.75 3.375 12.75 1.375 14.75 C-1.92214793 14.42028521 -3.2476839 14.1273161 -5.625 11.75 C-5.92578125 9.69140625 -5.92578125 9.69140625 -5.9375 7.3125 C-5.95425781 6.53003906 -5.97101562 5.74757813 -5.98828125 4.94140625 C-5.36398327 1.17547974 -3.80884669 -0.3627473 0 0 Z " fill="#F1F1F1" transform="translate(694.625,272.25)"/>
<path d="M0 0 C0.99 0 1.98 0 3 0 C3 1.65 3 3.3 3 5 C4.32 5 5.64 5 7 5 C7 5.99 7 6.98 7 8 C6.01 8 5.02 8 4 8 C4 12.62 4 17.24 4 22 C4.99 22 5.98 22 7 22 C7 22.66 7 23.32 7 24 C4.625 24.125 4.625 24.125 2 24 C0 22 0 22 -0.1953125 18.7421875 C-0.17210937 17.46601563 -0.14890625 16.18984375 -0.125 14.875 C-0.10695313 13.59367187 -0.08890625 12.31234375 -0.0703125 10.9921875 C-0.04710937 10.00476563 -0.02390625 9.01734375 0 8 C-0.99 8 -1.98 8 -3 8 C-3 7.01 -3 6.02 -3 5 C-2.01 5 -1.02 5 0 5 C0 3.35 0 1.7 0 0 Z " fill="#4A4A4A" transform="translate(296,265)"/>
<path d="M0 0 C2.5 0.25 2.5 0.25 4.5 2.25 C4.80078125 4.5625 4.80078125 4.5625 4.8125 7.25 C4.82925781 8.136875 4.84601563 9.02375 4.86328125 9.9375 C4.74339844 10.700625 4.62351562 11.46375 4.5 12.25 C1.5 14.25 1.5 14.25 -1.125 14 C-1.90875 13.7525 -2.6925 13.505 -3.5 13.25 C-4.67673198 10.89653604 -4.66623866 9.3693967 -4.6875 6.75 C-4.70167969 5.9559375 -4.71585937 5.161875 -4.73046875 4.34375 C-4.36961828 1.06551523 -3.1957215 0.31957215 0 0 Z " fill="#F1F1F1" transform="translate(428.5,272.75)"/>
<path d="M0 0 C0.99 0 1.98 0 3 0 C3 9.24 3 18.48 3 28 C1.68 28 0.36 28 -1 28 C-1.02886338 23.52084672 -1.04675187 19.04171709 -1.0625 14.5625 C-1.07087891 13.28310547 -1.07925781 12.00371094 -1.08789062 10.68554688 C-1.09111328 9.47060547 -1.09433594 8.25566406 -1.09765625 7.00390625 C-1.10289307 5.87799072 -1.10812988 4.7520752 -1.11352539 3.59204102 C-1 1 -1 1 0 0 Z " fill="#444444" transform="translate(767,261)"/>
<path d="M0 0 C2.5 0.25 2.5 0.25 4.5 2.25 C4.80078125 4.5625 4.80078125 4.5625 4.8125 7.25 C4.82925781 8.136875 4.84601563 9.02375 4.86328125 9.9375 C4.74339844 10.700625 4.62351562 11.46375 4.5 12.25 C1.5 14.25 1.5 14.25 -0.5625 14 C-2.5 13.25 -2.5 13.25 -4.5 11.25 C-4.765625 9.15625 -4.765625 9.15625 -4.75 6.75 C-4.75515625 5.9559375 -4.7603125 5.161875 -4.765625 4.34375 C-4.35119662 1.07707925 -3.20036774 0.32003677 0 0 Z " fill="#F3F1F2" transform="translate(1063.5,272.75)"/>
<path d="M0 0 C3.0625 -0.25 3.0625 -0.25 6 0 C7 1 7 1 7.1328125 3.46875 C7.13023437 4.4690625 7.12765625 5.469375 7.125 6.5 C7.12757813 7.5003125 7.13015625 8.500625 7.1328125 9.53125 C7 12 7 12 6 13 C3.0625 13.1875 3.0625 13.1875 0 13 C-2.60704898 10.39295102 -2.23905333 8.52661759 -2.265625 4.97265625 C-2 3 -2 3 0 0 Z " fill="#F7F7F7" transform="translate(822,273)"/>
<path d="M0 0 C2.2109375 1.00390625 2.2109375 1.00390625 4 3 C4.29561076 5.87038052 4.37943016 8.33754745 4.25 11.1875 C4.23195313 11.93708984 4.21390625 12.68667969 4.1953125 13.45898438 C4.14824109 15.3065371 4.07649766 17.15343159 4 19 C3.01 19 2.02 19 1 19 C0.15545644 15.62182575 -0.10844919 13.32534757 1 10 C-0.98 10 -2.96 10 -5 10 C-4.67 9.34 -4.34 8.68 -4 8 C-2.68 8 -1.36 8 0 8 C0 6.35 0 4.7 0 3 C-3.3 3.66 -6.6 4.32 -10 5 C-9.67 3.68 -9.34 2.36 -9 1 C-5.94306678 -0.52846661 -3.37015453 -0.23242445 0 0 Z " fill="#2D2D2D" transform="translate(370,270)"/>
<path d="M0 0 C1.65 0 3.3 0 5 0 C4.67 0.66 4.34 1.32 4 2 C3.77532169 3.53668865 3.59203195 5.07968054 3.4375 6.625 C3.35371094 7.44226563 3.26992188 8.25953125 3.18359375 9.1015625 C3.12300781 9.72804688 3.06242187 10.35453125 3 11 C5.64 11 8.28 11 11 11 C10.67 11.66 10.34 12.32 10 13 C6.9375 13.625 6.9375 13.625 4 14 C3.67 17.63 3.34 21.26 3 25 C2.01 25 1.02 25 0 25 C0 16.75 0 8.5 0 0 Z " fill="#272727" transform="translate(477,264)"/>
<path d="M0 0 C1.875 1.1875 1.875 1.1875 3 3 C3.5 5.4375 3.5 5.4375 3 8 C0.6875 10.375 0.6875 10.375 -2 12 C-2.99 11.67 -3.98 11.34 -5 11 C-6.1875 7.4375 -6.1875 7.4375 -7 4 C-7.99 4.495 -7.99 4.495 -9 5 C-8.625 3.0625 -8.625 3.0625 -8 1 C-5.20129973 -0.39935013 -3.09501208 -0.25265405 0 0 Z " fill="#302E2F" transform="translate(857,263)"/>
<path d="M0 0 C1.258125 -0.04125 2.51625 -0.0825 3.8125 -0.125 C4.52019531 -0.14820313 5.22789062 -0.17140625 5.95703125 -0.1953125 C8 0 8 0 11 2 C11.3125 4.5 11.3125 4.5 11 7 C9 9 9 9 6.8359375 9.1953125 C4.55729167 9.13020833 2.27864583 9.06510417 0 9 C0 6.03 0 3.06 0 0 Z " fill="#F5F5F5" transform="translate(480,266)"/>
<path d="M0 0 C3.7109611 0.31991044 4.99743948 0.7900419 7.625 3.3125 C6.75 7.1875 6.75 7.1875 5.625 8.3125 C3.93891034 8.38455511 2.24999341 8.39636068 0.5625 8.375 C-0.35660156 8.36597656 -1.27570312 8.35695313 -2.22265625 8.34765625 C-2.93292969 8.33605469 -3.64320313 8.32445312 -4.375 8.3125 C-4.705 7.3225 -5.035 6.3325 -5.375 5.3125 C-6.365 5.8075 -6.365 5.8075 -7.375 6.3125 C-4.62919355 0.42862903 -4.62919355 0.42862903 0 0 Z " fill="#323132" transform="translate(616.375,269.6875)"/>
<path d="M0 0 C2.97 0 5.94 0 9 0 C9 0.99 9 1.98 9 3 C7.68 3.33 6.36 3.66 5 4 C4.67 8.95 4.34 13.9 4 19 C2.68 19 1.36 19 0 19 C0 12.73 0 6.46 0 0 Z " fill="#434343" transform="translate(550,270)"/>
<path d="M0 0 C2.97 0 5.94 0 9 0 C9 0.99 9 1.98 9 3 C7.68 3.33 6.36 3.66 5 4 C4.67 8.95 4.34 13.9 4 19 C2.68 19 1.36 19 0 19 C0 12.73 0 6.46 0 0 Z " fill="#3C3C3C" transform="translate(995,270)"/>
<path d="M0 0 C2.875 1.125 2.875 1.125 5 3 C5.8125 6.1875 5.8125 6.1875 6 9 C4.68 9 3.36 9 2 9 C1.34 7.35 0.68 5.7 0 4 C-2.64 4 -5.28 4 -8 4 C-8 4.66 -8 5.32 -8 6 C-8.99 6.33 -9.98 6.66 -11 7 C-11.33 11.29 -11.66 15.58 -12 20 C-12.33 20 -12.66 20 -13 20 C-13.10853983 17.77191841 -13.18583307 15.54230068 -13.25 13.3125 C-13.29640625 12.07113281 -13.3428125 10.82976562 -13.390625 9.55078125 C-12.93733018 5.4303313 -11.89748679 3.89212108 -9 1 C-5.93570224 -0.53214888 -3.3834358 -0.22938548 0 0 Z " fill="#3D3D3D" transform="translate(676,263)"/>
<path d="M0 0 C0 0.66 0 1.32 0 2 C-4.455 3.485 -4.455 3.485 -9 5 C-9 8.63 -9 12.26 -9 16 C-10.32 16 -11.64 16 -13 16 C-14.67827066 10.96518803 -14.8154742 6.77921643 -12.625 2 C-8.65400033 -1.02552356 -4.8219397 -0.41409788 0 0 Z " fill="#3F3F3F" transform="translate(434,270)"/>
<path d="M0 0 C0.99 0 1.98 0 3 0 C3 8.58 3 17.16 3 26 C2.01 26 1.02 26 0 26 C0 17.42 0 8.84 0 0 Z " fill="#282728" transform="translate(451,263)"/>
<path d="M0 0 C1.32 0 2.64 0 4 0 C4 6.27 4 12.54 4 19 C2.68 19 1.36 19 0 19 C0 12.73 0 6.46 0 0 Z " fill="#383838" transform="translate(581,270)"/>
<path d="M0 0 C1.32 0 2.64 0 4 0 C4 6.27 4 12.54 4 19 C2.68 19 1.36 19 0 19 C0 12.73 0 6.46 0 0 Z " fill="#3A3A3A" transform="translate(788,270)"/>
<path d="M0 0 C0 0.66 0 1.32 0 2 C1.32 2.33 2.64 2.66 4 3 C3.195625 3.12375 2.39125 3.2475 1.5625 3.375 C0.2940625 3.684375 0.2940625 3.684375 -1 4 C-2.5121867 7.02437339 -2.17263369 9.66241534 -2 13 C-1.00916033 15.23408113 -1.00916033 15.23408113 0 17 C-0.33 17.66 -0.66 18.32 -1 19 C-4 18 -4 18 -5.6875 15.875 C-7.32675344 12.28425436 -7.41936206 9.91404585 -7 6 C-4.13043478 0 -4.13043478 0 0 0 Z " fill="#363636" transform="translate(313,270)"/>
<path d="M0 0 C2.81920851 0.07176167 4.07116885 0.28423865 6.625 1.625 C8.125 3.3125 8.125 3.3125 8.125 6.3125 C6.805 6.3125 5.485 6.3125 4.125 6.3125 C3.795 5.6525 3.465 4.9925 3.125 4.3125 C0.09565509 3.65477572 0.09565509 3.65477572 -2.875 3.3125 C-2.52713292 5.28786745 -2.52713292 5.28786745 -1.875 7.3125 C-1.215 7.6425 -0.555 7.9725 0.125 8.3125 C0.125 8.9725 0.125 9.6325 0.125 10.3125 C-4.625 9.5625 -4.625 9.5625 -6.875 7.3125 C-6.3562492 2.12499197 -5.43364724 0.43819736 0 0 Z " fill="#303030" transform="translate(634.875,269.6875)"/>
<path d="M0 0 C0.99 0 1.98 0 3 0 C3.02578125 0.74765625 3.0515625 1.4953125 3.078125 2.265625 C3.31803651 8.27864746 3.31803651 8.27864746 5.75 13.625 C8.20503993 15.12530218 10.15173812 15.68352646 13 16 C13 16.66 13 17.32 13 18 C5.95522388 18.71641791 5.95522388 18.71641791 2 15.75 C-1.31133738 11.16507132 -0.3909623 5.36921552 0 0 Z " fill="#292929" transform="translate(878,271)"/>
<path d="M0 0 C0.33 0 0.66 0 1 0 C1 20.79 1 41.58 1 63 C0.67 63 0.34 63 0 63 C-0.01030746 62.30508957 -0.02061493 61.61017914 -0.03123474 60.89421082 C-0.12919919 54.34637933 -0.23171217 47.79863672 -0.33933926 41.25095654 C-0.39451122 37.88470387 -0.44792197 34.51844243 -0.49731445 31.15209961 C-0.55496637 27.28230386 -0.61867568 23.41264856 -0.68359375 19.54296875 C-0.70030624 18.33352097 -0.71701874 17.12407318 -0.73423767 15.87797546 C-0.75418289 14.75703995 -0.77412811 13.63610443 -0.79467773 12.48120117 C-0.81022202 11.49302902 -0.8257663 10.50485687 -0.84178162 9.48674011 C-0.90213783 6.86800044 -0.90213783 6.86800044 -2 4 C-1.0625 1.8125 -1.0625 1.8125 0 0 Z " fill="#DBE3FD" transform="translate(570,168)"/>
<path d="M0 0 C1.65 0.33 3.3 0.66 5 1 C5.1875 3.875 5.1875 3.875 5 7 C1.01521918 9.65652055 -2.31200271 9.73331801 -7 9 C-9.0625 7.125 -9.0625 7.125 -10 5 C-10 4.34 -10 3.68 -10 3 C-8.68 3 -7.36 3 -6 3 C-5.01 4.485 -5.01 4.485 -4 6 C-2.35 5.67 -0.7 5.34 1 5 C0.67 3.35 0.34 1.7 0 0 Z " fill="#2B2B2B" transform="translate(736,280)"/>
<path d="M0 0 C0.92946617 2.7883985 1.05976545 4.21849933 0.9375 7.0625 C0.54338439 11.00724787 0.54338439 11.00724787 3 13 C5.57061311 13.64767793 5.57061311 13.64767793 8 14 C8 14.66 8 15.32 8 16 C0.66884389 16.48073155 0.66884389 16.48073155 -2 14.5625 C-3.47132158 10.79223846 -3.74902051 6.9874327 -3 3 C-1.4765625 1.22265625 -1.4765625 1.22265625 0 0 Z " fill="#2E2E2E" transform="translate(820,273)"/>
<path d="M0 0 C0.99 0 1.98 0 3 0 C3.50615298 1.26839526 4.00469099 2.53983102 4.5 3.8125 C4.7784375 4.52019531 5.056875 5.22789062 5.34375 5.95703125 C6 8 6 8 6 11 C4.68 11 3.36 11 2 11 C1.67 8.69 1.34 6.38 1 4 C-2.63 4 -6.26 4 -10 4 C-10 3.01 -10 2.02 -10 1 C-6.7 1.33 -3.4 1.66 0 2 C0 1.34 0 0.68 0 0 Z " fill="#2F2F2F" transform="translate(265,278)"/>
<path d="M0 0 C3.43280484 0.27539293 5.6829672 0.85929507 8 3.5625 C8 4.8825 8 6.2025 8 7.5625 C7.01 7.5625 6.02 7.5625 5 7.5625 C4.67 6.5725 4.34 5.5825 4 4.5625 C1.39596178 3.83915605 -0.51935082 3.46637016 -3.1875 4 C-6.16605313 6.56771821 -6.26623117 9.77136106 -7 13.5625 C-7.33 13.5625 -7.66 13.5625 -8 13.5625 C-8.32647149 9.48160634 -8.15000832 6.90626906 -6.5 3.125 C-3.86471884 0.42383681 -3.52133931 0.14453258 0 0 Z " fill="#303030" transform="translate(597,269.4375)"/>
<path d="M0 0 C0.66 0.66 1.32 1.32 2 2 C1.79503906 2.57363281 1.59007812 3.14726563 1.37890625 3.73828125 C-1.5666839 13.02605115 -1.70970512 22.34018772 -2 32 C-4.48443685 29.51556315 -4.25726292 28.03632723 -4.27783203 24.64160156 C-4.26864746 23.93487305 -4.25946289 23.22814453 -4.25 22.5 C-4.24468262 21.78038086 -4.23936523 21.06076172 -4.23388672 20.31933594 C-4.10683795 13.14349266 -3.43242741 6.40335197 0 0 Z " fill="#3A477F" transform="translate(61,70)"/>
<path d="M0 0 C0.33 0 0.66 0 1 0 C1 1.65 1 3.3 1 5 C1.66 5 2.32 5 3 5 C2.72776186 8.35760377 2.41629629 9.64317461 -0.1875 11.875 C-3.66318968 13.26527587 -5.44263841 13.08267527 -9 12 C-10.875 10.4375 -10.875 10.4375 -12 9 C-11.01 8.34 -10.02 7.68 -9 7 C-8.34 7.66 -7.68 8.32 -7 9 C-3.69316534 8.71016731 -3.69316534 8.71016731 -1 7 C-0.63239269 4.67182036 -0.29758419 2.3381615 0 0 Z " fill="#343434" transform="translate(967,277)"/>
<path d="M0 0 C0.99 0 1.98 0 3 0 C3 6.27 3 12.54 3 19 C2.01 19 1.02 19 0 19 C0 12.73 0 6.46 0 0 Z " fill="#212021" transform="translate(328,270)"/>
<path d="M0 0 C0.99 0 1.98 0 3 0 C3 6.27 3 12.54 3 19 C2.01 19 1.02 19 0 19 C0 12.73 0 6.46 0 0 Z " fill="#282627" transform="translate(392,270)"/>
<path d="M0 0 C0.99 0 1.98 0 3 0 C3 6.27 3 12.54 3 19 C2.01 19 1.02 19 0 19 C0 12.73 0 6.46 0 0 Z " fill="#252525" transform="translate(758,270)"/>
<path d="M0 0 C0.99 0 1.98 0 3 0 C3 6.27 3 12.54 3 19 C2.01 19 1.02 19 0 19 C0 12.73 0 6.46 0 0 Z " fill="#211F20" transform="translate(1027,270)"/>
<path d="M0 0 C0.99 0 1.98 0 3 0 C3 6.27 3 12.54 3 19 C2.01 19 1.02 19 0 19 C0 12.73 0 6.46 0 0 Z " fill="#222222" transform="translate(915,270)"/>
<path d="M0 0 C0 0.66 0 1.32 0 2 C-4.455 3.485 -4.455 3.485 -9 5 C-9.33 7.64 -9.66 10.28 -10 13 C-10.33 13 -10.66 13 -11 13 C-11.33 11.02 -11.66 9.04 -12 7 C-12.33 9.31 -12.66 11.62 -13 14 C-13.33 14 -13.66 14 -14 14 C-14.34797604 9.56330548 -14.47161563 6.05041662 -12.625 1.9375 C-8.64156176 -1.00265679 -4.78835866 -0.41121401 0 0 Z " fill="#484747" transform="translate(1069,270)"/>
<path d="M0 0 C2.31 0.33 4.62 0.66 7 1 C6.814375 2.11375 6.62875 3.2275 6.4375 4.375 C5.68319343 7.82568861 5.68319343 7.82568861 7 10 C6.01 10 5.02 10 4 10 C3.67 9.34 3.34 8.68 3 8 C2.67 8.66 2.34 9.32 2 10 C1.34 10 0.68 10 0 10 C0 6.7 0 3.4 0 0 Z " fill="#43507D" transform="translate(192,3)"/>
<path d="M0 0 C2.6855594 2.6855594 3.06049974 5.37621328 4 9 C2.09598862 10.90401138 0.66574314 11.93520439 -2.046875 12.19921875 C-4.03233273 12.1886578 -6.0169914 12.09915043 -8 12 C-8.33 10.68 -8.66 9.36 -9 8 C-6.36 8 -3.72 8 -1 8 C-0.67 6.35 -0.34 4.7 0 3 C-1.65 2.67 -3.3 2.34 -5 2 C-5 1.67 -5 1.34 -5 1 C-2.625 0.375 -2.625 0.375 0 0 Z " fill="#494949" transform="translate(828,285)"/>
<path d="M0 0 C1.90318884 2.85478326 2.4619099 4.41941308 3.125 7.6875 C3.29257812 8.49574219 3.46015625 9.30398438 3.6328125 10.13671875 C3.75398438 10.75160156 3.87515625 11.36648438 4 12 C1.36 12 -1.28 12 -4 12 C-3.33501617 7.61110675 -1.81242323 4.0188515 0 0 Z " fill="#DEDEDE" transform="translate(260,268)"/>
<path d="M0 0 C3.35620271 1.38877354 5.07298728 2.91677965 7 6 C7 6.66 7 7.32 7 8 C3.625 8.625 3.625 8.625 0 9 C-2 7 -2 7 -2.25 4.5 C-2 2 -2 2 0 0 Z " fill="#EAE9EA" transform="translate(851,278)"/>
<path d="M0 0 C0.99 0 1.98 0 3 0 C3 6.27 3 12.54 3 19 C2.34 19 1.68 19 1 19 C-0.25433458 15.23699626 -0.10695422 11.72789091 -0.0625 7.8125 C-0.05798828 7.06291016 -0.05347656 6.31332031 -0.04882812 5.54101562 C-0.03706354 3.69397617 -0.01912865 1.84697787 0 0 Z " fill="#252424" transform="translate(987,270)"/>
<path d="M0 0 C7.92 0 15.84 0 24 0 C23.67 0.99 23.34 1.98 23 3 C22.40985107 2.99476318 21.81970215 2.98952637 21.21166992 2.98413086 C18.53695745 2.96333953 15.86226199 2.95033299 13.1875 2.9375 C11.7943457 2.92493164 11.7943457 2.92493164 10.37304688 2.91210938 C9.48037109 2.90888672 8.58769531 2.90566406 7.66796875 2.90234375 C6.84578857 2.89710693 6.0236084 2.89187012 5.17651367 2.88647461 C2.81827404 2.91258476 2.81827404 2.91258476 0 4 C0 2.68 0 1.36 0 0 Z " fill="#2D3B70" transform="translate(251,117)"/>
<path d="M0 0 C1.485 0.99 1.485 0.99 3 2 C3.22107787 4.7885289 3.28107535 7.34653181 3.1875 10.125 C3.17396484 10.87910156 3.16042969 11.63320313 3.14648438 12.41015625 C3.11109985 14.27374127 3.05729167 16.13695978 3 18 C2.01 18 1.02 18 0 18 C0 12.06 0 6.12 0 0 Z " fill="#202020" transform="translate(809,271)"/>
<path d="M0 0 C0.99 0.66 1.98 1.32 3 2 C2.67 2.99 2.34 3.98 2 5 C5.63 5.33 9.26 5.66 13 6 C13 6.33 13 6.66 13 7 C9.04 7 5.08 7 1 7 C0.67 8.98 0.34 10.96 0 13 C-1.32 12.67 -2.64 12.34 -4 12 C-2.68 8.04 -1.36 4.08 0 0 Z " fill="#4B494A" transform="translate(253,276)"/>
<path d="M0 0 C0.66 0 1.32 0 2 0 C2.125 2.375 2.125 2.375 2 5 C-0.41486943 7.41486943 -1.12707789 7.2961925 -4.4375 7.3125 C-5.61119141 7.33763672 -5.61119141 7.33763672 -6.80859375 7.36328125 C-9.51138797 6.91522445 -10.40005607 6.19670758 -12 4 C-12 3.01 -12 2.02 -12 1 C-10.68 1.33 -9.36 1.66 -8 2 C-8 2.66 -8 3.32 -8 4 C-6.02 4 -4.04 4 -2 4 C-1.34 2.68 -0.68 1.36 0 0 Z " fill="#242424" transform="translate(947,282)"/>
<path d="M0 0 C0.33 3.96 0.66 7.92 1 12 C1.99 12.33 2.98 12.66 4 13 C4 13.66 4 14.32 4 15 C1.625 15.125 1.625 15.125 -1 15 C-3 13 -3 13 -3.1953125 10.1796875 C-3.17210937 9.08914063 -3.14890625 7.99859375 -3.125 6.875 C-3.10695313 5.77929688 -3.08890625 4.68359375 -3.0703125 3.5546875 C-3.04710937 2.71164062 -3.02390625 1.86859375 -3 1 C-1 0 -1 0 0 0 Z " fill="#222222" transform="translate(299,274)"/>
<path d="M0 0 C3.61305558 -0.33609819 5.62603831 -0.19511045 8.875 1.5 C11.20304318 4.23887433 11.30643811 4.83109612 11.3125 8.25 C11.209375 9.4875 11.10625 10.725 11 12 C10.01 12 9.02 12 8 12 C7.34 9.36 6.68 6.72 6 4 C3.03 3.505 3.03 3.505 0 3 C0 2.01 0 1.02 0 0 Z " fill="#2D2D2D" transform="translate(691,270)"/>
<path d="M0 0 C0.66 0.33 1.32 0.66 2 1 C2 6.28 2 11.56 2 17 C1.01 17 0.02 17 -1 17 C-1.02691685 14.54159395 -1.04679802 12.08348118 -1.0625 9.625 C-1.07087891 8.92632812 -1.07925781 8.22765625 -1.08789062 7.5078125 C-1.11328125 2.2265625 -1.11328125 2.2265625 0 0 Z " fill="#323232" transform="translate(720,272)"/>
<path d="M0 0 C3.33333333 0 6.66666667 0 10 0 C11.35862973 3.90480249 10.89469712 7.7101776 10.5625 11.75 C10.51029297 12.44738281 10.45808594 13.14476562 10.40429688 13.86328125 C10.27525928 15.57596203 10.13840386 17.28805066 10 19 C9.67 19 9.34 19 9 19 C8.67 14.05 8.34 9.1 8 4 C5.69 4 3.38 4 1 4 C0.67 2.68 0.34 1.36 0 0 Z " fill="#505050" transform="translate(709,270)"/>
<path d="M0 0 C1.134375 0.020625 2.26875 0.04125 3.4375 0.0625 C3.0625 2.5 3.0625 2.5 2.4375 5.0625 C-0.27129335 6.41689668 -2.57183268 6.12751451 -5.5625 6.0625 C-4.48849278 0.07874549 -4.48849278 0.07874549 0 0 Z " fill="#E2E2E2" transform="translate(367.5625,279.9375)"/>
<path d="M0 0 C0.66 0 1.32 0 2 0 C2 6.93 2 13.86 2 21 C1.34 21 0.68 21 0 21 C-1.15702916 16.14765291 -0.99265532 11.6017386 -0.83984375 6.64453125 C-0.71626465 3.8416896 -0.71626465 3.8416896 -3 2 C-2.01 2 -1.02 2 0 2 C0 1.34 0 0.68 0 0 Z " fill="#201F1F" transform="translate(434,270)"/>
<path d="M0 0 C0.66 0 1.32 0 2 0 C2 5.28 2 10.56 2 16 C1.01 16 0.02 16 -1 16 C-1.02685095 13.52076199 -1.04676547 11.0418116 -1.0625 8.5625 C-1.07506836 7.50192383 -1.07506836 7.50192383 -1.08789062 6.41992188 C-1.09653588 4.61306441 -1.05220011 2.80612397 -1 1 C-0.67 0.67 -0.34 0.34 0 0 Z " fill="#2A2A2A" transform="translate(352,273)"/>
<path d="M0 0 C7.30434783 -0.36521739 7.30434783 -0.36521739 10.5 1.3125 C12 3 12 3 12 6 C10.68 6 9.36 6 8 6 C7.67 5.34 7.34 4.68 7 4 C6.071875 4 5.14375 4 4.1875 4 C2.125 4 0.0625 4 -2 4 C-1.34 2.68 -0.68 1.36 0 0 Z " fill="#454545" transform="translate(938,270)"/>
<path d="M0 0 C1.32 0 2.64 0 4 0 C4.66 0.99 5.32 1.98 6 3 C8.64 2.67 11.28 2.34 14 2 C14.33 2.99 14.66 3.98 15 5 C12.5558206 6.2220897 10.78970128 6.23641068 8.0625 6.3125 C6.74958984 6.36857422 6.74958984 6.36857422 5.41015625 6.42578125 C3 6 3 6 1.18359375 4.10546875 C0 2 0 2 0 0 Z " fill="#3A3A3A" transform="translate(531,283)"/>
<path d="M0 0 C5.625 -0.25 5.625 -0.25 9 2 C9.66 1.67 10.32 1.34 11 1 C11 2.98 11 4.96 11 7 C8.875 7.4375 8.875 7.4375 6 7 C3.723853 4.87310854 1.8541278 2.4976567 0 0 Z " fill="#334483" transform="translate(190,251)"/>
<path d="M0 0 C2.625 0.375 2.625 0.375 5 1 C5.33 2.65 5.66 4.3 6 6 C3.03 6 0.06 6 -3 6 C-2 2 -2 2 0 0 Z " fill="#D4D2D3" transform="translate(615,272)"/>
<path d="M0 0 C0.33 0 0.66 0 1 0 C1.16767864 1.95824694 1.33411205 3.91660055 1.5 5.875 C1.5928125 6.96554687 1.685625 8.05609375 1.78125 9.1796875 C1.90562958 10.78329564 2 12.39157551 2 14 C2.99 14 3.98 14 5 14 C4.67 14.99 4.34 15.98 4 17 C1 15.4375 1 15.4375 -2 13 C-2.71163842 8.19644066 -1.74838838 4.48024523 0 0 Z " fill="#48BEC0" transform="translate(102,267)"/>
<path d="M0 0 C0.99 0.33 1.98 0.66 3 1 C2.625 2.9375 2.625 2.9375 2 5 C-1.21451269 6.60725635 -4.43612536 6.05748185 -8 6 C-8.33 4.68 -8.66 3.36 -9 2 C-6.36 2 -3.72 2 -1 2 C-0.67 1.34 -0.34 0.68 0 0 Z " fill="#3C3B3B" transform="translate(1067,291)"/>
<path d="M0 0 C0.391875 0.495 0.78375 0.99 1.1875 1.5 C3.59236204 3.49023066 4.94162912 3.22378324 8 3 C9.32 3 10.64 3 12 3 C12 3.66 12 4.32 12 5 C8.56928684 6.71535658 4.75941181 6.4006478 1 6 C-1.5625 4.5 -1.5625 4.5 -3 3 C-2.67 2.34 -2.34 1.68 -2 1 C-1.34 1.33 -0.68 1.66 0 2 C0 1.34 0 0.68 0 0 Z " fill="#393838" transform="translate(612,283)"/>
<path d="M0 0 C1.67542976 0.28604898 3.34385343 0.61781233 5 1 C5.33 2.65 5.66 4.3 6 6 C3.03 6 0.06 6 -3 6 C-1.125 1.125 -1.125 1.125 0 0 Z " fill="#D6D6D6" transform="translate(537,272)"/>
<path d="M0 0 C0.66 0.66 1.32 1.32 2 2 C1.625 5.125 1.625 5.125 1 8 C0.67 8 0.34 8 0 8 C0 6.35 0 4.7 0 3 C-3.3 3.66 -6.6 4.32 -10 5 C-9.67 3.68 -9.34 2.36 -9 1 C-5.98675805 -0.50662097 -3.31713623 -0.17770373 0 0 Z " fill="#3C3C3C" transform="translate(370,270)"/>
<path d="M0 0 C1.5 1.3125 1.5 1.3125 3 3 C3 3.99 3 4.98 3 6 C-6.57 6 -16.14 6 -26 6 C-26 5.67 -26 5.34 -26 5 C-17.75 5 -9.5 5 -1 5 C-0.67 3.35 -0.34 1.7 0 0 Z " fill="#3D4A81" transform="translate(451,226)"/>
<path d="M0 0 C0.33 0 0.66 0 1 0 C1 3.96 1 7.92 1 12 C2.32 12 3.64 12 5 12 C5 12.99 5 13.98 5 15 C3.33388095 15.042721 1.66617115 15.04063832 0 15 C-1 14 -1 14 -1.1328125 11.09375 C-1.13023437 9.9078125 -1.12765625 8.721875 -1.125 7.5 C-1.12757813 6.3140625 -1.13015625 5.128125 -1.1328125 3.90625 C-1 1 -1 1 0 0 Z " fill="#272727" transform="translate(382,274)"/>
<path d="M0 0 C6.3833448 -0.48176187 6.3833448 -0.48176187 9 1.5625 C10.41694272 5.01629789 9.87594988 7.42881972 9 11 C8.01 11.495 8.01 11.495 7 12 C5.39660152 8.88228073 4.81025859 7.60988311 5.875 4.1875 C6.431875 3.1046875 6.431875 3.1046875 7 2 C4.69 1.67 2.38 1.34 0 1 C0 0.67 0 0.34 0 0 Z " fill="#E7EEF9" transform="translate(192,2)"/>
<path d="M0 0 C0.99 0 1.98 0 3 0 C3 4.29 3 8.58 3 13 C2.01 13 1.02 13 0 13 C0 8.71 0 4.42 0 0 Z " fill="#232323" transform="translate(975,270)"/>
<path d="M0 0 C0.99 0 1.98 0 3 0 C3 4.29 3 8.58 3 13 C2.01 13 1.02 13 0 13 C0 8.71 0 4.42 0 0 Z " fill="#262626" transform="translate(903,270)"/>
<path d="M0 0 C0.66 0.33 1.32 0.66 2 1 C1.98839844 1.80824219 1.97679687 2.61648438 1.96484375 3.44921875 C1.95582031 4.51785156 1.94679688 5.58648437 1.9375 6.6875 C1.92589844 7.74324219 1.91429687 8.79898437 1.90234375 9.88671875 C1.99134575 12.72410262 2.35060162 15.2438919 3 18 C1.68 17.34 0.36 16.68 -1 16 C-1.02685095 13.52076199 -1.04676547 11.0418116 -1.0625 8.5625 C-1.07506836 7.50192383 -1.07506836 7.50192383 -1.08789062 6.41992188 C-1.09653588 4.61306441 -1.05220011 2.80612397 -1 1 C-0.67 0.67 -0.34 0.34 0 0 Z " fill="#232323" transform="translate(665,269)"/>
<path d="M0 0 C3.52773771 0.50396253 4.97220555 1.07331733 7.5 3.5 C7.17 4.16 6.84 4.82 6.5 5.5 C5.51 5.83 4.52 6.16 3.5 6.5 C3.5 5.51 3.5 4.52 3.5 3.5 C-0.58718695 3.25957724 -3.67679443 4.07741188 -7.5 5.5 C-5.23191499 1.87106398 -4.33795924 0.61970846 0 0 Z " fill="#373737" transform="translate(538.5,269.5)"/>
<path d="M0 0 C3.60513403 2.06007659 6.80331012 4.3513141 10 7 C9.67 8.32 9.34 9.64 9 11 C9 10.01 9 9.02 9 8 C7.865625 7.690625 6.73125 7.38125 5.5625 7.0625 C2 6 2 6 1 5 C0.34 5.66 -0.32 6.32 -1 7 C-0.67 4.69 -0.34 2.38 0 0 Z " fill="#314381" transform="translate(210,224)"/>
<path d="M0 0 C1.32 0.66 2.64 1.32 4 2 C3.67 2.99 3.34 3.98 3 5 C3.99 4.67 4.98 4.34 6 4 C6.66 5.65 7.32 7.3 8 9 C4.36804504 9 3.25286089 8.04546845 0.3125 6 C-0.49574219 5.443125 -1.30398437 4.88625 -2.13671875 4.3125 C-2.75160156 3.879375 -3.36648437 3.44625 -4 3 C-2.68 2.67 -1.36 2.34 0 2 C0 1.34 0 0.68 0 0 Z " fill="#384780" transform="translate(149,40)"/>
<path d="M0 0 C0.33 0 0.66 0 1 0 C1.33 1.65 1.66 3.3 2 5 C2.66 4.01 3.32 3.02 4 2 C4.309375 3.11375 4.61875 4.2275 4.9375 5.375 C5.82326483 8.7945155 5.82326483 8.7945155 7 11 C6.67 11.66 6.34 12.32 6 13 C3 12 3 12 1.3125 9.875 C-0.274286 6.39918304 -0.2222986 3.77907627 0 0 Z " fill="#484848" transform="translate(306,276)"/>
<path d="M0 0 C0.33 0 0.66 0 1 0 C1.33 2.64 1.66 5.28 2 8 C2.99 8.33 3.98 8.66 5 9 C3.68 9.99 2.36 10.98 1 12 C0.34 11.67 -0.32 11.34 -1 11 C-1.484375 9.00390625 -1.484375 9.00390625 -1.75 6.5625 C-1.84796875 5.75941406 -1.9459375 4.95632813 -2.046875 4.12890625 C-2 2 -2 2 0 0 Z " fill="#252324" transform="translate(850,266)"/>
<path d="M0 0 C0.66 0.33 1.32 0.66 2 1 C-3.60523001 6.07515796 -9.23225279 11.10995345 -15 16 C-15.66 15.67 -16.32 15.34 -17 15 C-11.70317171 9.44338176 -6.16853533 4.56928543 0 0 Z " fill="#D8E1F2" transform="translate(73,241)"/>
<path d="M0 0 C-0.144375 0.66 -0.28875 1.32 -0.4375 2 C-1.12299916 5.65599551 -1.56175515 9.30622195 -2 13 C-2.33 13 -2.66 13 -3 13 C-3.33 11.02 -3.66 9.04 -4 7 C-4.33 8.65 -4.66 10.3 -5 12 C-5.33 12 -5.66 12 -6 12 C-5.91253716 10.56138706 -5.80434652 9.12402492 -5.6875 7.6875 C-5.62949219 6.88699219 -5.57148437 6.08648437 -5.51171875 5.26171875 C-4.78420948 2.04623884 -3.45396859 0 0 0 Z " fill="#484848" transform="translate(691,270)"/>
<path d="M0 0 C1.67542976 0.28604898 3.34385343 0.61781233 5 1 C5 2.32 5 3.64 5 5 C3.35 5.66 1.7 6.32 0 7 C-0.38133299 5.0085944 -0.71325582 3.00720923 -1 1 C-0.67 0.67 -0.34 0.34 0 0 Z " fill="#ECEAEB" transform="translate(852,266)"/>
<path d="M0 0 C0.33 0.66 0.66 1.32 1 2 C0.34 2 -0.32 2 -1 2 C-1 2.66 -1 3.32 -1 4 C-2.375 5.625 -2.375 5.625 -4 7 C-4.66 7 -5.32 7 -6 7 C-6.33 7.99 -6.66 8.98 -7 10 C-8.65 10 -10.3 10 -12 10 C-8.29909479 6.0747975 -4.45040344 3.05419844 0 0 Z " fill="#394982" transform="translate(56,211)"/>
<path d="M0 0 C1.64666203 0.1135629 3.29236082 0.24117381 4.9375 0.375 C5.85402344 0.44460937 6.77054688 0.51421875 7.71484375 0.5859375 C8.84599609 0.79089844 8.84599609 0.79089844 10 1 C10.33 1.66 10.66 2.32 11 3 C13.01669827 4.13350534 13.01669827 4.13350534 15 5 C15 5.66 15 6.32 15 7 C9.80355921 5.40109514 4.93387858 3.25861997 0 1 C0 0.67 0 0.34 0 0 Z " fill="#445287" transform="translate(159,232)"/>
<path d="M0 0 C0.66 0.99 1.32 1.98 2 3 C5.05429073 4.21284876 5.05429073 4.21284876 8 5 C7.67 5.99 7.34 6.98 7 8 C4.03 7.01 1.06 6.02 -2 5 C-2 4.01 -2 3.02 -2 2 C-1.34 2 -0.68 2 0 2 C0 1.34 0 0.68 0 0 Z " fill="#414141" transform="translate(730,274)"/>
<path d="M0 0 C0.99 0 1.98 0 3 0 C3.66 0.99 4.32 1.98 5 3 C7.56282742 3.72965366 7.56282742 3.72965366 10 4 C10 4.66 10 5.32 10 6 C3.539801 6.36567164 3.539801 6.36567164 1.0625 4.6875 C0 3 0 3 0 0 Z " fill="#2E2D2E" transform="translate(628,283)"/>
<path d="M0 0 C1.32 0.66 2.64 1.32 4 2 C3.67 2.66 3.34 3.32 3 4 C2.76827173 6.54615009 2.58105471 9.07396225 2.4375 11.625 C2.39431641 12.33140625 2.35113281 13.0378125 2.30664062 13.765625 C2.20055249 15.51018537 2.09977111 17.25506697 2 19 C1.67 19 1.34 19 1 19 C1 13.72 1 8.44 1 3 C-0.65 3 -2.3 3 -4 3 C-2.68 2.67 -1.36 2.34 0 2 C0 1.34 0 0.68 0 0 Z " fill="#646464" transform="translate(349,270)"/>
<path d="M0 0 C0.33 0 0.66 0 1 0 C1 4.62 1 9.24 1 14 C0.34 13.67 -0.32 13.34 -1 13 C-2.17611086 8.00152882 -1.96237913 4.73279673 0 0 Z " fill="#1F1F1F" transform="translate(831,278)"/>
<path d="M0 0 C0.33 0 0.66 0 1 0 C1 3.63 1 7.26 1 11 C0.01 10.67 -0.98 10.34 -2 10 C-2.1953125 3.9453125 -2.1953125 3.9453125 -2 2 C-1.34 1.34 -0.68 0.68 0 0 Z " fill="#202020" transform="translate(956,274)"/>
<path d="M0 0 C0.66 0 1.32 0 2 0 C2.103125 0.639375 2.20625 1.27875 2.3125 1.9375 C2.539375 2.618125 2.76625 3.29875 3 4 C3.99 4.33 4.98 4.66 6 5 C6 5.99 6 6.98 6 8 C4.33388095 8.042721 2.66617115 8.04063832 1 8 C0 7 0 7 -0.0625 3.4375 C-0.041875 2.303125 -0.02125 1.16875 0 0 Z " fill="#2D2D2D" transform="translate(925,281)"/>
<path d="M0 0 C5.75 0.875 5.75 0.875 8 2 C7.67 2.99 7.34 3.98 7 5 C2.545 4.01 2.545 4.01 -2 3 C-1.34 2.67 -0.68 2.34 0 2 C0 1.34 0 0.68 0 0 Z " fill="#3B3B3B" transform="translate(515,274)"/>
<path d="M0 0 C3.83264178 1.5056807 5.537762 3.76831262 8 7 C9.31494512 8.35147138 10.64264858 9.69112542 12 11 C11.01 11 10.02 11 9 11 C9 10.34 9 9.68 9 9 C8.443125 8.7525 7.88625 8.505 7.3125 8.25 C4.55839521 6.76129471 2.30825486 5.11590028 0 3 C0 2.01 0 1.02 0 0 Z " fill="#3A487D" transform="translate(70,129)"/>
<path d="M0 0 C1.32 0 2.64 0 4 0 C4.33 0.99 4.66 1.98 5 3 C5.66 3.33 6.32 3.66 7 4 C7 4.99 7 5.98 7 7 C4.20171644 6.61402985 3.1794116 6.19863427 1.25 4.0625 C0 2 0 2 0 0 Z " fill="#373737" transform="translate(508,282)"/>
<path d="M0 0 C0.33 0 0.66 0 1 0 C1.08071788 2.79224073 1.14035408 5.58216566 1.1875 8.375 C1.22520508 9.56609375 1.22520508 9.56609375 1.26367188 10.78125 C1.29004405 12.85586148 1.15486462 14.93100865 1 17 C0.01 17.66 -0.98 18.32 -2 19 C-2 18.34 -2 17.68 -2 17 C-3.32 16.67 -4.64 16.34 -6 16 C-4.35 15.67 -2.7 15.34 -1 15 C-0.67 10.05 -0.34 5.1 0 0 Z " fill="#767676" transform="translate(914,270)"/>
<path d="M0 0 C0.99 0.33 1.98 0.66 3 1 C3 1.99 3 2.98 3 4 C8.61 4 14.22 4 20 4 C20 4.33 20 4.66 20 5 C14.06 5 8.12 5 2 5 C1.34 3.35 0.68 1.7 0 0 Z " fill="#39477D" transform="translate(523,227)"/>
<path d="M0 0 C0.99 0 1.98 0 3 0 C2.51421457 3.12290635 2.0013988 5.99580359 1 9 C0.01 9 -0.98 9 -2 9 C-1.34 6.03 -0.68 3.06 0 0 Z " fill="#3F3F3F" transform="translate(647,285)"/>
<path d="M0 0 C2.625 0.25 2.625 0.25 4.4375 1.5625 C5.625 3.25 5.625 3.25 5.625 6.25 C4.635 6.25 3.645 6.25 2.625 6.25 C1.965 5.26 1.305 4.27 0.625 3.25 C-1.42503955 2.05767387 -1.42503955 2.05767387 -3.375 1.25 C-2.375 0.25 -2.375 0.25 0 0 Z " fill="#292929" transform="translate(1016.375,269.75)"/>
<path d="M0 0 C0.7425 0.598125 1.485 1.19625 2.25 1.8125 C2.25 2.8025 2.25 3.7925 2.25 4.8125 C0.93 4.8125 -0.39 4.8125 -1.75 4.8125 C-2.08 4.1525 -2.41 3.4925 -2.75 2.8125 C-4.76669827 1.67899466 -4.76669827 1.67899466 -6.75 0.8125 C-3.94139355 -1.16392676 -3.24864032 -1.40282196 0 0 Z " fill="#545354" transform="translate(640.75,271.1875)"/>
<path d="M0 0 C3 1 3 1 6 3 C4.824375 3.1546875 4.824375 3.1546875 3.625 3.3125 C0.66954819 3.77595022 0.66954819 3.77595022 -1 7 C-1.33 6.34 -1.66 5.68 -2 5 C-2.99 5.495 -2.99 5.495 -4 6 C-2.25 1.125 -2.25 1.125 0 0 Z " fill="#4E4E4E" transform="translate(1011,270)"/>
<path d="M0 0 C1.134375 0.020625 2.26875 0.04125 3.4375 0.0625 C3.1075 1.3825 2.7775 2.7025 2.4375 4.0625 C0.1275 4.0625 -2.1825 4.0625 -4.5625 4.0625 C-4.5625 -0.28271095 -4.43767807 0.077854 0 0 Z " fill="#3E3E3E" transform="translate(805.5625,269.9375)"/>
<path d="M0 0 C0.66 0 1.32 0 2 0 C1.67 1.65 1.34 3.3 1 5 C0.34 5 -0.32 5 -1 5 C-1.66 7.64 -2.32 10.28 -3 13 C-3.33 13 -3.66 13 -4 13 C-4.45374191 7.32822615 -3.65083143 4.4024732 0 0 Z " fill="#525252" transform="translate(593,270)"/>
<path d="M0 0 C0.66 0.33 1.32 0.66 2 1 C2 4 2 4 0.6875 5.6875 C-1 7 -1 7 -4 7 C-2.92598892 4.08482708 -2.22189824 2.22189824 0 0 Z " fill="#393939" transform="translate(882,264)"/>
<path d="M0 0 C0.99 0.33 1.98 0.66 3 1 C3.33 2.98 3.66 4.96 4 7 C2.68 7 1.36 7 0 7 C-1.125 2.25 -1.125 2.25 0 0 Z " fill="#4D4D4D" transform="translate(678,265)"/>
<path d="M0 0 C-0.33 0.99 -0.66 1.98 -1 3 C-2.84765625 3.73046875 -2.84765625 3.73046875 -5.0625 4.1875 C-5.79597656 4.34605469 -6.52945313 4.50460937 -7.28515625 4.66796875 C-8.13400391 4.83232422 -8.13400391 4.83232422 -9 5 C-8.625 3.0625 -8.625 3.0625 -8 1 C-5.29120665 -0.35439668 -2.99066732 -0.06501451 0 0 Z " fill="#363636" transform="translate(857,263)"/>
<path d="M0 0 C2.475 0.495 2.475 0.495 5 1 C5.33 3.31 5.66 5.62 6 8 C5.67 7.01 5.34 6.02 5 5 C3.35 5 1.7 5 0 5 C0 3.35 0 1.7 0 0 Z " fill="#41C1C5" transform="translate(129,233)"/>
<path d="M0 0 C2.40804568 2.40804568 3.00768759 4.42203775 4.125 7.625 C4.47820313 8.62789062 4.83140625 9.63078125 5.1953125 10.6640625 C5.46085938 11.43492187 5.72640625 12.20578125 6 13 C5.34 13 4.68 13 4 13 C1.04952165 8.38987758 -0.5497272 5.63470383 0 0 Z " fill="#414F85" transform="translate(523,174)"/>
<path d="M0 0 C2.31 0.33 4.62 0.66 7 1 C6.34 2.32 5.68 3.64 5 5 C3.68 5 2.36 5 1 5 C0.67 3.35 0.34 1.7 0 0 Z " fill="#7B8AAD" transform="translate(192,3)"/>
<path d="M0 0 C2.9375 1.3125 2.9375 1.3125 6 3 C6.33 3.99 6.66 4.98 7 6 C1.46153846 5.38461538 1.46153846 5.38461538 -0.875 3.4375 C-1.24625 2.963125 -1.6175 2.48875 -2 2 C-1.34 1.34 -0.68 0.68 0 0 Z " fill="#404040" transform="translate(957,284)"/>
<path d="M0 0 C0.33 0 0.66 0 1 0 C1 3.3 1 6.6 1 10 C0.01 9.67 -0.98 9.34 -2 9 C-2.125 5.625 -2.125 5.625 -2 2 C-1.34 1.34 -0.68 0.68 0 0 Z " fill="#1E1E1E" transform="translate(1009,274)"/>
<path d="M0 0 C0.33 0 0.66 0 1 0 C1 3.3 1 6.6 1 10 C0.34 10 -0.32 10 -1 10 C-2.25 3.375 -2.25 3.375 0 0 Z " fill="#E8EEF6" transform="translate(190,3)"/>
<path d="M0 0 C0.99 0.33 1.98 0.66 3 1 C4.1875 3.5625 4.1875 3.5625 5 6 C3.68 6 2.36 6 1 6 C0.34 4.35 -0.32 2.7 -1 1 C-0.67 0.67 -0.34 0.34 0 0 Z " fill="#3F3F3F" transform="translate(1008,282)"/>
<path d="M0 0 C0.33 0 0.66 0 1 0 C1.33 3.3 1.66 6.6 2 10 C1.01 10 0.02 10 -1 10 C-1.02689216 8.52093108 -1.04634621 7.04172517 -1.0625 5.5625 C-1.07410156 4.73878906 -1.08570313 3.91507812 -1.09765625 3.06640625 C-1 1 -1 1 0 0 Z " fill="#242223" transform="translate(1057,276)"/>
<path d="M0 0 C0 1.65 0 3.3 0 5 C0.66 5.33 1.32 5.66 2 6 C0.125 6.625 0.125 6.625 -2 7 C-2.66 6.34 -3.32 5.68 -4 5 C-4 4.01 -4 3.02 -4 2 C-1 0 -1 0 0 0 Z " fill="#343434" transform="translate(939,272)"/>
<path d="M0 0 C0.99 0.33 1.98 0.66 3 1 C4.125 3.875 4.125 3.875 5 7 C5.33 7.99 5.66 8.98 6 10 C5.01 10 4.02 10 3 10 C0 3.375 0 3.375 0 0 Z " fill="#32437C" transform="translate(513,203)"/>
<path d="M0 0 C2.97 0.495 2.97 0.495 6 1 C5.67 2.65 5.34 4.3 5 6 C3.2925002 4.71937515 1.62626404 3.38232443 0 2 C0 1.34 0 0.68 0 0 Z " fill="#34447C" transform="translate(48,154)"/>
<path d="M0 0 C0.99 0.33 1.98 0.66 3 1 C2.1875 2.9375 2.1875 2.9375 1 5 C0.01 5.33 -0.98 5.66 -2 6 C-2 5.34 -2 4.68 -2 4 C-3.65 4 -5.3 4 -7 4 C-7 3.67 -7 3.34 -7 3 C-3.535 2.505 -3.535 2.505 0 2 C0 1.34 0 0.68 0 0 Z " fill="#494949" transform="translate(893,283)"/>
<path d="M0 0 C1.53202706 0.25195908 3.05257128 0.57596777 4.5625 0.9375 C5.38878906 1.13214844 6.21507812 1.32679688 7.06640625 1.52734375 C8.02353516 1.76130859 8.02353516 1.76130859 9 2 C8.67 2.66 8.34 3.32 8 4 C4.625 4.1875 4.625 4.1875 1 4 C0.34 3.01 -0.32 2.02 -1 1 C-0.67 0.67 -0.34 0.34 0 0 Z " fill="#272727" transform="translate(423,285)"/>
<path d="M0 0 C1.32 0 2.64 0 4 0 C5.0625 1.875 5.0625 1.875 6 4 C5.67 4.66 5.34 5.32 5 6 C3.0625 5.25 3.0625 5.25 1 4 C0.25 1.875 0.25 1.875 0 0 Z " fill="#424242" transform="translate(726,283)"/>
<path d="M0 0 C0.33 0.66 0.66 1.32 1 2 C1.66 2 2.32 2 3 2 C3 4.64 3 7.28 3 10 C2.67 10 2.34 10 2 10 C1.67 8.02 1.34 6.04 1 4 C0.67 6.31 0.34 8.62 0 11 C-0.33 11 -0.66 11 -1 11 C-1.0270043 9.54176788 -1.04639787 8.08339325 -1.0625 6.625 C-1.07410156 5.81289063 -1.08570313 5.00078125 -1.09765625 4.1640625 C-1 2 -1 2 0 0 Z " fill="#626161" transform="translate(1056,273)"/>
<path d="M0 0 C2.0625 0.4375 2.0625 0.4375 4 1 C4 1.66 4 2.32 4 3 C2.02 3.99 0.04 4.98 -2 6 C-1.125 1.125 -1.125 1.125 0 0 Z " fill="#384781" transform="translate(78,234)"/>
<path d="M0 0 C0.33 0 0.66 0 1 0 C1.33 2.64 1.66 5.28 2 8 C1.34 8 0.68 8 0 8 C-0.33 8.66 -0.66 9.32 -1 10 C-1.66 9.67 -2.32 9.34 -3 9 C-2.01 6.03 -1.02 3.06 0 0 Z " fill="#44538B" transform="translate(548,163)"/>
<path d="M0 0 C0.33 0.66 0.66 1.32 1 2 C0.22265625 3.9453125 0.22265625 3.9453125 -0.9375 6.125 C-1.31777344 6.84945312 -1.69804687 7.57390625 -2.08984375 8.3203125 C-2.39019531 8.87460938 -2.69054687 9.42890625 -3 10 C-3.99 10 -4.98 10 -6 10 C-4.34832443 6.4213696 -2.21713508 3.25179812 0 0 Z " fill="#3A497F" transform="translate(166,123)"/>
<path d="M0 0 C0.33 0.66 0.66 1.32 1 2 C1.66 2 2.32 2 3 2 C1.95125002 4.62187494 1.35068687 5.79371361 -1.125 7.25 C-1.74375 7.4975 -2.3625 7.745 -3 8 C-1.125 2.25 -1.125 2.25 0 0 Z " fill="#364989" transform="translate(170,115)"/>
<path d="M0 0 C1.32 0.33 2.64 0.66 4 1 C4 1.66 4 2.32 4 3 C4.66 3.33 5.32 3.66 6 4 C5.67 4.66 5.34 5.32 5 6 C3.0625 5.25 3.0625 5.25 1 4 C0.25 1.875 0.25 1.875 0 0 Z " fill="#393939" transform="translate(935,283)"/>
<path d="M0 0 C0.33 0 0.66 0 1 0 C1.33 3.3 1.66 6.6 2 10 C1.01 9.67 0.02 9.34 -1 9 C-1.09765625 2.84765625 -1.09765625 2.84765625 -1 1 C-0.67 0.67 -0.34 0.34 0 0 Z " fill="#222222" transform="translate(687,276)"/>
<path d="M0 0 C1.98 0.66 3.96 1.32 6 2 C6 2.33 6 2.66 6 3 C5.21625 3.12375 4.4325 3.2475 3.625 3.375 C0.85942178 3.79117993 0.85942178 3.79117993 -1 6 C-1.99 6 -2.98 6 -4 6 C-2.84826645 3.53199953 -1.95216435 1.95216435 0 0 Z " fill="#4A4A4A" transform="translate(958,270)"/>
<path d="M0 0 C1.57554035 2.88628401 2.46276373 5.53342384 3.125 8.75 C3.29257813 9.54921875 3.46015625 10.3484375 3.6328125 11.171875 C3.81457031 12.07679688 3.81457031 12.07679688 4 13 C3.34 13 2.68 13 2 13 C-0.24828052 8.50343896 -0.16682272 4.92127034 0 0 Z " fill="#57C2C5" transform="translate(135,241)"/>
<path d="M0 0 C0.99 0.33 1.98 0.66 3 1 C0.36 2.98 -2.28 4.96 -5 7 C-5.33 6.34 -5.66 5.68 -6 5 C-5.34 5 -4.68 5 -4 5 C-4.33 4.01 -4.66 3.02 -5 2 C-3.35 2 -1.7 2 0 2 C0 1.34 0 0.68 0 0 Z " fill="#44BBBC" transform="translate(135,283)"/>
<path d="M0 0 C1.31223496 3.93670488 0.24296256 6.12488144 -1 10 C-3 8 -3 8 -3.3125 5.5625 C-2.95209822 2.60720543 -2.28773145 1.81112073 0 0 Z " fill="#232323" transform="translate(820,273)"/>
<path d="M0 0 C1.47118907 3.82509158 0.45442741 6.28312995 -1 10 C-1.33 10.66 -1.66 11.32 -2 12 C-2.66 12 -3.32 12 -4 12 C-2.66666667 8 -1.33333333 4 0 0 Z " fill="#435085" transform="translate(539,184)"/>
<path d="M0 0 C1.32 0.66 2.64 1.32 4 2 C2.02 3.32 0.04 4.64 -2 6 C-2.66 5.67 -3.32 5.34 -4 5 C-3 2 -3 2 0 0 Z " fill="#3A4982" transform="translate(434,178)"/>
<path d="M0 0 C2.76223278 2.76223278 2.57856291 5.20706617 3 9 C2.01 9.33 1.02 9.66 0 10 C0 6.7 0 3.4 0 0 Z " fill="#3B4A81" transform="translate(59,105)"/>
<path d="M0 0 C2.97 0.33 5.94 0.66 9 1 C8.67 1.66 8.34 2.32 8 3 C5.36 3 2.72 3 0 3 C0 2.01 0 1.02 0 0 Z " fill="#313131" transform="translate(819,293)"/>
<path d="M0 0 C1.5 1.3125 1.5 1.3125 3 3 C3 3.99 3 4.98 3 6 C0.525 5.01 0.525 5.01 -2 4 C-2 3.01 -2 2.02 -2 1 C-1.34 1.33 -0.68 1.66 0 2 C0 1.34 0 0.68 0 0 Z " fill="#494748" transform="translate(612,283)"/>
<path d="M0 0 C0.33 0 0.66 0 1 0 C1.12375 0.804375 1.2475 1.60875 1.375 2.4375 C1.58125 3.283125 1.7875 4.12875 2 5 C2.66 5.33 3.32 5.66 4 6 C3.34 7.32 2.68 8.64 2 10 C1.34 9.67 0.68 9.34 0 9 C0 6.03 0 3.06 0 0 Z " fill="#585858" transform="translate(698,276)"/>
<path d="M0 0 C1.32 0.33 2.64 0.66 4 1 C3.01 1 2.02 1 1 1 C1.33 2.65 1.66 4.3 2 6 C1.34 6 0.68 6 0 6 C0 6.66 0 7.32 0 8 C-0.99 8 -1.98 8 -3 8 C-3 7.01 -3 6.02 -3 5 C-2.01 5 -1.02 5 0 5 C0 3.35 0 1.7 0 0 Z " fill="#5F5E5E" transform="translate(776,265)"/>
<path d="M0 0 C2.31 0.33 4.62 0.66 7 1 C7 1.99 7 2.98 7 4 C4.36 3.34 1.72 2.68 -1 2 C-0.67 1.34 -0.34 0.68 0 0 Z " fill="#262626" transform="translate(671,263)"/>
<path d="M0 0 C0 3 0 3 -2 5.1875 C-2.66 5.785625 -3.32 6.38375 -4 7 C-4.99 6.67 -5.98 6.34 -7 6 C-4.69 4.02 -2.38 2.04 0 0 Z " fill="#3D4986" transform="translate(43,221)"/>
<path d="M0 0 C1.65 0 3.3 0 5 0 C5.33 0.99 5.66 1.98 6 3 C4.02 3.33 2.04 3.66 0 4 C0 2.68 0 1.36 0 0 Z " fill="#E5ECFA" transform="translate(393,187)"/>
<path d="M0 0 C1.98 0 3.96 0 6 0 C6.33 1.65 6.66 3.3 7 5 C6.01 5 5.02 5 4 5 C1.8125 2.5 1.8125 2.5 0 0 Z " fill="#415189" transform="translate(156,50)"/>
<path d="M0 0 C0.66 0 1.32 0 2 0 C2.66 1.65 3.32 3.3 4 5 C2.68 5.33 1.36 5.66 0 6 C-0.38218767 4.34385343 -0.71395102 2.67542976 -1 1 C-0.67 0.67 -0.34 0.34 0 0 Z " fill="#313131" transform="translate(276,282)"/>
<path d="M0 0 C3.96 1.98 3.96 1.98 8 4 C7.34 4.66 6.68 5.32 6 6 C4.02 5.01 2.04 4.02 0 3 C0 2.01 0 1.02 0 0 Z " fill="#414F86" transform="translate(75,173)"/>
<path d="M0 0 C1 3 1 3 0 6 C-1.9375 6.8125 -1.9375 6.8125 -4 7 C-4.66 6.34 -5.32 5.68 -6 5 C-4.02 3.35 -2.04 1.7 0 0 Z " fill="#374984" transform="translate(157,134)"/>
<path d="M0 0 C1.32 0.66 2.64 1.32 4 2 C3.67 2.66 3.34 3.32 3 4 C0.69 3.67 -1.62 3.34 -4 3 C-2.68 2.67 -1.36 2.34 0 2 C0 1.34 0 0.68 0 0 Z " fill="#33448C" transform="translate(149,40)"/>
<path d="M0 0 C1.485 0.99 1.485 0.99 3 2 C3 2.99 3 3.98 3 5 C3.66 5.33 4.32 5.66 5 6 C3.35 5.67 1.7 5.34 0 5 C-0.33 4.01 -0.66 3.02 -1 2 C-0.67 1.34 -0.34 0.68 0 0 Z " fill="#494748" transform="translate(1059,284)"/>
<path d="M0 0 C0.99 0 1.98 0 3 0 C2.67 2.31 2.34 4.62 2 7 C1.01 6.34 0.02 5.68 -1 5 C-0.67 3.35 -0.34 1.7 0 0 Z " fill="#3D3B3C" transform="translate(862,277)"/>
<path d="M0 0 C0.66 0.33 1.32 0.66 2 1 C2 4.10551666 1.4606285 5.35261084 0 8 C0 6.68 0 5.36 0 4 C-0.66 4 -1.32 4 -2 4 C-1.34 2.68 -0.68 1.36 0 0 Z " fill="#464545" transform="translate(848,276)"/>
<path d="M0 0 C0.99 0 1.98 0 3 0 C2.67 1.65 2.34 3.3 2 5 C1.01 5.33 0.02 5.66 -1 6 C-0.67 4.02 -0.34 2.04 0 0 Z " fill="#313131" transform="translate(728,271)"/>
<path d="M0 0 C1.32 0.33 2.64 0.66 4 1 C4 1.99 4 2.98 4 4 C3.34 4 2.68 4 2 4 C1.67 4.66 1.34 5.32 1 6 C0.67 4.02 0.34 2.04 0 0 Z " fill="#444444" transform="translate(562,270)"/>
<path d="M0 0 C1.98 0 3.96 0 6 0 C6 0.99 6 1.98 6 3 C4.35 3.33 2.7 3.66 1 4 C0.67 2.68 0.34 1.36 0 0 Z " fill="#3A3A3A" transform="translate(553,270)"/>
<path d="M0 0 C1.98 0 3.96 0 6 0 C6 0.99 6 1.98 6 3 C4.35 3.33 2.7 3.66 1 4 C0.67 2.68 0.34 1.36 0 0 Z " fill="#3A3A3A" transform="translate(998,270)"/>
<path d="M0 0 C0.99 0.33 1.98 0.66 3 1 C2.34 2.32 1.68 3.64 1 5 C0.01 5 -0.98 5 -2 5 C-1.125 1.125 -1.125 1.125 0 0 Z " fill="#323131" transform="translate(1059,270)"/>
<path d="M0 0 C0.33 0.66 0.66 1.32 1 2 C-0.32 3.65 -1.64 5.3 -3 7 C-3.99 6.67 -4.98 6.34 -6 6 C-4.02 4.02 -2.04 2.04 0 0 Z " fill="#3E4A86" transform="translate(35,228)"/>
<path d="M0 0 C3.465 1.98 3.465 1.98 7 4 C6.67 4.66 6.34 5.32 6 6 C4.125 5.8125 4.125 5.8125 2 5 C0.75 2.4375 0.75 2.4375 0 0 Z " fill="#384783" transform="translate(199,215)"/>
</svg>
