<?xml version="1.0" encoding="UTF-8"?>
<svg version="1.1" xmlns="http://www.w3.org/2000/svg" width="1300" height="363">
<path d="M0 0 C3.34673476 1.62523263 6.74263343 3.14035225 10.1328125 4.67236328 C15.30206975 7.01911383 20.44207035 9.4288294 25.58789062 11.82641602 C36.14327434 16.73349151 46.71072422 21.61388429 57.29321289 26.46224976 C58.8031445 27.15426158 60.31275648 27.84697132 61.82202148 28.54043579 C69.69024558 32.15454146 77.55914648 35.70195773 85.59741211 38.92749023 C90.52524957 41.07716935 95.61368114 43.82019569 99.08789062 48.01391602 C99.89000543 53.53959577 99.89000543 53.53959577 99.08789062 56.01391602 C94.91378874 59.91193308 90.81842282 62.36350667 85.61914062 64.65063477 C84.91024185 64.97167175 84.20134308 65.29270874 83.47096252 65.62347412 C81.18048793 66.65834036 78.88435692 67.67992473 76.58789062 68.70141602 C74.99690575 69.41738677 73.40633181 70.13427134 71.81616211 70.85205078 C68.67297959 72.26942033 65.52772941 73.68201589 62.38037109 75.09008789 C56.9581751 77.51716752 51.55432844 79.98401997 46.15039062 82.45141602 C39.32607977 85.55495202 32.49007019 88.63192977 25.65039062 91.70141602 C18.54902937 94.88863568 11.48274324 98.14245902 4.43554688 101.44750977 C-0.32836474 103.67659793 -5.09881455 105.89320691 -9.91210938 108.01391602 C-10.69328125 108.3684082 -11.47445312 108.72290039 -12.27929688 109.08813477 C-30.16598344 115.37766698 -48.43596609 110.47129398 -64.73632812 102.83032227 C-73.23612715 98.85414059 -81.75973325 94.93052897 -90.28710938 91.01391602 C-91.07715363 90.6507428 -91.86719788 90.28756958 -92.68118286 89.91339111 C-101.49959671 85.85991392 -110.32373637 81.81978501 -119.16601562 77.81860352 C-120.2728772 77.31734955 -120.2728772 77.31734955 -121.40209961 76.80596924 C-124.87497797 75.23356888 -128.34908622 73.66401379 -131.82568359 72.09985352 C-135.53222514 70.42807043 -139.22686186 68.73211705 -142.91210938 67.01391602 C-143.54836243 66.71811646 -144.18461548 66.42231689 -144.84014893 66.11755371 C-146.74692011 65.22353952 -148.64487917 64.31305159 -150.54101562 63.39672852 C-151.64646729 62.86708496 -152.75191895 62.33744141 -153.89086914 61.79174805 C-157.15682224 59.86991609 -159.44707629 57.88591343 -161.91210938 55.01391602 C-162.66210938 51.57641602 -162.66210938 51.57641602 -161.91210938 48.01391602 C-157.79973862 43.28014485 -152.4860442 40.51116699 -146.83789062 38.02563477 C-146.08113541 37.68135437 -145.32438019 37.33707397 -144.54469299 36.98236084 C-142.10949781 35.87763086 -139.66731469 34.78942474 -137.22460938 33.70141602 C-135.52703169 32.93497007 -133.82993083 32.16746718 -132.13330078 31.39892578 C-128.07957664 29.56557621 -124.02052141 27.74448167 -119.9586792 25.92919922 C-117.3899934 24.78041116 -114.82454136 23.62452901 -112.25976562 22.46704102 C-110.0456146 21.46828671 -107.8309103 20.47098968 -105.61328125 19.47998047 C-100.23761141 17.07570869 -94.88322015 14.62691932 -89.53320312 12.16625977 C-87.98845495 11.4566819 -86.4436957 10.74712817 -84.89892578 10.03759766 C-82.6000375 8.98156692 -80.30165741 7.92451193 -78.00506592 6.86349487 C-69.93917674 3.1372312 -61.84551802 -0.49991053 -53.64257812 -3.91577148 C-52.94054764 -4.2108963 -52.23851715 -4.50602112 -51.51521301 -4.81008911 C-34.30473231 -11.88365026 -16.02515324 -7.96889435 0 0 Z " fill="#ffffff" transform="translate(210.912109375,57.986083984375)"/>
<path d="M0 0 C0.8964624 0.46978271 1.7929248 0.93956543 2.71655273 1.42358398 C4.72436523 2.43009778 6.73495816 3.43107779 8.74780273 4.42749023 C10.38362305 5.23790771 10.38362305 5.23790771 12.05249023 6.06469727 C18.8604611 9.34223313 25.79055135 12.34325663 32.71655273 15.36108398 C34.1157253 15.97452196 35.51489528 16.58796584 36.9140625 17.20141602 C38.23474483 17.77723264 39.55561842 18.35261085 40.87670898 18.92749023 C42.03952393 19.43352783 43.20233887 19.93956543 44.40039062 20.4609375 C50.29469727 22.88420651 55.33757289 24.18336514 61.71655273 24.23608398 C62.39137695 24.26895508 63.06620117 24.30182617 63.76147461 24.33569336 C70.99363533 24.40915021 77.09891912 21.60873026 83.65405273 18.79858398 C84.75209229 18.3289624 85.85013184 17.85934082 86.98144531 17.37548828 C90.34136547 15.91449235 93.68687299 14.42468969 97.02905273 12.92358398 C98.2042749 12.39837158 99.37949707 11.87315918 100.59033203 11.33203125 C114.80250447 5.25273642 114.80250447 5.25273642 128.47827148 -1.88500977 C134.54646326 -4.40036109 139.6935269 -3.80574106 145.73217773 -1.40844727 C147.46412581 -0.62775855 149.18813507 0.17076467 150.90405273 0.98608398 C151.77545898 1.37344727 152.64686523 1.76081055 153.54467773 2.15991211 C158.455419 4.42439265 162.27673562 6.52341161 165.65405273 10.79858398 C165.96655273 14.29858398 165.96655273 14.29858398 164.65405273 17.79858398 C159.32259143 22.15079729 152.86885169 24.57328066 146.55419922 27.21264648 C143.22911193 28.61045905 140.05767494 30.08222734 136.93920898 31.90014648 C134.32817855 33.40901782 131.96464929 34.57747692 129.15405273 35.61108398 C124.9584501 37.22243862 120.91048351 39.05405778 116.84936523 40.97827148 C109.33081569 44.51601037 101.74328074 47.88111402 94.12524414 51.19824219 C91.99460606 52.1260847 89.86526408 53.05685434 87.73608398 53.98803711 C86.36245877 54.58781302 84.98876353 55.18742859 83.61499023 55.78686523 C82.67434219 56.19779167 82.67434219 56.19779167 81.71469116 56.61701965 C80.03030343 57.3499609 78.34229486 58.07456504 76.65405273 58.79858398 C75.76500244 59.18449707 74.87595215 59.57041016 73.95996094 59.96801758 C70.5117149 61.21004331 67.08604176 61.13865572 63.46655273 61.11108398 C62.70842285 61.10616943 61.95029297 61.10125488 61.16918945 61.09619141 C53.23996278 60.93096388 46.98101304 58.90342013 39.81030273 55.61499023 C38.8417334 55.1721167 37.87316406 54.72924316 36.87524414 54.27294922 C35.81225098 53.78640869 34.74925781 53.29986816 33.65405273 52.79858398 C31.27673989 51.71720763 28.8991614 50.63643286 26.52124023 49.55639648 C22.42112723 47.69325934 18.32140904 45.82926259 14.22265625 43.96313477 C7.39671615 40.85638529 0.56836069 37.75561059 -6.27380371 34.6847229 C-9.26763874 33.34061322 -12.25958236 31.9923224 -15.25140381 30.64373779 C-16.67417246 30.00383208 -18.09786135 29.365968 -19.52252197 28.73028564 C-34.51100556 22.0408617 -34.51100556 22.0408617 -40.34594727 17.79858398 C-41.65844727 14.29858398 -41.65844727 14.29858398 -41.34594727 10.79858398 C-37.37185315 5.76798223 -32.36708118 3.55150668 -26.59594727 0.98608398 C-25.74000977 0.57938477 -24.88407227 0.17268555 -24.00219727 -0.24633789 C-15.01528072 -4.29725861 -8.83027485 -4.43913045 0 0 Z " fill="#ffffff" transform="translate(72,169)"/>
</svg>
