<?xml version="1.0" encoding="UTF-8"?>
<svg version="1.1" xmlns="http://www.w3.org/2000/svg" width="1300" height="363">
<path d="M0 0 C429 0 858 0 1300 0 C1300 119.79 1300 239.58 1300 363 C871 363 442 363 0 363 C0 243.21 0 123.42 0 0 Z " fill="#FEFEFE" transform="translate(0,0)"/>
<path d="M0 0 C1.08998291 0.49089111 2.17996582 0.98178223 3.30297852 1.48754883 C6.41689631 2.89451324 9.52269484 4.31764005 12.625 5.75 C13.38699707 6.10175293 14.14899414 6.45350586 14.93408203 6.81591797 C17.97098002 8.22318887 21.00090643 9.64459391 24.02734375 11.07421875 C28.20376022 13.01958538 32.41047703 14.88903605 36.625 16.75 C43.35817513 19.724808 50.04702997 22.77900814 56.70703125 25.9140625 C64.50034751 29.57823589 72.33328666 33.1582456 80.16015625 36.75 C83.42382812 38.25 83.42382812 38.25 86.6875 39.75 C87.76837891 40.245 88.84925781 40.74 89.96289062 41.25 C93.19067999 42.73528594 96.40883015 44.23973881 99.625 45.75 C100.7269873 46.25660156 101.82897461 46.76320312 102.96435547 47.28515625 C104.0267041 47.78917969 105.08905273 48.29320312 106.18359375 48.8125 C107.13419678 49.25722656 108.0847998 49.70195313 109.06420898 50.16015625 C112.01908183 51.99466211 113.67491227 53.88497673 115.625 56.75 C116.52190425 60.87575957 115.84427076 62.40369474 113.58203125 65.9765625 C108.43971337 71.75596825 100.65040799 74.26358868 93.6875 77.25 C92.25120564 77.87980851 90.8156519 78.51130883 89.38085938 79.14453125 C87.24411297 80.0867123 85.10677843 81.02727134 82.96626282 81.96086121 C74.31956657 85.73430284 65.70859119 89.63215944 57.3125 93.9375 C54.73408125 95.24744277 52.14597156 96.34893401 49.4453125 97.3828125 C42.54826696 100.11861751 35.84354218 103.26616336 29.11010742 106.37710571 C18.3207571 111.35661846 7.52452127 116.32809437 -3.375 121.0625 C-4.1481958 121.40434326 -4.9213916 121.74618652 -5.71801758 122.09838867 C-14.55375363 125.88985345 -23.16205829 128.27233499 -32.8125 128.125 C-33.56853516 128.13660156 -34.32457031 128.14820313 -35.10351562 128.16015625 C-46.45918708 128.10304474 -56.54887521 124.14422759 -66.75 119.5 C-67.84127197 119.01200928 -68.93254395 118.52401855 -70.05688477 118.02124023 C-76.9760507 114.90563454 -83.78071143 111.62554195 -90.53125 108.16015625 C-93.81604048 106.53129723 -97.15418483 105.19226806 -100.57666016 103.88549805 C-103.79258302 102.580555 -106.91498205 101.12765108 -110.0546875 99.6484375 C-111.3958844 99.01879429 -112.73728326 98.38958116 -114.07885742 97.76074219 C-114.7807016 97.4316687 -115.48254578 97.10259521 -116.20565796 96.7635498 C-122.18399119 93.97038102 -128.18434711 91.22450141 -134.18063354 88.47015381 C-136.6149746 87.35087281 -139.04792034 86.22859929 -141.48071289 85.10595703 C-148.29715199 81.96484052 -155.10924319 78.83053326 -162.015625 75.890625 C-162.93577393 75.49536621 -163.85592285 75.10010742 -164.80395508 74.69287109 C-166.40116557 74.01294908 -168.00468856 73.34753766 -169.6159668 72.70166016 C-174.77813996 70.49556219 -178.32178568 67.51205701 -181.375 62.75 C-182.12903491 58.97982546 -181.87960522 57.52746581 -179.79296875 54.3125 C-176.90602022 51.2529875 -173.81724281 49.6223458 -170.0625 47.875 C-169.00832886 47.36682739 -169.00832886 47.36682739 -167.93286133 46.84838867 C-165.75297776 45.80221035 -163.56513031 44.77452717 -161.375 43.75 C-160.04153036 43.11877745 -158.70819212 42.48727724 -157.375 41.85546875 C-152.09884137 39.36812736 -146.79663243 36.94026786 -141.484375 34.53125 C-136.80560796 32.40685624 -132.13758186 30.26001395 -127.47265625 28.10546875 C-107.01582625 18.6627686 -86.48974501 9.39165144 -65.87475586 0.29931641 C-62.97867766 -0.9827563 -60.09201432 -2.28313194 -57.20703125 -3.58984375 C-37.88587728 -12.15330603 -18.58286972 -8.56176397 0 0 Z " fill="#0A0A0A" transform="translate(209.375,40.25)"/>
<path d="M0 0 C0.75023437 0.35900391 1.50046875 0.71800781 2.2734375 1.08789062 C3.00820312 1.42755859 3.74296875 1.76722656 4.5 2.1171875 C6.03414382 2.82719351 7.56589281 3.54239239 9.09545898 4.26220703 C19.42867833 9.10619583 29.87660683 13.70755376 40.29516602 18.36425781 C46.09091151 20.95615424 51.88198983 23.55617838 57.6484375 26.21289062 C58.55601807 26.62893555 59.46359863 27.04498047 60.39868164 27.47363281 C62.05424972 28.23397947 63.70728465 28.99987728 65.35717773 29.77246094 C72.70770034 33.13758552 79.33342124 33.58191414 87.3359375 33.58789062 C88.61307617 33.60625977 88.61307617 33.60625977 89.91601562 33.625 C100.8875936 33.65006834 109.06512 30.50378583 118.8984375 25.77539062 C126.87912233 22.00805122 134.86364118 18.32641386 143.0234375 14.96289062 C148.34689505 12.7612375 153.5383678 10.46563037 158.6640625 7.83007812 C162.97827395 5.6729724 167.33569421 3.61791852 171.7109375 1.58789062 C172.9956897 0.97312866 172.9956897 0.97312866 174.30639648 0.34594727 C175.13469971 -0.03440674 175.96300293 -0.41476074 176.81640625 -0.80664062 C177.92278442 -1.3244812 177.92278442 -1.3244812 179.05151367 -1.8527832 C184.88113159 -3.61404752 189.49787161 -2.5609007 194.9375 -0.15039062 C196.11054688 0.36845703 197.28359375 0.88730469 198.4921875 1.421875 C199.09289062 1.69604248 199.69359375 1.97020996 200.3125 2.25268555 C202.14332614 3.08556536 203.98436019 3.89155088 205.828125 4.6953125 C211.740958 7.34892423 216.08581659 9.57630575 220.5234375 14.40039062 C220.8534375 14.73039062 221.1834375 15.06039062 221.5234375 15.40039062 C221.3652159 19.51415218 221.06309603 21.76560584 218.36279297 24.94189453 C215.39670561 27.51012323 212.80871679 28.93023493 209.21875 30.48632812 C208.61771454 30.75120026 208.01667908 31.01607239 207.39743042 31.28897095 C205.48571203 32.12885007 203.5675748 32.952626 201.6484375 33.77539062 C199.77667443 34.59008937 197.90640061 35.40813722 196.03622437 36.22647095 C194.7743989 36.77843126 193.51204131 37.32917658 192.24917603 37.87875366 C186.57410033 40.35543155 180.96768827 42.96827914 175.36376953 45.60107422 C171.39342972 47.46560125 167.40958614 49.29992073 163.421875 51.12695312 C162.39160942 51.59901436 162.39160942 51.59901436 161.3405304 52.08061218 C155.34274914 54.82605374 149.33919891 57.55882601 143.3349762 60.29014587 C138.97531511 62.27545506 134.62414217 64.27766392 130.28161621 66.3001709 C127.7014226 67.49959427 125.11616981 68.68782465 122.52984619 69.8739624 C120.77825533 70.68184188 119.03326086 71.50397656 117.28857422 72.32666016 C107.50258889 76.79414357 97.17616291 79.85618734 86.3359375 79.77539062 C85.29050781 79.783125 84.24507812 79.79085937 83.16796875 79.79882812 C72.64489001 78.64839508 63.39158439 74.31845279 53.8984375 69.90039062 C51.84158414 68.95429675 49.78337386 68.01120184 47.72502136 67.06837463 C46.33870458 66.43325778 44.95280878 65.79722121 43.56733704 65.16026306 C37.06849214 62.1766562 30.51891145 59.31389838 23.9609375 56.46289062 C16.38781865 53.157921 8.91754586 49.74759324 1.5859375 45.93554688 C-4.05338942 43.1086904 -9.86453415 40.66557175 -15.6505127 38.15629578 C-18.19353407 37.05038479 -20.73257804 35.9355227 -23.27099609 34.8190918 C-24.58006526 34.24594503 -25.89096529 33.67696278 -27.20361328 33.11206055 C-29.12773573 32.2829613 -31.04468687 31.43890361 -32.9609375 30.59179688 C-34.09241211 30.09881104 -35.22388672 29.6058252 -36.38964844 29.09790039 C-40.18533551 27.01063274 -43.69071327 24.56983611 -45.2109375 20.37304688 C-45.23459247 17.48122727 -45.12594714 15.22552739 -43.29394531 12.89770508 C-37.90032224 8.27331772 -31.92505508 5.42642396 -25.4765625 2.52539062 C-24.42210938 2.0278125 -23.36765625 1.53023437 -22.28125 1.01757812 C-13.90134972 -2.80483253 -8.4935032 -3.88422402 0 0 Z " fill="#474747" transform="translate(88.4765625,159.599609375)"/>
<path d="M0 0 C1.40359013 0.74259487 2.80910614 1.48155855 4.21630859 2.21728516 C4.94138611 2.59870667 5.66646362 2.98012817 6.41351318 3.37310791 C10.11192301 5.26060922 13.89740154 6.94125598 17.6953125 8.6171875 C18.45512421 8.95364288 19.21493591 9.29009827 19.99777222 9.63674927 C22.31616754 10.66068553 24.63648664 11.6801642 26.95703125 12.69921875 C29.29836564 13.7316965 31.63921053 14.76527698 33.97994995 15.79910278 C35.48213153 16.46225555 36.98466715 17.12460701 38.48757935 17.78610229 C42.63398958 19.61306826 46.76085634 21.47611098 50.875 23.375 C57.93402119 26.56568025 63.54624633 27.87499905 71.26953125 27.88671875 C72.50896484 27.92345703 72.50896484 27.92345703 73.7734375 27.9609375 C85.1956793 28.01373677 95.20701932 23.00742885 105.33203125 18.19921875 C107.59352535 17.14535111 109.85525654 16.09199215 112.1171875 15.0390625 C116.05937603 13.19646688 119.99765274 11.34570558 123.93310547 9.48876953 C127.64165247 7.74018001 131.35739576 6.00763856 135.07730103 4.28335571 C136.5280478 3.60726955 137.97617013 2.92552038 139.42147827 2.23788452 C141.4608779 1.26808664 143.5084121 0.3178401 145.55859375 -0.62890625 C146.73373535 -1.18094727 147.90887695 -1.73298828 149.11962891 -2.30175781 C153.83434956 -3.88878804 157.99112266 -4.27180483 162.86279297 -2.83325195 C163.42756348 -2.52991943 163.99233398 -2.22658691 164.57421875 -1.9140625 C165.21979736 -1.57850342 165.86537598 -1.24294434 166.53051758 -0.8972168 C167.51507935 -0.3544812 167.51507935 -0.3544812 168.51953125 0.19921875 C169.91657149 0.93637833 171.31370685 1.67335766 172.7109375 2.41015625 C173.71664795 2.9510791 173.71664795 2.9510791 174.74267578 3.50292969 C178.01948915 5.2410289 181.37894321 6.81022497 184.7265625 8.40625 C186.76122989 9.5789809 188.15576721 10.6967132 189.64453125 12.51171875 C190.18018972 16.03176015 190.03301839 17.8607403 188.19921875 20.93359375 C184.69585901 24.46909441 180.88213524 25.98826266 176.33203125 27.88671875 C174.66860517 28.60131706 173.00586442 29.3175124 171.34375 30.03515625 C170.44567627 30.4206665 169.54760254 30.80617676 168.62231445 31.20336914 C164.61653817 32.96338842 160.657289 34.81853462 156.69659424 36.67689514 C151.76032158 38.99292709 146.81350004 41.28490713 141.859375 43.5625 C141.10924637 43.907435 140.35911774 44.25237 139.58625793 44.60775757 C135.61470532 46.43301245 131.64189493 48.2555134 127.66845703 50.07666016 C126.85731445 50.44845398 126.04617187 50.8202478 125.21044922 51.20330811 C123.59656309 51.94303286 121.98263142 52.68265824 120.36865234 53.42218018 C115.81607158 55.50984804 111.27166711 57.61369155 106.734375 59.734375 C105.74767822 60.19223389 104.76098145 60.65009277 103.74438477 61.12182617 C102.01122336 61.9263696 100.2808903 62.73705563 98.55444336 63.5559082 C90.12892848 67.4460372 81.60059953 70.04945484 72.26953125 69.94921875 C71.61726563 69.96919922 70.965 69.98917969 70.29296875 70.00976562 C57.56094177 69.99761674 45.56321256 63.45702591 34.26953125 58.19921875 C32.86622378 57.55330083 31.46257867 56.90811595 30.05859375 56.26367188 C24.59017403 53.7490366 19.13237073 51.21203935 13.68432617 48.65356445 C6.0778062 45.0832466 -1.56731172 41.63065088 -9.29296875 38.32421875 C-15.10560455 35.8364262 -20.87197153 33.32917445 -26.50366211 30.4519043 C-28.35322111 29.51285991 -30.21859482 28.61714328 -32.09375 27.73046875 C-33.86298828 26.8796875 -33.86298828 26.8796875 -35.66796875 26.01171875 C-36.27447266 25.72941406 -36.88097656 25.44710938 -37.50585938 25.15625 C-41.02327049 23.44591368 -43.44589531 21.9774926 -45.35546875 18.51171875 C-45.60546875 15.13671875 -45.60546875 15.13671875 -44.35546875 11.51171875 C-38.80580323 6.73502843 -31.9203049 3.61825942 -25.29296875 0.63671875 C-24.44669922 0.23453125 -23.60042969 -0.16765625 -22.72851562 -0.58203125 C-21.89255859 -0.96101562 -21.05660156 -1.34 -20.1953125 -1.73046875 C-19.45659912 -2.06933105 -18.71788574 -2.40819336 -17.95678711 -2.75732422 C-11.0086366 -4.70971865 -6.14347097 -3.43694662 0 0 Z " fill="#848484" transform="translate(104.35546875,239.48828125)"/>
<path d="M0 0 C5.61 0 11.22 0 17 0 C18.29208963 4.35404156 19.58368695 8.70822813 20.875 13.0625 C21.23980469 14.29162109 21.60460938 15.52074219 21.98046875 16.78710938 C23.67953736 22.5176044 25.37602983 28.24772671 27 34 C27.21914062 33.05382812 27.43828125 32.10765625 27.6640625 31.1328125 C30.18332759 20.53564582 33.42834943 10.28635364 37 0 C42.28 0 47.56 0 53 0 C53.71759745 5.02318215 54.25489176 9.90551144 54.53515625 14.953125 C54.57813339 15.69399353 54.62111053 16.43486206 54.66539001 17.19818115 C54.75504445 18.75785055 54.84320237 20.31760662 54.92993164 21.87744141 C55.06137006 24.22977753 55.19929598 26.58166969 55.33789062 28.93359375 C55.79966672 36.96830668 56.10745562 44.9479924 56 53 C52.04 53 48.08 53 44 53 C43.93941406 51.23914063 43.87882812 49.47828125 43.81640625 47.6640625 C43.73193728 45.31770234 43.64729253 42.97134849 43.5625 40.625 C43.52318359 39.46871094 43.48386719 38.31242187 43.44335938 37.12109375 C43.19577173 30.37909185 42.78053875 23.70209838 42 17 C38.05433754 28.59292579 34.36822524 40.22611532 31 52 C27.7 52 24.4 52 21 52 C18.06739662 44.3757959 15.74114988 36.73138436 13.75 28.8125 C13.481875 27.76513672 13.21375 26.71777344 12.9375 25.63867188 C12.28672121 23.09366197 11.6409681 20.54749495 11 18 C9.91394986 23.44835153 9.71046031 28.84067336 9.5 34.375 C9.25967902 40.6411471 8.87292949 46.78765181 8 53 C4.37 53 0.74 53 -3 53 C-2.73386031 48.18430504 -2.46731742 43.36863261 -2.20043945 38.55297852 C-2.1101659 36.92310148 -2.01999266 35.29321888 -1.92993164 33.66333008 C-1.30972897 22.44078001 -0.66564127 11.21995332 0 0 Z " fill="#050505" transform="translate(1213,166)"/>
<path d="M0 0 C5.61 0 11.22 0 17 0 C23.3176819 21.8358714 23.3176819 21.8358714 25.45703125 31.015625 C25.81974938 32.98488799 25.81974938 32.98488799 27 34 C27.24234375 32.97261719 27.4846875 31.94523437 27.734375 30.88671875 C29.48413898 23.60484598 31.32994922 16.51413774 34.0703125 9.52734375 C35.21736824 6.40908719 36.08722853 3.19470016 37 0 C42.28 0 47.56 0 53 0 C53.71759745 5.02318215 54.25489176 9.90551144 54.53515625 14.953125 C54.57813339 15.69399353 54.62111053 16.43486206 54.66539001 17.19818115 C54.75504445 18.75785055 54.84320237 20.31760662 54.92993164 21.87744141 C55.06137006 24.22977753 55.19929598 26.58166969 55.33789062 28.93359375 C55.79966672 36.96830668 56.10745562 44.9479924 56 53 C52.04 53 48.08 53 44 53 C43.93941406 51.23914063 43.87882812 49.47828125 43.81640625 47.6640625 C43.73193728 45.31770234 43.64729253 42.97134849 43.5625 40.625 C43.52318359 39.46871094 43.48386719 38.31242187 43.44335938 37.12109375 C43.19577173 30.37909185 42.78053875 23.70209838 42 17 C38.05433754 28.59292579 34.36822524 40.22611532 31 52 C27.7 52 24.4 52 21 52 C18.06739662 44.3757959 15.74114988 36.73138436 13.75 28.8125 C13.481875 27.76513672 13.21375 26.71777344 12.9375 25.63867188 C12.28672121 23.09366197 11.6409681 20.54749495 11 18 C9.91394986 23.44835153 9.71046031 28.84067336 9.5 34.375 C9.25967902 40.6411471 8.87292949 46.78765181 8 53 C4.37 53 0.74 53 -3 53 C-2.73386031 48.18430504 -2.46731742 43.36863261 -2.20043945 38.55297852 C-2.1101659 36.92310148 -2.01999266 35.29321888 -1.92993164 33.66333008 C-1.30972897 22.44078001 -0.66564127 11.21995332 0 0 Z " fill="#050505" transform="translate(450,166)"/>
<path d="M0 0 C5.61 0 11.22 0 17 0 C18.29208963 4.35404156 19.58368695 8.70822813 20.875 13.0625 C21.23980469 14.29162109 21.60460937 15.52074219 21.98046875 16.78710938 C23.67953736 22.5176044 25.37602983 28.24772671 27 34 C27.24234375 32.97261719 27.4846875 31.94523437 27.734375 30.88671875 C29.48413898 23.60484598 31.32994922 16.51413774 34.0703125 9.52734375 C35.21736824 6.40908719 36.08722853 3.19470016 37 0 C42.28 0 47.56 0 53 0 C53.71759745 5.02318215 54.25489176 9.90551144 54.53515625 14.953125 C54.57813339 15.69399353 54.62111053 16.43486206 54.66539001 17.19818115 C54.75504445 18.75785055 54.84320237 20.31760662 54.92993164 21.87744141 C55.06137006 24.22977753 55.19929598 26.58166969 55.33789062 28.93359375 C55.79966672 36.96830668 56.10745562 44.9479924 56 53 C52.04 53 48.08 53 44 53 C43.93941406 51.23914063 43.87882813 49.47828125 43.81640625 47.6640625 C43.73193728 45.31770234 43.64729253 42.97134849 43.5625 40.625 C43.52318359 39.46871094 43.48386719 38.31242187 43.44335938 37.12109375 C43.19577173 30.37909185 42.78053875 23.70209838 42 17 C38.05433754 28.59292579 34.36822524 40.22611532 31 52 C27.7 52 24.4 52 21 52 C18.32969764 45.17589397 16.18297275 38.32711276 14.3125 31.25 C14.09827393 30.44651123 13.88404785 29.64302246 13.66333008 28.81518555 C12.47157199 24.21962576 11.57340855 19.71329224 11 15 C10.09349772 22.42576448 9.6854266 29.7997834 9.39453125 37.27148438 C9.16981772 42.56774978 8.7352072 47.74939525 8 53 C4.37 53 0.74 53 -3 53 C-2.73386031 48.18430504 -2.46731742 43.36863261 -2.20043945 38.55297852 C-2.1101659 36.92310148 -2.01999266 35.29321888 -1.92993164 33.66333008 C-1.30972897 22.44078001 -0.66564127 11.21995332 0 0 Z " fill="#040404" transform="translate(771,166)"/>
<path d="M0 0 C1.051875 -0.03738281 2.10375 -0.07476562 3.1875 -0.11328125 C10.69988091 -0.19695876 16.21057978 1.17341603 22.5 5.375 C25.56018411 8.70520035 26.03493965 11.79544883 25.85546875 16.31640625 C25.06890252 20.87157551 22.74832568 24.30005288 19.25 27.3125 C18.6725 27.663125 18.095 28.01375 17.5 28.375 C18.26699219 29.18453125 19.03398437 29.9940625 19.82421875 30.828125 C22.94971967 34.58093104 24.09234721 38.46041588 25.3125 43.125 C25.63637695 44.27548828 25.63637695 44.27548828 25.96679688 45.44921875 C27.5 50.98821925 27.5 50.98821925 27.5 53.375 C25.54196493 53.42889087 23.58351091 53.46774217 21.625 53.5 C20.53445313 53.52320313 19.44390625 53.54640625 18.3203125 53.5703125 C15.5 53.375 15.5 53.375 13.5 51.375 C12.63014792 48.22087249 11.87121146 45.06900222 11.17578125 41.87304688 C10.4688284 38.93890516 9.82691645 36.74334596 7.8046875 34.46484375 C4.85523047 32.93128361 4.85523047 32.93128361 -1.5 32.375 C-1.5 39.305 -1.5 46.235 -1.5 53.375 C-5.46 53.375 -9.42 53.375 -13.5 53.375 C-13.5 36.215 -13.5 19.055 -13.5 1.375 C-9.47395786 -0.63802107 -4.42565193 0.05795497 0 0 Z " fill="#040404" transform="translate(398.5,165.625)"/>
<path d="M0 0 C4.95 0 9.9 0 15 0 C16.92233803 3.41292099 18.8434663 6.82648383 20.76171875 10.24169922 C21.73046865 11.96525079 22.70115215 13.68771509 23.671875 15.41015625 C24.290625 16.51230469 24.909375 17.61445313 25.546875 18.75 C26.11245117 19.75546875 26.67802734 20.7609375 27.26074219 21.796875 C29.2629371 25.48424126 31.123543 29.24708599 33 33 C33.33 22.11 33.66 11.22 34 0 C37.63 0 41.26 0 45 0 C45 17.49 45 34.98 45 53 C40.71 53 36.42 53 32 53 C28.64569387 49.07021576 26.76374959 46.26456279 24.5625 41.75 C24.00369141 40.70585937 23.44488281 39.66171875 22.86914062 38.5859375 C21.18817947 35.41578957 19.588318 32.21761633 18 29 C16.02 25.04 14.04 21.08 12 17 C11.67 28.88 11.34 40.76 11 53 C7.37 53 3.74 53 0 53 C0 35.51 0 18.02 0 0 Z " fill="#010101" transform="translate(879,166)"/>
<path d="M0 0 C4.95 0 9.9 0 15 0 C16.92233803 3.41292099 18.8434663 6.82648383 20.76171875 10.24169922 C21.73046865 11.96525079 22.70115215 13.68771509 23.671875 15.41015625 C24.290625 16.51230469 24.909375 17.61445313 25.546875 18.75 C26.11245117 19.75546875 26.67802734 20.7609375 27.26074219 21.796875 C29.2629371 25.48424126 31.123543 29.24708599 33 33 C33.33 22.11 33.66 11.22 34 0 C37.63 0 41.26 0 45 0 C45 17.49 45 34.98 45 53 C40.71 53 36.42 53 32 53 C28.64569387 49.07021576 26.76374959 46.26456279 24.5625 41.75 C24.00369141 40.70585937 23.44488281 39.66171875 22.86914062 38.5859375 C21.18817947 35.41578957 19.588318 32.21761633 18 29 C16.02 25.04 14.04 21.08 12 17 C11.67 28.88 11.34 40.76 11 53 C7.37 53 3.74 53 0 53 C0 35.51 0 18.02 0 0 Z " fill="#010101" transform="translate(567,166)"/>
<path d="M0 0 C3.96 0 7.92 0 12 0 C12 6.6 12 13.2 12 20 C18.6 20 25.2 20 32 20 C32 13.4 32 6.8 32 0 C35.96 0 39.92 0 44 0 C44 17.49 44 34.98 44 53 C40.04 53 36.08 53 32 53 C32 45.41 32 37.82 32 30 C25.4 30 18.8 30 12 30 C12 37.59 12 45.18 12 53 C8.04 53 4.08 53 0 53 C0 35.51 0 18.02 0 0 Z " fill="#000000" transform="translate(330,166)"/>
<path d="M0 0 C-0.875 7.75 -0.875 7.75 -2 10 C-2.9075 9.835 -3.815 9.67 -4.75 9.5 C-11.50944033 8.57763238 -18.36243319 7.65808005 -24.5625 10.8125 C-25.366875 11.534375 -26.17125 12.25625 -27 13 C-27.598125 13.515625 -28.19625 14.03125 -28.8125 14.5625 C-32.40520701 18.91156638 -31.47999022 25.7334406 -31 31 C-29.76838626 35.21693836 -28.30092896 38.03333751 -24.75 40.671875 C-21.59505276 42.19557111 -19.17379203 42.49594549 -15.6875 42.6875 C-13.810625 42.790625 -11.93375 42.89375 -10 43 C-10 39.04 -10 35.08 -10 31 C-12.64 31 -15.28 31 -18 31 C-18 28.03 -18 25.06 -18 22 C-11.4 22 -4.8 22 2 22 C2 31.24 2 40.48 2 50 C-9.6179025 52.90447562 -21.92971149 55.69946107 -33.15625 49.8828125 C-39.35390897 45.78958251 -42.45098191 40.04939663 -44.6015625 33.0390625 C-46.5436122 23.10033754 -44.54143522 15.38876254 -39 7 C-30.31449893 -3.82007337 -12.06219961 -4.74143067 0 0 Z " fill="#050505" transform="translate(715,167)"/>
<path d="M0 0 C5.61 0 11.22 0 17 0 C17.721875 2.31 18.44375 4.62 19.1875 7 C19.43274414 7.78463623 19.67798828 8.56927246 19.93066406 9.37768555 C21.03277593 12.90386173 22.13440517 16.43018624 23.234375 19.95703125 C23.53239014 20.91198486 23.53239014 20.91198486 23.83642578 21.88623047 C24.23873848 23.17552664 24.6407544 24.46491545 25.04248047 25.75439453 C26.23043406 29.56088527 27.43327818 33.36225658 28.6484375 37.16015625 C28.92502197 38.02729248 29.20160645 38.89442871 29.48657227 39.7878418 C30.0289161 41.48669417 30.57360153 43.18480115 31.12084961 44.88208008 C33 50.77659359 33 50.77659359 33 53 C28.71 53 24.42 53 20 53 C18.37755886 48.27375841 16.98253624 43.9126812 16 39 C10.72 39 5.44 39 0 39 C-0.309375 40.5675 -0.61875 42.135 -0.9375 43.75 C-1.55214335 46.86419297 -2.22942958 49.91771831 -3 53 C-7.29 53 -11.58 53 -16 53 C-12.78914081 39.48059287 -8.51034673 26.3533623 -4.05541992 13.20263672 C-3.81670166 12.49510254 -3.5779834 11.78756836 -3.33203125 11.05859375 C-3.12296143 10.44298584 -2.9138916 9.82737793 -2.69848633 9.19311523 C-1.72930395 6.15006549 -0.87736597 3.07078088 0 0 Z " fill="#060606" transform="translate(634,166)"/>
<path d="M0 0 C5.61 0 11.22 0 17 0 C17.721875 2.31 18.44375 4.62 19.1875 7 C19.43274414 7.78463623 19.67798828 8.56927246 19.93066406 9.37768555 C21.03277593 12.90386173 22.13440517 16.43018624 23.234375 19.95703125 C23.53239014 20.91198486 23.53239014 20.91198486 23.83642578 21.88623047 C24.23873848 23.17552664 24.6407544 24.46491545 25.04248047 25.75439453 C26.23043406 29.56088527 27.43327818 33.36225658 28.6484375 37.16015625 C28.92502197 38.02729248 29.20160645 38.89442871 29.48657227 39.7878418 C30.0289161 41.48669417 30.57360153 43.18480115 31.12084961 44.88208008 C33 50.77659359 33 50.77659359 33 53 C28.71 53 24.42 53 20 53 C18.37755886 48.27375841 16.98253624 43.9126812 16 39 C10.72 39 5.44 39 0 39 C-0.309375 40.5675 -0.61875 42.135 -0.9375 43.75 C-1.55214335 46.86419297 -2.22942958 49.91771831 -3 53 C-7.29 53 -11.58 53 -16 53 C-13.74879176 43.52122847 -10.97299309 34.27071866 -8 25 C-7.29931697 22.80604138 -6.59880867 20.61202695 -5.8984375 18.41796875 C-3.93677416 12.27720385 -1.96951808 6.13824988 0 0 Z " fill="#060606" transform="translate(527,166)"/>
<path d="M0 0 C10.89 0 21.78 0 33 0 C33 3.3 33 6.6 33 10 C26.07 10 19.14 10 12 10 C12 13.63 12 17.26 12 21 C18.6 21 25.2 21 32 21 C32 24.3 32 27.6 32 31 C25.4 31 18.8 31 12 31 C12 34.96 12 38.92 12 43 C19.26 43 26.52 43 34 43 C34 46.3 34 49.6 34 53 C22.78 53 11.56 53 0 53 C0 35.51 0 18.02 0 0 Z " fill="#000000" transform="translate(1168,166)"/>
<path d="M0 0 C10.89 0 21.78 0 33 0 C33 3.3 33 6.6 33 10 C26.07 10 19.14 10 12 10 C12 13.63 12 17.26 12 21 C18.6 21 25.2 21 32 21 C32 24.3 32 27.6 32 31 C25.4 31 18.8 31 12 31 C12 34.96 12 38.92 12 43 C19.26 43 26.52 43 34 43 C34 46.3 34 49.6 34 53 C22.78 53 11.56 53 0 53 C0 35.51 0 18.02 0 0 Z " fill="#000000" transform="translate(836,166)"/>
<path d="M0 0 C10.89 0 21.78 0 33 0 C33 3.3 33 6.6 33 10 C26.07 10 19.14 10 12 10 C12 13.63 12 17.26 12 21 C18.6 21 25.2 21 32 21 C32 24.3 32 27.6 32 31 C25.4 31 18.8 31 12 31 C12 34.96 12 38.92 12 43 C19.26 43 26.52 43 34 43 C34 46.3 34 49.6 34 53 C22.78 53 11.56 53 0 53 C0 35.51 0 18.02 0 0 Z " fill="#000000" transform="translate(727,166)"/>
<path d="M0 0 C0.17942163 3.94727588 0.09350689 6.5980513 -2 10 C-2.70769531 9.83886719 -3.41539063 9.67773438 -4.14453125 9.51171875 C-7.04579581 8.99179309 -9.74234913 8.83258971 -12.6875 8.8125 C-13.64011719 8.79832031 -14.59273437 8.78414062 -15.57421875 8.76953125 C-18.18212282 8.75741803 -18.18212282 8.75741803 -20 11 C-20.32907013 13.46547063 -20.32907013 13.46547063 -19 16 C-16.41133886 17.86677041 -13.57478964 19.15718494 -10.6875 20.5 C-4.56866942 23.38845547 -0.1564819 25.6870362 3 32 C3.56735892 36.65048294 3.4598631 40.09730577 1.3125 44.3125 C-2.80999135 49.10350346 -6.6453668 52.10498124 -13 53 C-19.97716988 53.42285878 -26.40625181 53.4534877 -33 51 C-33.07442057 47.13013042 -33.04702186 43.7264085 -32 40 C-30.906875 40.33 -29.81375 40.66 -28.6875 41 C-23.57237561 42.26964695 -18.22994316 42.78575883 -13 42 C-11.14540011 40.73491276 -11.14540011 40.73491276 -10 39 C-9.52247323 36.45683262 -9.52247323 36.45683262 -11 34 C-13.08546665 32.81885075 -15.22087365 31.9751369 -17.44921875 31.09375 C-23.28722943 28.59046824 -30.00314712 24.73310986 -33 19 C-33.77963936 14.11699558 -33.53626421 10.23573927 -31.5625 5.6875 C-23.35975433 -2.91537961 -10.94502163 -5.20097402 0 0 Z " fill="#060606" transform="translate(1114,167)"/>
<path d="M0 0 C-0.875 7.75 -0.875 7.75 -2 10 C-2.70769531 9.83886719 -3.41539062 9.67773438 -4.14453125 9.51171875 C-7.04579581 8.99179309 -9.74234913 8.83258971 -12.6875 8.8125 C-13.64011719 8.79832031 -14.59273437 8.78414062 -15.57421875 8.76953125 C-18.18212282 8.75741803 -18.18212282 8.75741803 -20 11 C-20.32907013 13.46547063 -20.32907013 13.46547063 -19 16 C-16.41133886 17.86677041 -13.57478964 19.15718494 -10.6875 20.5 C-4.56866942 23.38845547 -0.1564819 25.6870362 3 32 C3.57825746 36.73981526 3.47260429 40.11997823 1.1875 44.375 C-3.10246267 49.52295521 -6.37936946 51.61912563 -13 53 C-19.9612638 53.55488335 -26.423451 53.447088 -33 51 C-33.07442057 47.13013042 -33.04702186 43.7264085 -32 40 C-30.906875 40.33 -29.81375 40.66 -28.6875 41 C-23.57237561 42.26964695 -18.22994316 42.78575883 -13 42 C-11.14540011 40.73491276 -11.14540011 40.73491276 -10 39 C-9.52247323 36.45683262 -9.52247323 36.45683262 -11 34 C-13.08546665 32.81885075 -15.22087365 31.9751369 -17.44921875 31.09375 C-23.28722943 28.59046824 -30.00314712 24.73310986 -33 19 C-33.77963936 14.11699558 -33.53626421 10.23573927 -31.5625 5.6875 C-23.35975433 -2.91537961 -10.94502163 -5.20097402 0 0 Z " fill="#060606" transform="translate(1025,167)"/>
<path d="M0 0 C4.62 0 9.24 0 14 0 C15.12672175 2.39503687 16.25142558 4.7909871 17.375 7.1875 C17.69210937 7.86103516 18.00921875 8.53457031 18.3359375 9.22851562 C20.00011424 12.78222638 21.59091761 16.33496248 23 20 C24.54699545 17.67950683 25.61582846 15.76451304 26.69140625 13.2421875 C26.99626953 12.53449219 27.30113281 11.82679688 27.61523438 11.09765625 C27.92783203 10.36417969 28.24042969 9.63070312 28.5625 8.875 C31.86874052 1.13125948 31.86874052 1.13125948 33 0 C35.18639453 -0.07258946 37.37500389 -0.08373783 39.5625 -0.0625 C41.35880859 -0.04896484 41.35880859 -0.04896484 43.19140625 -0.03515625 C44.11824219 -0.02355469 45.04507812 -0.01195312 46 0 C44.6384195 3.71385547 42.93334557 6.83775051 40.77734375 10.1484375 C31.67637777 24.73005005 27.86669577 35.7899658 29 53 C25.04 53 21.08 53 17 53 C17.09023437 51.64132813 17.18046875 50.28265625 17.2734375 48.8828125 C17.78006172 31.99283284 12.21664488 20.58790374 3.49633789 6.47583008 C2.22745901 4.37635207 1.09707443 2.19414886 0 0 Z " fill="#040404" transform="translate(1032,166)"/>
<path d="M0 0 C13.2 0 26.4 0 40 0 C40 3.3 40 6.6 40 10 C35.38 10 30.76 10 26 10 C26 24.19 26 38.38 26 53 C22.04 53 18.08 53 14 53 C14 38.81 14 24.62 14 10 C9.38 10 4.76 10 0 10 C0 6.7 0 3.4 0 0 Z " fill="#000000" transform="translate(1122,166)"/>
<path d="M0 0 C13.2 0 26.4 0 40 0 C40 3.3 40 6.6 40 10 C35.38 10 30.76 10 26 10 C26 24.19 26 38.38 26 53 C22.04 53 18.08 53 14 53 C14 38.81 14 24.62 14 10 C9.38 10 4.76 10 0 10 C0 6.7 0 3.4 0 0 Z " fill="#000000" transform="translate(931,166)"/>
<path d="M0 0 C9.06976744 -0.48372093 9.06976744 -0.48372093 13.125 1.625 C15 4 15 4 15.5 7.0625 C15 10 15 10 13.6875 11.8125 C10.6200074 13.97110591 7.93614574 14.1150166 4.3125 14.0625 C2.889375 14.041875 1.46625 14.02125 0 14 C0 9.38 0 4.76 0 0 Z " fill="#FBFBFB" transform="translate(397,175)"/>
<path d="M0 0 C0.66 0 1.32 0 2 0 C2.83661862 2.7907207 3.66942737 5.58248012 4.5 8.375 C4.73847656 9.1690625 4.97695313 9.963125 5.22265625 10.78125 C5.44824219 11.54179687 5.67382812 12.30234375 5.90625 13.0859375 C6.22045898 14.1385376 6.22045898 14.1385376 6.54101562 15.21240234 C7 17 7 17 7 19 C3.37 19 -0.26 19 -4 19 C-3.26309887 12.51527007 -1.64681249 6.30760257 0 0 Z " fill="#F1F1F1" transform="translate(534,177)"/>
<path d="M0 0 C0.66 0 1.32 0 2 0 C2.83661862 2.7907207 3.66942737 5.58248012 4.5 8.375 C4.73847656 9.1690625 4.97695313 9.963125 5.22265625 10.78125 C5.44824219 11.54179687 5.67382812 12.30234375 5.90625 13.0859375 C6.22045898 14.1385376 6.22045898 14.1385376 6.54101562 15.21240234 C7 17 7 17 7 19 C3.37 19 -0.26 19 -4 19 C-3.26309887 12.51527007 -1.64681249 6.30760257 0 0 Z " fill="#F2F2F2" transform="translate(641,177)"/>
</svg>
